<?xml version="1.0" standalone="no"?><!DOCTYPE svg PUBLIC "-//W3C//DTD SVG 1.1//EN" "http://www.w3.org/Graphics/SVG/1.1/DTD/svg11.dtd"><svg t="1611819992583" class="icon" viewBox="0 0 1024 1024" version="1.1" xmlns="http://www.w3.org/2000/svg" p-id="4283" xmlns:xlink="http://www.w3.org/1999/xlink" width="32" height="32"><defs><style type="text/css"></style></defs><path d="M230.4 576.512c-12.288 9.728-25.088 24.064-28.672 41.984-5.12 24.576-1.024 55.296 22.528 79.872 28.672 29.184 72.704 37.376 91.648 38.912 51.2 3.584 105.984-22.016 147.456-50.688 16.384-11.264 44.032-34.304 70.144-69.632-59.392-30.72-133.632-64.512-212.48-61.44-40.448 1.536-69.632 9.728-90.624 20.992z m752.64 135.68C1009.152 650.752 1024 583.168 1024 512 1024 229.888 794.112 0 512 0S0 229.888 0 512s229.888 512 512 512c170.496 0 321.536-83.968 414.72-211.968-88.064-43.52-232.96-115.712-322.56-159.232-42.496 48.64-105.472 97.28-176.64 118.272-44.544 13.312-84.992 18.432-126.976 9.728-41.984-8.704-72.704-28.16-90.624-47.616-9.216-10.24-19.456-22.528-27.136-37.888 0.512 1.024 1.024 2.048 1.024 3.072 0 0-4.608-7.68-7.68-19.456-1.536-6.144-3.072-11.776-3.584-17.92-0.512-4.096-0.512-8.704 0-12.8-0.512-7.68 0-15.872 1.536-24.064 4.096-20.48 12.8-44.032 35.328-65.536 49.152-48.128 114.688-50.688 148.992-50.176 50.176 0.512 138.24 22.528 211.968 48.64 20.48-43.52 33.792-90.112 41.984-121.344h-307.2v-33.28h157.696v-66.56H272.384V302.08h190.464v-66.56c0-9.216 2.048-16.384 16.384-16.384h74.752v82.944h207.36v33.28h-207.36v66.56h165.888s-16.896 92.672-68.608 184.32c115.2 40.96 278.016 104.448 331.776 125.952z" p-id="4284"></path></svg>