<?xml version="1.0" standalone="no"?><!DOCTYPE svg PUBLIC "-//W3C//DTD SVG 1.1//EN" "http://www.w3.org/Graphics/SVG/1.1/DTD/svg11.dtd"><svg t="1611824373324" class="icon" viewBox="0 0 1024 1024" version="1.1" xmlns="http://www.w3.org/2000/svg" p-id="5035" xmlns:xlink="http://www.w3.org/1999/xlink" width="32" height="32"><defs><style type="text/css"></style></defs><path d="M509.4144 0C228.0704 0 0 228.0704 0 509.4144s228.0704 509.4144 509.4144 509.4144 509.4144-228.0704 509.4144-509.4144S790.7584 0 509.4144 0z m235.392 441.1904c-1.024 4.4288-3.6864 11.008-7.3472 18.8416h0.1024l-0.4096 0.768c-21.376 45.7216-77.2096 135.424-77.2096 135.424l-0.256-0.6144-16.3072 28.416h78.592l-150.144 199.5008 34.1248-135.7312h-61.8752l21.504-89.7536c-17.3824 4.1728-37.9648 9.9328-62.2848 17.7664 0 0-32.9216 19.2512-94.848-37.0432 0 0-41.7536-36.8128-17.5104-45.9776 10.2912-3.9168 49.9456-8.9088 81.1776-13.0816 42.2656-5.7088 68.1984-8.7552 68.1984-8.7552s-130.1248 1.92-160.9984-2.9184c-30.8736-4.8384-70.016-56.3456-78.3872-101.632 0 0-12.8768-24.832 27.776-13.056 40.6272 11.776 208.8448 45.824 208.8448 45.824s-218.7264-67.072-233.344-83.456c-14.592-16.2816-42.8288-89.2928-39.168-134.0928 0 0 1.5872-11.2128 13.0816-8.1408 0 0 161.7664 73.8048 272.3328 114.2784 110.592 40.4736 206.7712 61.056 194.3552 113.4336z" p-id="5036"></path></svg>