<?xml version="1.0" standalone="no"?><!DOCTYPE svg PUBLIC "-//W3C//DTD SVG 1.1//EN" "http://www.w3.org/Graphics/SVG/1.1/DTD/svg11.dtd"><svg t="1617267515275" class="icon" viewBox="0 0 1024 1024" version="1.1" xmlns="http://www.w3.org/2000/svg" p-id="9519" xmlns:xlink="http://www.w3.org/1999/xlink" width="16" height="16"><defs><style type="text/css"></style></defs><path d="M966.057143 505.485714L820.228571 390.4a8.262857 8.262857 0 0 0-13.371428 6.514286V470.857143H553.142857V217.142857h74.057143c6.857143 0 10.742857-8 6.514286-13.371428L518.514286 57.942857a8.16 8.16 0 0 0-12.914286 0L390.4 203.771429a8.262857 8.262857 0 0 0 6.514286 13.371428H470.857143v253.714286H217.142857v-74.057143c0-6.857143-8-10.742857-13.371428-6.514286L57.942857 505.485714a8.16 8.16 0 0 0 0 12.914286l145.714286 115.2c5.371429 4.228571 13.371429 0.457143 13.371428-6.514286V553.142857h253.714286v253.714286h-74.057143c-6.857143 0-10.742857 8-6.514285 13.371428l115.2 145.714286c3.314286 4.228571 9.714286 4.228571 12.914285 0l115.2-145.714286c4.228571-5.371429 0.457143-13.371429-6.514285-13.371428H553.142857V553.142857h253.714286v74.057143c0 6.857143 8 10.742857 13.371428 6.514286l145.714286-115.2a8.342857 8.342857 0 0 0 0.114286-13.028572z" p-id="9520"></path></svg>