<?xml version="1.0" standalone="no"?><!DOCTYPE svg PUBLIC "-//W3C//DTD SVG 1.1//EN" "http://www.w3.org/Graphics/SVG/1.1/DTD/svg11.dtd"><svg t="1617005103399" class="icon" viewBox="0 0 1024 1024" version="1.1" xmlns="http://www.w3.org/2000/svg" p-id="1707" xmlns:xlink="http://www.w3.org/1999/xlink" width="16" height="16"><defs><style type="text/css"></style></defs><path d="M634.311111 0c-34.133333 0-59.733333 25.6-59.733333 59.733333s28.444444 59.733333 59.733333 59.733334c34.133333 0 59.733333-25.6 59.733333-59.733334 2.844444-34.133333-25.6-59.733333-59.733333-59.733333z m0 301.511111c-34.133333 0-59.733333 25.6-59.733333 59.733333s28.444444 59.733333 59.733333 59.733334c34.133333 0 59.733333-25.6 59.733333-59.733334 2.844444-34.133333-25.6-59.733333-59.733333-59.733333z m0 301.511111c-34.133333 0-59.733333 25.6-59.733333 59.733334s28.444444 59.733333 59.733333 59.733333c34.133333 0 59.733333-25.6 59.733333-59.733333 2.844444-34.133333-25.6-59.733333-59.733333-59.733334-31.288889 0 0 0 0 0z m0 301.511111c-34.133333 0-59.733333 25.6-59.733333 59.733334 0 34.133333 28.444444 59.733333 59.733333 59.733333 34.133333 0 59.733333-25.6 59.733333-59.733333 2.844444-34.133333-25.6-59.733333-59.733333-59.733334-31.288889 0 0 0 0 0zM372.622222 0C341.333333 0 312.888889 25.6 312.888889 59.733333s28.444444 59.733333 59.733333 59.733334c34.133333 0 59.733333-25.6 59.733334-59.733334 2.844444-34.133333-25.6-59.733333-59.733334-59.733333z m0 301.511111c-34.133333 0-59.733333 25.6-59.733333 59.733333s28.444444 59.733333 59.733333 59.733334c34.133333 0 59.733333-25.6 59.733334-59.733334 2.844444-34.133333-25.6-59.733333-59.733334-59.733333z m0 301.511111c-34.133333 0-59.733333 25.6-59.733333 59.733334s28.444444 59.733333 59.733333 59.733333c34.133333 0 59.733333-25.6 59.733334-59.733333 2.844444-34.133333-25.6-59.733333-59.733334-59.733334z m0 301.511111c-34.133333 0-59.733333 25.6-59.733333 59.733334 0 34.133333 28.444444 59.733333 59.733333 59.733333 34.133333 0 59.733333-25.6 59.733334-59.733333 2.844444-34.133333-25.6-59.733333-59.733334-59.733334z" p-id="1708"></path></svg>