<?xml version="1.0" standalone="no"?><!DOCTYPE svg PUBLIC "-//W3C//DTD SVG 1.1//EN" "http://www.w3.org/Graphics/SVG/1.1/DTD/svg11.dtd"><svg t="1611900658489" class="icon" viewBox="0 0 1024 1024" version="1.1" xmlns="http://www.w3.org/2000/svg" p-id="8196" xmlns:xlink="http://www.w3.org/1999/xlink" width="32" height="32"><defs><style type="text/css"></style></defs><path d="M312.401987 313.238588V157.455059H156.618458l155.783529 155.783529z m632.863791 233.674458h77.894274v243.40915h-77.894274v-77.892601h-77.889255v-87.625621H789.483922v-77.892601h77.892601v77.892601h77.889255v-77.890928zM546.074771 1.673203v467.347241h477.085281V1.673203H546.074771z m399.191007 389.457987H623.967373V79.564131h321.298405v311.567059zM468.183843 1.673203H0.836601m866.541595 155.781856h-155.783529v155.783529h155.783529V157.455059z" fill="" p-id="8197"></path><path d="M0.836601 1.673203h467.347242v467.347241L389.856209 391.529412V78.640523l-312.801882 0.923608zM546.074771 3.346405h477.085281v467.347242L945.359477 393.202614V80.313725l-321.392104 0.923608zM546.074771 546.914719h165.523242v77.892601h-87.628967zM865.704993 714.457516L865.045752 624.80732h-75.407896l-0.152261-77.894274h77.892601v76.217725L943.686275 623.267974l1.579503-76.354928h77.894274v243.40915h-77.894274v-77.892601h-76.214379L868.392157 868.392157l78.551843 1.495843L945.359477 945.359477l77.803922 0.747922V1024L711.598013 712.432941" fill="" p-id="8198"></path></svg>