<?xml version="1.0" standalone="no"?><!DOCTYPE svg PUBLIC "-//W3C//DTD SVG 1.1//EN" "http://www.w3.org/Graphics/SVG/1.1/DTD/svg11.dtd"><svg t="1611824385298" class="icon" viewBox="0 0 1024 1024" version="1.1" xmlns="http://www.w3.org/2000/svg" p-id="5805" xmlns:xlink="http://www.w3.org/1999/xlink" width="32" height="32"><defs><style type="text/css"></style></defs><path d="M468.925 568.648c-10.193 0-18.457 8.396-18.457 18.75 0 10.352 8.264 18.749 18.457 18.749 10.205 0 18.468-8.392 18.468-18.75 0-10.347-8.269-18.75-18.468-18.75z" fill="#D81E06" p-id="5806"></path><path d="M451.963 476.088c-100.967 14.193-175.227 79.729-165.857 146.386 9.364 66.658 98.816 109.184 199.777 94.997 100.982-14.193 175.242-79.734 165.862-146.386-9.364-66.663-98.8-109.194-199.782-94.997z m15.278 223.227c-60.047 11.669-116.741-20.07-126.623-70.896-9.876-50.832 30.792-101.494 90.85-113.163 60.057-11.673 116.75 20.066 126.627 70.887 9.887 50.826-30.802 101.493-90.854 113.172z" p-id="5807"></path><path d="M512 51.2C257.505 51.2 51.2 257.505 51.2 512S257.505 972.8 512 972.8 972.8 766.495 972.8 512 766.495 51.2 512 51.2z m-33.838 723.707c-158.04 0-286.162-83.953-286.162-187.51s191.882-267.064 265.277-267.064c30.787 0 91.177 23.3 48.922 97.131-2.95 5.166 95.309-42.92 149.028-11.294 53.714 31.626 0 82.452 0 88.1S763.1 499.916 763.1 587.401c0 103.552-126.899 187.505-284.938 187.505zM703.037 391.49c-17.797-21.458-54.39-16.482-54.39-16.482-7.643 0.226-13.567-5.33-13.567-12.733v-5.233c0-7.373 5.934-14.305 13.245-15.421 0 0 43.592-11.126 76.954 19.374 33.357 30.5 19.061 86.134 19.061 86.134-1.192 7.46-8.376 13.255-15.78 13.255h-12.129c-7.306 0-11.668-5.698-9.533-12.723 0.005-0.005 13.937-34.708-3.86-56.171z m125.911 72.698c-1.198 11.06-11.51 19.917-22.66 19.917h-8.556c-11.218 0-18.816-8.888-17.137-19.845 0 0 15.857-67.123-20.843-120.617s-122.85-44.35-122.85-44.35c-11.36 0.2-20.275-8.278-20.275-19.384v-9.922c0-11.136 8.955-20.275 19.994-20.5 0 0 89.774-8.208 150.932 50.518 61.154 58.732 41.395 164.183 41.395 164.183z" p-id="5808"></path><path d="M402.765 597.94c-18.478 8.616-28.14 27.012-21.576 41.097 6.564 14.08 26.87 18.499 45.358 9.887 18.489-8.617 28.14-27.013 21.581-41.098-6.569-14.075-26.875-18.504-45.363-9.887z" p-id="5809"></path></svg>