<?xml version="1.0" standalone="no"?><!DOCTYPE svg PUBLIC "-//W3C//DTD SVG 1.1//EN" "http://www.w3.org/Graphics/SVG/1.1/DTD/svg11.dtd"><svg t="1611819980450" class="icon" viewBox="0 0 1024 1024" version="1.1" xmlns="http://www.w3.org/2000/svg" p-id="3540" xmlns:xlink="http://www.w3.org/1999/xlink" width="32" height="32"><defs><style type="text/css"></style></defs><path d="M511.83616 0.1024C229.4272 0.1024 0.512 229.2736 0.512 511.9488c0 282.69568 228.90496 511.8464 511.31392 511.8464 282.37824 0 511.31392-229.15072 511.31392-511.8464C1023.15008 229.26336 794.2144 0.1024 511.83616 0.1024z m-92.7232 632.4224c-27.57632 0-49.7664-5.65248-77.37344-11.0592l-77.27104 38.71744 22.09792-66.52928c-55.32672-38.72768-88.4224-88.6272-88.4224-149.36064 0-105.28768 99.49184-188.13952 220.96896-188.13952 108.65664 0 203.8272 66.22208 222.95552 155.3408a191.0272 191.0272 0 0 0-21.31968-1.3312c-104.92928 0-187.8016 78.4384-187.8528 175.08352 0 16.128 2.53952 31.63136 6.84032 46.40768-6.79936 0.54272-13.68064 0.86016-20.62336 0.86016z m325.888 77.5168l16.61952 55.296-60.57984-33.30048c-22.1184 5.5296-44.29824 11.0592-66.32448 11.0592-105.13408 0-187.92448-71.8336-187.92448-160.50176 0-88.40192 82.7392-160.512 187.92448-160.512 99.30752 0 187.72992 72.05888 187.72992 160.512 0.02048 49.92-33.05472 94.08512-77.44512 127.44704z" p-id="3541"></path><path d="M501.94432 405.51424c16.70144 0 27.65824-11.07968 27.65824-27.648 0-16.62976-10.9568-27.61728-27.65824-27.61728-16.54784 0-33.11616 10.94656-33.11616 27.62752 0 16.5376 16.62976 27.648 33.11616 27.648z m-154.624-55.26528c-16.5888 0-33.29024 10.96704-33.29024 27.62752 0 16.55808 16.70144 27.648 33.30048 27.648 16.56832 0 27.56608-11.08992 27.56608-27.648 0-16.6912-10.99776-27.62752-27.56608-27.62752z m226.47808 160.4608c-10.93632 0-22.09792 11.07968-22.09792 22.09792 0 11.1616 11.14112 22.13888 22.09792 22.13888 16.77312 0 27.65824-10.94656 27.65824-22.13888-0.02048-11.01824-10.88512-22.09792-27.65824-22.09792z m121.55904 0c-10.93632 0-21.98528 11.07968-21.98528 22.09792 0 11.1616 11.10016 22.13888 21.98528 22.13888 16.61952 0 27.648-10.94656 27.648-22.13888 0-11.01824-11.02848-22.09792-27.648-22.09792z" p-id="3542"></path></svg>