<?xml version="1.0" encoding="utf-8"?>
<!-- Generator: Adobe Illustrator 16.0.0, SVG Export Plug-In . SVG Version: 6.00 Build 0)  -->
<!DOCTYPE svg PUBLIC "-//W3C//DTD SVG 1.0//EN" "http://www.w3.org/TR/2001/REC-SVG-20010904/DTD/svg10.dtd">
<svg version="1.0" id="图层_1" xmlns="http://www.w3.org/2000/svg" xmlns:xlink="http://www.w3.org/1999/xlink" x="0px" y="0px"
	 viewBox="0 0 200 200" enable-background="new 0 0 200 200" xml:space="preserve">
<g>
	<g>
		<defs>
			<rect id="SVGID_1_" x="10.742" width="178.355" height="198.8"/>
		</defs>
		<clipPath id="SVGID_2_">
			<use xlink:href="#SVGID_1_"  overflow="visible"/>
		</clipPath>
		<path clip-path="url(#SVGID_2_)" fill="#E2E5E7" d="M48.877-0.024c-7.123,0-12.72,5.596-12.72,12.478v173.548
			c0,6.879,5.598,12.479,12.72,12.479h127.225c7.121,0,12.719-5.6,12.719-12.479V50.855l-50.879-50.88L48.877-0.024L48.877-0.024z"
			/>
	</g>
	<g>
		<defs>
			<rect id="SVGID_3_" x="10.742" width="178.355" height="198.8"/>
		</defs>
		<clipPath id="SVGID_4_">
			<use xlink:href="#SVGID_3_"  overflow="visible"/>
		</clipPath>
	</g>
	<g>
		<defs>
			<rect id="SVGID_5_" x="10.742" width="178.355" height="198.8"/>
		</defs>
		<clipPath id="SVGID_6_">
			<use xlink:href="#SVGID_5_"  overflow="visible"/>
		</clipPath>
		<path clip-path="url(#SVGID_6_)" fill="#B0B7BD" d="M150.66,50.855h38.16l-50.881-50.88v38.16
			C137.939,45.258,143.537,50.855,150.66,50.855L150.66,50.855z"/>
	</g>
</g>
<path fill="#75AF44" d="M92.778,111.766c0,3.562-2.786,6.37-6.105,6.37H16.848c-3.319,0-6.106-2.81-6.106-6.37V48.141
	c0-3.562,2.81-6.372,6.106-6.372h69.825c3.319,0,6.105,2.81,6.105,6.372V111.766z"/>
<path fill="#CAD1D8" d="M59.828,128.991h101.759v8.722H59.828V128.991z M59.828,146.072h101.759v8.722H59.828V146.072z
	 M59.828,163.152h40.049v8.723H59.828V163.152z"/>
<g>
	<path fill="#FFFFFF" d="M41.723,85.121v7.148c0,0.703,0.088,1.192,0.264,1.465c0.176,0.274,0.419,0.469,0.732,0.586
		c0.312,0.117,0.8,0.176,1.465,0.176h21.445c0.703,0,1.436,0.255,2.197,0.762c0.762,0.509,1.22,1.348,1.377,2.52
		c0.155,1.172-0.205,2.062-1.084,2.666c-0.879,0.606-1.71,0.91-2.49,0.91H41.547c-0.86,0-1.866-0.117-3.018-0.353
		c-1.153-0.233-2.08-0.741-2.783-1.523c-0.703-0.78-1.124-1.571-1.26-2.373c-0.137-0.8-0.205-1.923-0.205-3.369v-23.85
		c0-1.21,0.097-2.265,0.293-3.164c0.195-0.897,0.615-1.641,1.26-2.227s1.455-1.034,2.432-1.348c0.976-0.312,2.031-0.469,3.164-0.469
		h23.555c0.78,0,1.542,0.293,2.285,0.879c0.741,0.586,1.122,1.485,1.143,2.695c0.019,1.212-0.401,2.051-1.26,2.52
		c-0.86,0.469-1.582,0.703-2.168,0.703H44.184c-0.938,0-1.534,0.108-1.787,0.322c-0.254,0.216-0.43,0.439-0.527,0.674
		c-0.098,0.234-0.146,0.703-0.146,1.406v6.445h14.238c0.742,0,1.523,0.245,2.344,0.732c0.82,0.489,1.239,1.339,1.26,2.549
		c0.019,1.212-0.381,2.101-1.201,2.666c-0.82,0.567-1.622,0.85-2.402,0.85h-14.24V85.121z"/>
</g>
</svg>
