<?xml version="1.0" encoding="utf-8"?>
<!-- Generator: Adobe Illustrator 16.0.0, SVG Export Plug-In . SVG Version: 6.00 Build 0)  -->
<!DOCTYPE svg PUBLIC "-//W3C//DTD SVG 1.1//EN" "http://www.w3.org/Graphics/SVG/1.1/DTD/svg11.dtd">
<svg version="1.1" id="图层_1" xmlns="http://www.w3.org/2000/svg" xmlns:xlink="http://www.w3.org/1999/xlink" x="0px" y="0px"
viewBox="0 0 200 200" enable-background="new 0 0 200 200" xml:space="preserve">
<g>
	<g>
		<g>
			<g>
				<g>
					<g>
						<defs>
							<rect id="SVGID_1_" x="17.682" width="164.636" height="199.93"/>
						</defs>
						<clipPath id="SVGID_2_">
							<use xlink:href="#SVGID_1_"  overflow="visible"/>
						</clipPath>
						<path clip-path="url(#SVGID_2_)" fill="#E4E4E4" d="M169.816,199.688H30.124c-6.984,0-12.473-5.485-12.473-12.474V12.599
							c0-6.985,5.488-12.473,12.473-12.473h112.252l39.913,39.912v147.175C182.289,194.198,176.801,199.688,169.816,199.688
							L169.816,199.688z"/>
					</g>
				</g>
			</g>
		</g>
		<g>
			<g>
				<g>
					<g>
						<defs>
							<rect id="SVGID_3_" x="17.682" width="164.636" height="199.93"/>
						</defs>
						<clipPath id="SVGID_4_">
							<use xlink:href="#SVGID_3_"  overflow="visible"/>
						</clipPath>
						<path clip-path="url(#SVGID_4_)" fill="#B6B6B6" d="M182.289,40.039h-36.42c-1.995,0-3.493-1.497-3.493-3.492V0.126"/>
					</g>
				</g>
			</g>
		</g>
	</g>
</g>
<path fill="#CAD1D8" d="M36.589,65.813h127.759v10.951H36.589V65.813z M36.589,87.259h127.759v10.949H36.589V87.259z
	 M36.589,108.703h50.283v10.951H36.589V108.703z"/>
</svg>
