<?xml version="1.0" encoding="utf-8"?>
<!-- Generator: Adobe Illustrator 16.0.0, SVG Export Plug-In . SVG Version: 6.00 Build 0)  -->
<!DOCTYPE svg PUBLIC "-//W3C//DTD SVG 1.0//EN" "http://www.w3.org/TR/2001/REC-SVG-20010904/DTD/svg10.dtd">
<svg version="1.0" id="图层_1" xmlns="http://www.w3.org/2000/svg" xmlns:xlink="http://www.w3.org/1999/xlink" x="0px" y="0px"
	 viewBox="0 0 200 200" enable-background="new 0 0 200 200" xml:space="preserve">
<path fill="#E2E5E7" d="M48.718,0c-7.179,0-12.82,5.641-12.82,12.564v174.872c0,6.924,5.641,12.564,12.82,12.564h128.205
	c7.181,0,12.821-5.641,12.821-12.564V51.282L138.461,0H48.718z"/>
<path fill="#B0B7BD" d="M151.282,51.282h38.462L138.461,0v38.461C138.461,45.641,144.104,51.282,151.282,51.282L151.282,51.282z"/>
<path fill="#F15642" d="M159.514,163.643c0,3.59-2.82,6.409-6.154,6.409H16.948c-3.333,0-6.154-2.819-6.154-6.409V99.539
	c0-3.59,2.821-6.41,6.154-6.41h136.409c3.334,0,6.154,2.821,6.154,6.41v64.104H159.514z"/>
<g>
	<path fill="#FFFFFF" d="M39.609,145.277v-27c0-2.372,1.187-3.623,3.563-3.75h8.625c7.623,0.502,11.687,4.313,12.188,11.438
		c-0.501,7.125-4.5,10.939-12,11.438h-5.25v7.875c-0.126,2.25-1.313,3.375-3.563,3.375
		C40.796,148.652,39.609,147.527,39.609,145.277z M46.734,120.902v10.125h4.875c3-0.122,4.623-1.811,4.875-5.063
		c-0.252-3.123-1.875-4.811-4.875-5.063H46.734L46.734,120.902z"/>
	<path fill="#FFFFFF" d="M71.034,145.091v-27c0.123-2.124,1.313-3.311,3.563-3.563h8.063c10.749,0.502,16.374,6.313,16.875,17.438
		c-0.627,10.626-6.126,16.189-16.5,16.688h-8.25C72.282,148.53,71.034,147.341,71.034,145.091z M78.159,121.091v21h4.875
		c5.625-0.123,8.625-3.563,9-10.313c-0.126-6.998-3.313-10.562-9.563-10.688L78.159,121.091L78.159,121.091z"/>
	<path fill="#FFFFFF" d="M107.709,145.277v-27c0.123-2.25,1.313-3.497,3.563-3.75h12.375c1.875,0.127,2.937,1.189,3.188,3.188
		c-0.125,2.25-1.188,3.375-3.188,3.375h-8.813v6.938h7.5c1.998,0.126,3.123,1.251,3.375,3.375c-0.252,2.25-1.377,3.375-3.375,3.375
		h-7.5v10.5c-0.125,2.25-1.313,3.375-3.563,3.375C108.896,148.652,107.709,147.527,107.709,145.277z"/>
</g>
</svg>
