<?xml version="1.0" encoding="utf-8"?>
<!-- Generator: Adobe Illustrator 16.0.0, SVG Export Plug-In . SVG Version: 6.00 Build 0)  -->
<!DOCTYPE svg PUBLIC "-//W3C//DTD SVG 1.1//EN" "http://www.w3.org/Graphics/SVG/1.1/DTD/svg11.dtd">
<svg version="1.1" id="图层_1" xmlns="http://www.w3.org/2000/svg" xmlns:xlink="http://www.w3.org/1999/xlink" x="0px" y="0px"
	 viewBox="0 0 200 200" enable-background="new 0 0 200 200" xml:space="preserve">
<path fill="#E2E5E7" d="M48.718,0c-7.179,0-12.82,5.641-12.82,12.564v174.872c0,6.924,5.641,12.564,12.82,12.564h128.205
	c7.18,0,12.821-5.641,12.821-12.564V51.282L138.461,0H48.718z"/>
<path fill="#B0B7BD" d="M151.282,51.282h38.462L138.461,0v38.461C138.461,45.641,144.103,51.282,151.282,51.282L151.282,51.282z"/>
<path fill="#7BC11F" d="M159.513,164.048c0,3.59-2.82,6.41-6.154,6.41H16.948c-3.333,0-6.154-2.82-6.154-6.41V99.945
	c0-3.59,2.821-6.41,6.154-6.41h136.41c3.334,0,6.154,2.821,6.154,6.41V164.048z"/>
<g>
	<path fill="#FFFFFF" d="M33.609,145.872v-27c0-2.373,1.187-3.624,3.563-3.75h8.625c7.623,0.501,11.687,4.313,12.188,11.438
		c-0.501,7.125-4.5,10.939-12,11.438h-5.25v7.875c-0.126,2.25-1.313,3.375-3.563,3.375
		C34.796,149.247,33.609,148.122,33.609,145.872z M40.734,121.497v10.125h4.875c3-0.123,4.623-1.811,4.875-5.063
		c-0.252-3.123-1.875-4.811-4.875-5.063H40.734z"/>
	<path fill="#FFFFFF" d="M64.659,145.872v-27.375c0-2.373,1.187-3.624,3.563-3.75c1.248,0.252,2.25,0.814,3,1.688l15.188,20.25
		h0.188v-18.188c0-2.373,1.187-3.624,3.563-3.75c2.25,0.126,3.437,1.377,3.563,3.75v27.375c-0.126,2.25-1.313,3.375-3.563,3.375
		c-1.251,0-2.25-0.437-3-1.313l-15.188-20.063h-0.188v18c-0.126,2.25-1.313,3.375-3.563,3.375
		C65.846,149.247,64.659,148.122,64.659,145.872z"/>
	<path fill="#FFFFFF" d="M121.021,128.997h8.063c2.875,0,4.313,1.564,4.313,4.688c-0.627,10.125-5.877,15.375-15.75,15.75
		c-10.377-0.498-15.875-6.249-16.5-17.25c0.75-10.875,6.25-16.749,16.5-17.625c7.75,0.501,12.188,2.751,13.313,6.75
		c-0.125,2.127-1.125,3.252-3,3.375c-1.002,0-2.127-0.437-3.375-1.313c-2.25-1.5-4.564-2.25-6.938-2.25
		c-5.75,0.375-8.75,4.063-9,11.063c0.25,7.125,3.25,10.813,9,11.063c5.25-0.249,7.998-2.813,8.25-7.688h-4.875
		c-2.25,0-3.375-1.125-3.375-3.375C117.77,130.31,118.895,129.249,121.021,128.997z"/>
</g>
</svg>
