<?xml version="1.0" encoding="utf-8"?>
<!-- Generator: Adobe Illustrator 16.0.0, SVG Export Plug-In . SVG Version: 6.00 Build 0)  -->
<!DOCTYPE svg PUBLIC "-//W3C//DTD SVG 1.0//EN" "http://www.w3.org/TR/2001/REC-SVG-20010904/DTD/svg10.dtd">
<svg version="1.0" id="图层_1" xmlns="http://www.w3.org/2000/svg" xmlns:xlink="http://www.w3.org/1999/xlink" x="0px" y="0px"
	  viewBox="0 0 200 200" enable-background="new 0 0 200 200" xml:space="preserve">
<g>
	<g>
		<defs>
			<rect id="SVGID_1_" x="10.742" width="178.355" height="198.8"/>
		</defs>
		<clipPath id="SVGID_2_">
			<use xlink:href="#SVGID_1_"  overflow="visible"/>
		</clipPath>
		<path clip-path="url(#SVGID_2_)" fill="#E2E5E7" d="M48.877-0.024c-7.123,0-12.72,5.596-12.72,12.478v173.548
			c0,6.879,5.598,12.479,12.72,12.479h127.225c7.121,0,12.719-5.6,12.719-12.479V50.855l-50.879-50.88L48.877-0.024L48.877-0.024z"
			/>
	</g>
	<g>
		<defs>
			<rect id="SVGID_3_" x="10.742" width="178.355" height="198.8"/>
		</defs>
		<clipPath id="SVGID_4_">
			<use xlink:href="#SVGID_3_"  overflow="visible"/>
		</clipPath>
	</g>
	<g>
		<defs>
			<rect id="SVGID_5_" x="10.742" width="178.355" height="198.8"/>
		</defs>
		<clipPath id="SVGID_6_">
			<use xlink:href="#SVGID_5_"  overflow="visible"/>
		</clipPath>
		<path clip-path="url(#SVGID_6_)" fill="#B0B7BD" d="M150.66,50.855h38.16l-50.881-50.88v38.16
			C137.939,45.258,143.537,50.855,150.66,50.855L150.66,50.855z"/>
	</g>
</g>
<path fill="#FF6A4D" d="M92.778,111.766c0,3.562-2.786,6.37-6.105,6.37H16.848c-3.319,0-6.106-2.81-6.106-6.37V48.141
	c0-3.562,2.81-6.372,6.106-6.372h69.825c3.319,0,6.105,2.81,6.105,6.372V111.766z"/>
<path fill="#CAD1D8" d="M59.828,128.991h101.759v8.722H59.828V128.991z M59.828,146.072h101.759v8.722H59.828V146.072z
	 M59.828,163.152h40.049v8.723H59.828V163.152z"/>
<g>
	<path fill="#FFFFFF" d="M42.16,85.985v12.363c0,0.547-0.245,1.241-0.732,2.08c-0.489,0.841-1.465,1.269-2.93,1.289
		c-1.465,0.021-2.5-0.371-3.105-1.171c-0.606-0.8-0.908-1.533-0.908-2.197V69.344c0-1.132,0.146-2.148,0.439-3.047
		c0.293-0.898,0.751-1.641,1.377-2.227c0.625-0.586,1.465-1.025,2.52-1.318c1.055-0.293,2.128-0.439,3.223-0.439h12.891
		c0.938,0,2.314,0.117,4.131,0.352s3.349,0.655,4.6,1.26c1.25,0.606,2.421,1.69,3.516,3.252c1.093,1.563,1.699,3.36,1.816,5.391
		c0.117,2.032-0.02,3.79-0.41,5.273c-0.625,2.305-1.602,4.043-2.93,5.215c-1.329,1.172-2.871,1.954-4.629,2.344
		c-1.758,0.391-3.79,0.586-6.094,0.586L42.16,85.985L42.16,85.985z M42.16,79.247h14.238c1.328,0,2.324-0.245,2.988-0.736
		c0.664-0.49,1.132-1.149,1.406-1.975c0.273-0.825,0.41-1.65,0.41-2.475c-0.04-1.178-0.313-2.17-0.82-2.976
		c-0.508-0.806-1.143-1.356-1.904-1.65c-0.762-0.295-1.494-0.461-2.197-0.501H44.855c-0.703,0-1.25,0.088-1.641,0.264
		c-0.391,0.176-0.665,0.381-0.82,0.615c-0.157,0.234-0.234,0.703-0.234,1.406V79.247z"/>
</g>
</svg>
