<?xml version="1.0" encoding="utf-8"?>
<!-- Generator: Adobe Illustrator 16.0.0, SVG Export Plug-In . SVG Version: 6.00 Build 0)  -->
<!DOCTYPE svg PUBLIC "-//W3C//DTD SVG 1.1//EN" "http://www.w3.org/Graphics/SVG/1.1/DTD/svg11.dtd">
<svg version="1.1" id="图层_1" xmlns="http://www.w3.org/2000/svg" xmlns:xlink="http://www.w3.org/1999/xlink" x="0px" y="0px"
	 viewBox="0 0 200 200" enable-background="new 0 0 200 200" xml:space="preserve">
<g>
	<g>
		<defs>
			<rect id="SVGID_1_" x="17.682" width="164.636" height="199.93"/>
		</defs>
		<clipPath id="SVGID_2_">
			<use xlink:href="#SVGID_1_"  overflow="visible"/>
		</clipPath>
		<path clip-path="url(#SVGID_2_)" fill="#E4E4E4" d="M169.816,199.688H30.124c-6.984,0-12.473-5.488-12.473-12.474V12.599
			c0-6.985,5.488-12.473,12.473-12.473h112.252l39.913,39.912v147.175C182.289,194.198,176.801,199.688,169.816,199.688
			L169.816,199.688z"/>
	</g>
	<g>
		<defs>
			<rect id="SVGID_3_" x="17.682" width="164.636" height="199.93"/>
		</defs>
		<clipPath id="SVGID_4_">
			<use xlink:href="#SVGID_3_"  overflow="visible"/>
		</clipPath>
		<path clip-path="url(#SVGID_4_)" fill="#A7A7A7" d="M182.289,40.039h-36.42c-1.995,0-3.493-1.497-3.493-3.492V0.126"/>
	</g>
</g>
<path fill="#CAD1D8" d="M38.038,68.822h126.629v8.481H38.038V68.822z M38.038,86.322h126.629v8.481H38.038V86.322z M38.038,51.434
	h126.629v8.482H38.038V51.434z M38.038,104.045h38.948v8.482H38.038V104.045z"/>
<path fill="#F3AC00" d="M174.36,186.947c0,2.948-2.82,5.264-6.154,5.264H31.794c-3.333,0-6.154-2.315-6.154-5.264v-52.635
	c0-2.947,2.821-5.263,6.154-5.263h136.41c3.334,0,6.154,2.316,6.154,5.263v52.635H174.36z"/>
<g>
	<path fill="#FFFFFF" d="M57.582,152.115v21.744c0,0.445-0.201,0.961-0.603,1.539c-0.402,0.582-1.078,0.896-2.032,0.939
		c-0.953,0.043-1.749-0.202-2.388-0.738c-0.64-0.533-0.96-1.114-0.96-1.74v-21.744h-7.679c-0.596,0-1.161-0.243-1.697-0.735
		c-0.536-0.491-0.803-1.184-0.803-2.078c0-0.92,0.275-1.613,0.826-2.075c0.551-0.46,1.108-0.691,1.674-0.691h21.387
		c0.714,0,1.332,0.254,1.853,0.761c0.521,0.505,0.789,1.138,0.804,1.896c0.014,0.757-0.239,1.437-0.758,2.03
		c-0.522,0.598-1.154,0.893-1.898,0.893H57.582z"/>
	<path fill="#FFFFFF" d="M75.619,164.084v5.444c0,0.538,0.067,0.91,0.2,1.118c0.135,0.208,0.32,0.357,0.559,0.445
		c0.237,0.09,0.609,0.135,1.116,0.135h16.342c0.537,0,1.094,0.193,1.674,0.58s0.93,1.026,1.05,1.921
		c0.118,0.891-0.157,1.57-0.828,2.028c-0.669,0.465-1.301,0.693-1.897,0.693H75.485c-0.654,0-1.422-0.089-2.299-0.268
		c-0.878-0.178-1.585-0.565-2.121-1.16c-0.536-0.596-0.855-1.199-0.96-1.809c-0.104-0.608-0.155-1.466-0.155-2.566v-18.174
		c0-0.921,0.075-1.725,0.224-2.409s0.468-1.25,0.96-1.696c0.491-0.446,1.107-0.791,1.853-1.026c0.743-0.239,1.547-0.357,2.411-0.357
		h17.947c0.596,0,1.176,0.222,1.742,0.67c0.564,0.445,0.857,1.131,0.87,2.053c0.017,0.923-0.305,1.563-0.959,1.92
		c-0.655,0.357-1.206,0.536-1.652,0.536H77.493c-0.714,0-1.168,0.082-1.362,0.245c-0.192,0.165-0.327,0.336-0.401,0.514
		c-0.075,0.179-0.112,0.536-0.112,1.072v4.912h10.85c0.565,0,1.161,0.186,1.786,0.558c0.625,0.371,0.944,1.019,0.96,1.941
		c0.016,0.923-0.289,1.601-0.915,2.031c-0.625,0.432-1.235,0.648-1.83,0.648H75.619L75.619,164.084z"/>
	<path fill="#FFFFFF" d="M111.471,165.287l-7.857,10.493c-0.15,0.178-0.351,0.365-0.603,0.558c-0.253,0.193-0.72,0.321-1.406,0.38
		c-0.683,0.059-1.295-0.201-1.829-0.781c-0.538-0.582-0.805-1.198-0.805-1.854s0.147-1.175,0.445-1.563L108.391,161l-7.098-10.045
		c-0.357-0.476-0.508-1.049-0.448-1.72c0.061-0.669,0.417-1.233,1.073-1.696c0.652-0.46,1.339-0.663,2.053-0.602
		c0.716,0.061,1.252,0.327,1.608,0.803l6.024,8.708l6.163-8.574c0.326-0.475,0.886-0.75,1.676-0.825
		c0.789-0.073,1.486,0.178,2.098,0.759c0.61,0.582,0.895,1.17,0.85,1.765c-0.046,0.596-0.247,1.162-0.603,1.696L114.776,161
		l7.903,11.074c0.388,0.566,0.61,1.123,0.669,1.671c0.06,0.553-0.091,1.082-0.445,1.587c-0.239,0.329-0.581,0.626-1.026,0.895
		c-0.447,0.268-1.021,0.371-1.72,0.313c-0.697-0.06-1.361-0.565-1.986-1.518L111.471,165.287z"/>
	<path fill="#FFFFFF" d="M141.607,152.115v21.744c0,0.445-0.201,0.961-0.6,1.539c-0.405,0.582-1.08,0.896-2.033,0.939
		c-0.953,0.043-1.749-0.202-2.388-0.738c-0.641-0.533-0.962-1.114-0.962-1.74v-21.744h-7.68c-0.595,0-1.16-0.243-1.695-0.735
		c-0.536-0.491-0.804-1.184-0.804-2.078c0-0.92,0.275-1.613,0.826-2.075c0.551-0.46,1.108-0.691,1.676-0.691h21.387
		c0.713,0,1.332,0.254,1.851,0.761c0.521,0.505,0.789,1.138,0.807,1.896c0.013,0.757-0.242,1.437-0.761,2.03
		c-0.522,0.598-1.153,0.893-1.896,0.893H141.607z"/>
</g>
</svg>
