<?xml version="1.0" encoding="utf-8"?>
<!-- Generator: Adobe Illustrator 16.0.0, SVG Export Plug-In . SVG Version: 6.00 Build 0)  -->
<!DOCTYPE svg PUBLIC "-//W3C//DTD SVG 1.0//EN" "http://www.w3.org/TR/2001/REC-SVG-20010904/DTD/svg10.dtd">
<svg version="1.0" id="图层_1" xmlns="http://www.w3.org/2000/svg" xmlns:xlink="http://www.w3.org/1999/xlink" x="0px" y="0px"
	 viewBox="0 0 200 200" enable-background="new 0 0 200 200" xml:space="preserve">
<g>
	<g>
		<defs>
			<rect id="SVGID_1_" x="10.742" width="178.355" height="198.8"/>
		</defs>
		<clipPath id="SVGID_2_">
			<use xlink:href="#SVGID_1_"  overflow="visible"/>
		</clipPath>
		<path clip-path="url(#SVGID_2_)" fill="#E2E5E7" d="M48.877-0.024c-7.123,0-12.72,5.596-12.72,12.478v173.548
			c0,6.879,5.598,12.479,12.72,12.479h127.225c7.121,0,12.719-5.6,12.719-12.479V50.855l-50.879-50.88L48.877-0.024L48.877-0.024z"
			/>
	</g>
	<g>
		<defs>
			<rect id="SVGID_3_" x="10.742" width="178.355" height="198.8"/>
		</defs>
		<clipPath id="SVGID_4_">
			<use xlink:href="#SVGID_3_"  overflow="visible"/>
		</clipPath>
	</g>
	<g>
		<defs>
			<rect id="SVGID_5_" x="10.742" width="178.355" height="198.8"/>
		</defs>
		<clipPath id="SVGID_6_">
			<use xlink:href="#SVGID_5_"  overflow="visible"/>
		</clipPath>
		<path clip-path="url(#SVGID_6_)" fill="#B0B7BD" d="M150.66,50.855h38.16l-50.881-50.88v38.16
			C137.939,45.258,143.537,50.855,150.66,50.855L150.66,50.855z"/>
	</g>
</g>
<path fill="#4786D1" d="M92.778,111.766c0,3.562-2.786,6.37-6.105,6.37H16.848c-3.319,0-6.106-2.81-6.106-6.37V48.141
	c0-3.562,2.81-6.372,6.106-6.372h69.825c3.319,0,6.105,2.81,6.105,6.372V111.766z"/>
<path fill="#CAD1D8" d="M59.828,128.991h101.759v8.722H59.828V128.991z M59.828,146.072h101.759v8.722H59.828V146.072z
	 M59.828,163.152h40.049v8.723H59.828V163.152z"/>
<g>
	<path fill="#FFFFFF" d="M49.541,76.918l-4.688,20.684c-0.079,0.352-0.234,0.782-0.469,1.289c-0.234,0.508-0.625,1.084-1.172,1.729
		c-0.547,0.646-1.582,0.946-3.105,0.907c-1.406,0-2.432-0.33-3.076-0.995c-0.645-0.664-1.075-1.22-1.289-1.67
		c-0.215-0.449-0.381-0.927-0.498-1.436l-9.316-29.473c-0.234-0.742-0.333-1.436-0.293-2.08c0.039-0.645,0.371-1.298,0.996-1.963
		c0.625-0.664,1.406-1.025,2.344-1.084c0.938-0.059,1.708,0.137,2.314,0.586c0.605,0.45,1.044,1.104,1.318,1.963l6.68,22.148
		c0.234,0.899,0.39,1.426,0.469,1.582c0.078,0.157,0.146,0.225,0.205,0.205c0.059-0.019,0.126-0.117,0.205-0.293
		c0.078-0.176,0.253-0.751,0.527-1.729l5.332-21.035c0.117-0.507,0.293-1.044,0.527-1.611c0.234-0.566,0.615-1.015,1.143-1.348
		c0.527-0.332,1.22-0.498,2.08-0.498c0.742,0.04,1.357,0.215,1.846,0.527c0.488,0.313,0.85,0.752,1.084,1.318
		c0.234,0.567,0.449,1.163,0.645,1.787l5.859,22.383l0.234,1.172c0.117,0.313,0.234,0.45,0.352,0.41
		c0.039,0,0.097-0.195,0.176-0.586l0.293-0.996l5.332-23.555c0.156-0.82,0.488-1.494,0.996-2.021
		c0.507-0.527,1.367-0.771,2.578-0.732c1.093,0.04,1.934,0.372,2.52,0.996c0.586,0.625,0.888,1.23,0.908,1.816
		c0.019,0.586-0.069,1.25-0.264,1.992l-7.734,30c-0.157,0.586-0.322,1.084-0.498,1.494c-0.176,0.41-0.596,0.918-1.26,1.523
		c-0.665,0.605-1.631,0.958-2.9,1.055c-1.27,0.098-2.334-0.205-3.193-0.908c-0.86-0.703-1.465-1.796-1.816-3.281L49.541,76.918z"/>
</g>
</svg>
