<?xml version="1.0" encoding="utf-8"?>
<!-- Generator: Adobe Illustrator 16.0.0, SVG Export Plug-In . SVG Version: 6.00 Build 0)  -->
<!DOCTYPE svg PUBLIC "-//W3C//DTD SVG 1.0//EN" "http://www.w3.org/TR/2001/REC-SVG-20010904/DTD/svg10.dtd">
<svg version="1.0" id="图层_1" xmlns="http://www.w3.org/2000/svg" xmlns:xlink="http://www.w3.org/1999/xlink" x="0px" y="0px"
	viewBox="0 0 200 200" enable-background="new 0 0 200 200" xml:space="preserve">
<g>
	<g>
		<defs>
			<rect id="SVGID_1_" x="17.682" width="164.637" height="199.93"/>
		</defs>
		<clipPath id="SVGID_2_">
			<use xlink:href="#SVGID_1_"  overflow="visible"/>
		</clipPath>
		<path clip-path="url(#SVGID_2_)" fill="#E4E4E4" d="M169.816,199.687H30.124c-6.984,0-12.473-5.488-12.473-12.473V12.599
			c0-6.985,5.488-12.473,12.473-12.473h112.252l39.913,39.912v147.175C182.289,194.198,176.801,199.687,169.816,199.687
			L169.816,199.687z M169.816,199.687"/>
		<path clip-path="url(#SVGID_2_)" fill="#B6B6B6" d="M182.289,40.039h-36.42c-1.995,0-3.493-1.497-3.493-3.492V0.126"/>
		<path clip-path="url(#SVGID_2_)" fill="#EFAF66" d="M169.816,199.687H30.124c-6.984,0-12.473-5.488-12.473-12.473v-62.362h164.638
			v62.362C182.289,194.198,176.801,199.687,169.816,199.687L169.816,199.687z M169.816,199.687"/>
	</g>
	<path fill="#FFFFFF" d="M60.558,172.247l19.207-22.949H63.302c-1.248,0-1.996-0.25-2.744-0.747c-0.5-0.501-0.999-1.248-0.999-1.996
		c0-0.749,0.25-1.496,0.999-1.997c0.498-0.497,1.496-0.748,2.744-0.748h21.452c2.743,0,4.239,1.249,4.239,3.743
		c0,1.246-0.248,2.244-0.747,2.993c-0.499,0.748-1.497,1.994-2.745,3.492l-17.959,21.451h19.955c1.248,0,1.995,0.25,2.745,0.749
		c0.498,0.499,0.748,1.246,0.748,1.996c0,0.997-0.25,1.746-0.748,2.245c-0.499,0.497-1.497,0.748-2.745,0.748H62.552
		c-1.745,0-2.993-0.251-3.74-0.998c-0.749-0.747-1.248-1.745-1.248-2.993c0-0.499,0-0.748,0.25-1.246
		c0.249-0.501,0.249-0.75,0.498-0.998c0.251-0.251,0.5-0.749,0.999-1.248C59.809,172.996,60.058,172.497,60.558,172.247
		L60.558,172.247z M95.729,176.987v-29.435c0-1.498,0.25-2.745,0.998-3.492c0.748-0.749,1.497-1.248,2.744-1.248
		s1.995,0.499,2.743,1.248c0.749,0.747,0.998,1.994,0.998,3.492v29.435c0,1.497-0.249,2.743-0.998,3.492
		c-0.748,0.748-1.746,1.247-2.743,1.247c-0.998,0-1.996-0.499-2.744-1.247C95.979,179.73,95.729,178.484,95.729,176.987
		L95.729,176.987z M126.163,166.261h-6.984v10.727c0,1.497-0.25,2.743-0.999,3.492c-0.747,0.748-1.496,1.247-2.744,1.247
		c-1.247,0-1.995-0.499-2.743-1.247c-0.749-0.749-0.998-1.995-0.998-3.492V148.05c0-1.745,0.5-2.743,1.247-3.492
		c0.748-0.748,1.996-0.998,3.742-0.998h9.729c2.993,0,4.988,0.25,6.734,0.749c1.497,0.499,2.743,1.247,3.99,2.246
		c0.999,0.998,1.996,2.244,2.495,3.741c0.499,1.496,0.749,2.993,0.749,4.738c0,3.743-1.248,6.736-3.492,8.731
		C134.395,165.511,130.901,166.261,126.163,166.261L126.163,166.261z M124.417,149.298h-5.238v11.475h5.238
		c1.746,0,3.243-0.248,4.489-0.499c1.247-0.499,1.995-0.998,2.745-1.747c0.747-0.747,0.997-1.995,0.997-3.241
		c0-1.746-0.499-2.994-1.496-3.991C130.153,149.797,127.909,149.298,124.417,149.298L124.417,149.298z M124.417,149.298"/>
	<path fill="#D0D0D0" d="M50.33,0.126h14.967v14.967H50.33V0.126z M65.297,15.094h14.967V30.06H65.297V15.094z M50.33,30.06h14.967
		v14.968H50.33V30.06z M65.297,45.028h14.967v14.968H65.297V45.028z M50.33,59.996h14.967v14.966H50.33V59.996z M65.297,74.961
		h14.967v14.968H65.297V74.961z M76.771,116.869H53.822c-1.995,0-3.492-1.496-3.492-3.492V89.929h29.934v23.698
		C80.264,115.373,78.768,116.869,76.771,116.869L76.771,116.869z M76.771,116.869"/>
	<path fill="#FFFFFF" d="M74.277,112.879H56.066c-1.497,0-2.493-0.998-2.493-2.495c0-1.496,0.996-2.494,2.493-2.494h18.211
		c1.496,0,2.494,0.998,2.494,2.494C76.771,111.881,75.773,112.879,74.277,112.879L74.277,112.879z M74.277,112.879"/>
</g>
</svg>
