<svg version="1.1"
    xmlns="http://www.w3.org/2000/svg"
    xmlns:xlink="http://www.w3.org/1999/xlink" x="0px" y="0px" width="743px"
	 height="560px" viewBox="0 0 743 560" enable-background="new 0 0 743 560" xml:space="preserve">
    <g>
        <g display="inline">
            <g>
                <g>
                    <g>
                        <g>
                            <rect y="490.125" fill="#D1E3FF" width="742.052" height="0.37"/>
                            <rect x="613.676" y="510.947" fill="#D1E3FF" width="15.749" height="0.371"/>
                            <rect x="538.751" y="511.133" fill="#D1E3FF" width="64.041" height="0.371"/>
                            <rect x="351.509" y="507.59" fill="#D1E3FF" width="108.068" height="0.371"/>
                            <rect x="255.051" y="514.041" fill="#D1E3FF" width="34.294" height="0.371"/>
                            <rect x="127.821" y="507.775" fill="#D1E3FF" width="47.225" height="0.371"/>
                            <rect x="183.287" y="507.775" fill="#D1E3FF" width="44.139" height="0.371"/>
                            <rect x="96.903" y="501.283" fill="#D1E3FF" width="45.075" height="0.37"/>
                            <path fill="#D1E3FF" d="M351.752,423.936H65.174c-4.671,0-8.471-3.8-8.471-8.471V12.632c0-4.67,3.8-8.47,8.471-8.47h286.578
							c4.67,0,8.47,3.8,8.47,8.47v402.833C360.223,420.136,356.422,423.936,351.752,423.936z M65.174,4.533
							c-4.467,0-8.1,3.633-8.1,8.099v402.833c0,4.466,3.633,8.101,8.1,8.101h286.578c4.466,0,8.099-3.635,8.099-8.101V12.632
							c0-4.466-3.633-8.099-8.099-8.099H65.174z"/>
                            <path fill="#D1E3FF" d="M672.76,423.936H386.182c-4.67,0-8.47-3.8-8.47-8.471V12.632c0-4.67,3.8-8.47,8.47-8.47H672.76
							c4.671,0,8.471,3.8,8.471,8.47v402.833C681.23,420.136,677.431,423.936,672.76,423.936z M386.182,4.533
							c-4.466,0-8.099,3.633-8.099,8.099v402.833c0,4.466,3.633,8.101,8.099,8.101H672.76c4.466,0,8.101-3.635,8.101-8.101V12.632
							c0-4.466-3.635-8.099-8.101-8.099H386.182z"/>
                        </g>
                    </g>
                </g>
                <g>
                    <g>
                        <rect x="80.28" y="36.089" fill="#D1E3FF" width="231.15" height="201.146"/>
                        <rect x="84.7" y="36.089" fill="#E3EEFF" width="236.188" height="201.146"/>
                        <rect x="80.28" y="237.236" fill="#D1E3FF" width="231.15" height="8.071"/>
                        <rect x="100.457" y="237.236" fill="#E3EEFF" width="236.188" height="8.071"/>
                        <rect x="97.94" y="49.331" fill="#F5FCFF" width="209.707" height="174.665"/>
                        <polygon fill="#FFFFFF" points="131.908,223.995 172.367,49.331 227.887,49.331 187.429,223.995 					"/>
                        <path fill="#E2EEFF" d="M105.582,194.807c-0.523,0-0.947-0.423-0.947-0.946V57.946c0-0.522,0.424-0.946,0.947-0.946
						c0.523,0,0.946,0.423,0.946,0.946v135.915C106.528,194.384,106.105,194.807,105.582,194.807z"/>
                        <polygon fill="#FFFFFF" points="198.806,223.995 239.262,49.331 258.472,49.331 218.014,223.995 					"/>
                        <rect x="305.966" y="49.331" fill="#D1E3FF" width="1.681" height="174.665"/>
                        <polygon fill="#D1E3FF" points="324.02,50.772 92.87,50.772 91.651,46.752 322.801,46.752 					"/>
                        <polygon fill="#D1E3FF" points="324.02,57.406 92.87,57.406 91.651,53.388 322.801,53.388 					"/>
                        <polygon fill="#D1E3FF" points="324.02,64.041 92.87,64.041 91.651,60.022 322.801,60.022 					"/>
                        <polygon fill="#D1E3FF" points="324.02,70.675 92.87,70.675 91.651,66.657 322.801,66.657 					"/>
                        <polygon fill="#D1E3FF" points="324.02,77.31 92.87,77.31 91.651,73.292 322.801,73.292 					"/>
                        <polygon fill="#D1E3FF" points="324.02,83.944 92.87,83.944 91.651,79.926 322.801,79.926 					"/>
                    </g>
                    <g>
                        <g>
                            <g>
                                <rect x="501.176" y="49.182" fill="#D1E3FF" width="97.191" height="173.277"/>
                                <path fill="#CADEFF" d="M555.938,58.335c-4.132,0-7.494-3.362-7.494-7.494c0-4.131,3.362-7.493,7.494-7.493
								s7.494,3.361,7.494,7.493C563.432,54.973,560.069,58.335,555.938,58.335z M555.938,44.833c-3.313,0-6.01,2.696-6.01,6.009
								c0,3.314,2.696,6.01,6.01,6.01c3.314,0,6.011-2.696,6.011-6.01C561.948,47.528,559.252,44.833,555.938,44.833z"/>
                                <rect x="508.503" y="49.182" fill="#EEF9FF" width="100.391" height="173.277"/>
                                <rect x="516.912" y="57.593" fill="#FFFFFF" width="83.571" height="156.456"/>
                                <rect x="599.451" y="57.593" fill="#D1E3FF" width="1.032" height="156.456"/>
                            </g>
                        </g>
                    </g>
                    <g>
                        <path fill="#CADEFC" d="M526.497,284.068c0,0,1.034,17.479,40.735,17.479s40.738-17.479,40.738-17.479H526.497z"/>
                        <g>
                            <g>
                                <rect x="405.666" y="315.258" fill="#E3EEFF" width="40.542" height="166.987"/>
                                <rect x="413.45" y="482.245" fill="#E3EEFF" width="211.842" height="7.88"/>
                                <rect x="446.208" y="315.258" fill="#F3F8FF" width="186.869" height="166.987"/>
                                <rect x="462.147" y="378.359" fill="#E3EEFF" width="154.99" height="40.785"/>
                                <rect x="462.147" y="426.582" fill="#E3EEFF" width="154.99" height="40.785"/>
                                <path fill="#F3F8FF" d="M562.815,382.829h-46.347c-1.537,0-2.797-1.259-2.797-2.796l0,0c0-1.538,1.26-2.797,2.797-2.797
								h46.347c1.538,0,2.797,1.259,2.797,2.797l0,0C565.612,381.57,564.354,382.829,562.815,382.829z"/>
                                <rect x="462.147" y="330.136" fill="#E3EEFF" width="154.99" height="40.785"/>
                                <path fill="#F3F8FF" d="M562.815,334.605h-46.347c-1.537,0-2.797-1.258-2.797-2.796l0,0c0-1.539,1.26-2.797,2.797-2.797
								h46.347c1.538,0,2.797,1.258,2.797,2.797l0,0C565.612,333.348,564.354,334.605,562.815,334.605z"/>
                                <path fill="#F3F8FF" d="M562.815,431.054h-46.347c-1.537,0-2.797-1.26-2.797-2.797l0,0c0-1.538,1.26-2.796,2.797-2.796
								h46.347c1.538,0,2.797,1.258,2.797,2.796l0,0C565.612,429.794,564.354,431.054,562.815,431.054z"/>
                            </g>
                            <rect x="446.208" y="301.547" fill="#E3EEFF" width="192.271" height="13.711"/>
                            <rect x="400" y="301.547" fill="#D1E3FF" width="46.208" height="13.711"/>
                        </g>
                        <g>
                            <g>
                                <rect x="421.268" y="253.257" fill="#E3EEFF" width="40.3" height="48.29"/>
                                <rect x="461.567" y="253.257" fill="#F3F8FF" width="71.498" height="48.29"/>
                                <ellipse fill="#FFFFFF" cx="497.316" cy="278.748" rx="16.492" ry="6.247"/>
                                <rect x="421.268" y="259.439" opacity="0.7" fill="#D1E3FF" width="112.218" height="3.313"/>
                            </g>
                            <g>
                                <rect x="419.045" y="251.252" fill="#E3EEFF" width="42.522" height="9.583"/>
                                <rect x="461.567" y="251.252" fill="#F3F8FF" width="73.721" height="9.583"/>
                            </g>
                        </g>
                    </g>
                    <g>
                        <g>
                            <polygon fill="#E3EEFF" points="257.998,277.403 104.393,277.403 113.976,490.125 267.581,490.125 						"/>
                            <polygon fill="#F3F8FF" points="260.224,277.403 106.619,277.403 116.202,490.125 269.807,490.125 						"/>
                        </g>
                        <g>
                            <g>
                                <rect x="140.494" y="441.835" fill="#E3EEFF" width="40.298" height="48.29"/>
                                <rect x="180.792" y="441.835" fill="#F3F8FF" width="192.896" height="48.29"/>
                                <rect x="140.494" y="448.018" opacity="0.7" fill="#D1E3FF" width="233.616" height="3.313"/>
                            </g>
                            <g>
                                <rect x="138.268" y="439.83" fill="#E3EEFF" width="42.524" height="9.582"/>
                                <rect x="180.792" y="439.83" fill="#F3F8FF" width="195.121" height="9.582"/>
                            </g>
                        </g>
                        <g>
                            <g>
                                <rect x="173.884" y="352.574" fill="#D1E3FF" width="52.433" height="87.256"/>
                                <rect x="226.317" y="352.574" fill="#E3EEFF" width="131.013" height="87.256"/>
                                <rect x="173.884" y="360.617" opacity="0.7" fill="#D1E3FF" width="183.992" height="4.311"/>
                            </g>
                            <g>
                                <rect x="170.987" y="342.607" fill="#D1E3FF" width="55.33" height="19.827"/>
                                <rect x="226.317" y="342.607" fill="#E3EEFF" width="133.906" height="19.827"/>
                            </g>
                        </g>
                        <g>
                            <circle fill="#D1E3FF" cx="115.471" cy="453.063" r="37.061"/>
                            <ellipse transform="matrix(0.7199 0.6941 -0.6941 0.7199 324.4629 54.022)" opacity="0.7" fill="#D1E3FF" cx="95.298" cy="429.022" rx="2.815" ry="5.756"/>
                            <ellipse transform="matrix(0.1889 0.982 -0.982 0.1889 504.672 231.5233)" opacity="0.7" fill="#D1E3FF" cx="112.185" cy="421.262" rx="2.816" ry="5.755"/>
                            <ellipse transform="matrix(0.3313 0.9435 -0.9435 0.3313 481.6153 187.6993)" opacity="0.7" fill="#D1E3FF" cx="108.385" cy="433.63" rx="3.53" ry="5.756"/>
                        </g>
                    </g>
                </g>
            </g>
            <g>
                <ellipse fill="#F0F6FF" cx="371.026" cy="540.347" rx="287.751" ry="16.805"/>
                <g>
                    <path fill="#C0DAFF" d="M455.973,540.347H285.171c-11.929,0-21.69-9.761-21.69-21.69V109.691c0-11.929,9.761-21.69,21.69-21.69
					h170.802c11.932,0,21.692,9.761,21.692,21.69v408.965C477.665,530.586,467.904,540.347,455.973,540.347z"/>
                    <path fill="#C0DAFF" d="M477.304,219.232h-14.138c-3.272,0-5.949-2.678-5.949-5.951V170.19c0-3.274,2.677-5.951,5.949-5.951
					h14.138c3.272,0,5.951,2.676,5.951,5.951v43.091C483.255,216.555,480.576,219.232,477.304,219.232z"/>
                    <path fill="#C0DAFF" d="M478.786,266.117h-17.1c-2.46,0-4.47-2.01-4.47-4.47v-22.084c0-2.46,2.01-4.47,4.47-4.47h17.1
					c2.457,0,4.469,2.01,4.469,4.47v22.084C483.255,264.106,481.243,266.117,478.786,266.117z"/>
                    <rect x="250.856" y="123.29" fill="#DCE9FF" width="1.484" height="19.623"/>
                    <rect x="250.856" y="148.355" fill="#DCE9FF" width="1.484" height="6.148"/>
                    <path opacity="0.6" fill="#0053CC" d="M448.546,540.347H277.742c-11.929,0-21.69-9.761-21.69-21.69V109.691
					c0-11.929,9.761-21.69,21.69-21.69h170.804c11.929,0,21.69,9.761,21.69,21.69v408.965
					C470.236,530.586,460.475,540.347,448.546,540.347z"/>
                    <circle fill="#0053CC" cx="363.144" cy="519.632" r="9.653"/>
                    <rect x="256.051" y="112.93" fill="#DCE9FF" width="214.185" height="388.725"/>
                    <rect x="256.051" y="112.93" fill="#DCE9FF" width="214.185" height="388.725"/>
                    <path fill="#FFFFFF" d="M437.063,250.607H289.223c-8.109,0-14.744-6.635-14.744-14.745v-88.254
					c0-8.109,6.635-14.744,14.744-14.744h147.839c8.11,0,14.745,6.635,14.745,14.744v88.254
					C451.808,243.973,445.173,250.607,437.063,250.607z"/>
                    <circle fill="#DCE9FF" cx="301.666" cy="160.05" r="19.637"/>
                    <path fill="#FFFFFF" d="M317.87,160.047c0,2.798-0.709,5.427-1.958,7.72c-2.734,5.051-8.086,8.487-14.249,8.487
					c-6.16,0-11.514-3.436-14.247-8.487c-1.25-2.293-1.959-4.922-1.959-7.72c0-8.952,7.255-16.206,16.206-16.206
					C310.617,143.841,317.87,151.096,317.87,160.047z"/>
                    <path fill="#C0DAFF" d="M315.913,167.767c-2.734,5.051-8.086,8.487-14.249,8.487c-6.16,0-11.514-3.436-14.247-8.487
					c4.08-2.725,8.977-4.316,14.247-4.316C306.937,163.451,311.833,165.042,315.913,167.767z"/>
                    <circle fill="#C0DAFF" cx="301.666" cy="154.503" r="7.219"/>
                    <path fill="#FFFFFF" d="M440.93,302.702H285.358c-5.983,0-10.879-4.896-10.879-10.879v-19.458
					c0-5.983,4.896-10.879,10.879-10.879H440.93c5.981,0,10.878,4.896,10.878,10.879v19.458
					C451.808,297.807,446.911,302.702,440.93,302.702z"/>
                    <circle fill="#0053CC" cx="341.981" cy="99.474" r="3.415"/>
                    <path fill="#0053CC" d="M353.777,96.059h28.365c1.878,0,3.414,1.537,3.414,3.415l0,0c0,1.877-1.536,3.414-3.414,3.414h-28.365
					c-1.876,0-3.415-1.536-3.415-3.414l0,0C350.362,97.596,351.901,96.059,353.777,96.059z"/>
                </g>
                <g>
                    <path opacity="0.6" fill="#0053CC" d="M477.51,306.688l20.966,57.798c1.135,3.13-0.496,6.62-3.627,7.756l-110.026,39.909
					c-3.13,1.137-6.619-0.496-7.756-3.626l-20.964-57.797c-0.593-1.638-0.431-3.376,0.306-4.822
					c0.678-1.315,1.826-2.392,3.322-2.934l110.026-39.91c1.493-0.542,3.065-0.452,4.428,0.122
					C475.677,303.823,476.917,305.053,477.51,306.688z"/>
                    <path fill="#9FC6FF" d="M474.184,303.185l-31.441,51.755c-6.005,9.885-18.079,14.265-29.023,10.527l-57.311-19.561
					c0.678-1.315,1.826-2.392,3.322-2.934l110.026-39.91C471.249,302.521,472.821,302.61,474.184,303.185z"/>
                </g>
                <g>
                    <path opacity="0.6" fill="#0053CC" d="M443.003,406.017l-1.007,52.066c-0.056,2.819-2.406,5.082-5.227,5.027l-99.117-1.917
					c-2.819-0.055-5.083-2.406-5.028-5.226l1.007-52.067c0.027-1.474,0.686-2.799,1.709-3.719c0.935-0.832,2.171-1.335,3.516-1.31
					l99.119,1.918c1.345,0.026,2.562,0.575,3.464,1.444C442.426,403.192,443.03,404.542,443.003,406.017z"/>
                    <path fill="#9FC6FF" d="M441.439,402.234l-40.598,31.35c-7.754,5.987-18.63,5.776-26.146-0.506l-39.354-32.896
					c0.935-0.832,2.171-1.335,3.516-1.31l99.119,1.918C439.32,400.816,440.537,401.365,441.439,402.234z"/>
                </g>
                <g>
                    <defs>
                        <rect id="SVGID_1_" x="256.051" y="112.93" width="214.185" height="388.725"/>
                    </defs>
                    <clipPath id="SVGID_2_">
                        <use xlink:href="#SVGID_1_"  overflow="visible"/>
                    </clipPath>
                    <g clip-path="url(#SVGID_2_)">
                        <path fill="#0F264C" d="M380.653,202.277c0-8.905-2.969-43.945,11.625-46.914c4.618-4.865,27.485-5.364,31.001,7.008
						c4.617,16.243-2.227,55.902-2.227,55.902L380.653,202.277"/>
                        <path fill="#0F264C" d="M424.086,218.356c-0.015,0-0.031-0.001-0.046-0.003c-0.203-0.024-0.348-0.21-0.322-0.413
						c0.049-0.398,4.818-40.044-0.502-55.778c-1.452-4.299-5.614-7.32-11.721-8.506c-7.965-1.551-16.574,0.384-18.953,3.149
						c-0.133,0.155-0.368,0.173-0.522,0.039c-0.155-0.133-0.173-0.368-0.04-0.523c2.781-3.236,12.146-4.854,19.657-3.394
						c6.379,1.24,10.741,4.436,12.283,8.998c5.373,15.893,0.582,55.706,0.533,56.105
						C424.431,218.218,424.271,218.356,424.086,218.356z"/>
                        <path fill="#FF8B7B" d="M410.993,226.636l0.361,0.792l0.455,0.932c0.303,0.63,0.641,1.274,0.978,1.907
						c0.698,1.267,1.424,2.534,2.231,3.76c1.559,2.479,3.28,4.877,5.154,7.149c1.914,2.236,3.918,4.4,6.072,6.417
						c1.106,0.968,2.187,1.979,3.344,2.897l1.738,1.371l0.412,0.325c0,0,0.03,0.041-0.007,0.019c-0.05-0.008-0.229-0.091-0.581-0.12
						c-0.363-0.049-0.868,0.014-1.256,0.185c-0.374,0.144-0.568,0.319-0.634,0.409c-0.094,0.139,0.164-0.085,0.388-0.472
						c0.486-0.799,0.981-2.089,1.378-3.415c0.829-2.702,1.396-5.737,1.914-8.78c0.518-3.057,0.922-6.177,1.254-9.316
						c0.393-3.131,0.668-6.322,0.97-9.439l5.722-0.085c0.359,3.303,0.511,6.533,0.648,9.82c0.07,3.277,0.064,6.567-0.069,9.899
						c-0.157,3.339-0.455,6.685-1.164,10.221c-0.394,1.78-0.838,3.585-1.806,5.654c-0.514,1.033-1.136,2.182-2.405,3.42
						c-0.666,0.622-1.536,1.247-2.66,1.685c-1.146,0.438-2.466,0.577-3.627,0.435c-1.146-0.145-2.091-0.501-2.852-0.881
						c-0.4-0.193-0.695-0.386-1.042-0.595l-0.565-0.379l-2.153-1.461c-1.436-0.977-2.79-2.066-4.148-3.152
						c-2.662-2.232-5.185-4.639-7.494-7.239c-2.284-2.619-4.427-5.367-6.334-8.292c-0.953-1.461-1.827-2.981-2.67-4.529
						c-0.415-0.786-0.829-1.561-1.211-2.383l-0.561-1.251c-0.194-0.448-0.347-0.809-0.582-1.423L410.993,226.636z"/>
                        <polygon fill="#DCE9FF" points="416.016,234.309 406.038,248.064 410.161,252.118 420.78,239.352 					"/>
                        <path fill="#9FC6FF" d="M400.375,216.154c11.233,3.022,18.977,18.725,18.977,18.725l-12.975,18.186
						c0,0-15.588-19.608-15.21-25.844C391.56,220.728,393.605,214.334,400.375,216.154z"/>
                        <path fill="#FF8B7B" d="M435.334,222.696l-2.967-11.813l11.332,3.305c0,0-0.323,7.976-4.229,10.582L435.334,222.696z"/>
                        <polygon fill="#FF8B7B" points="435.936,201.292 443.892,205.315 443.699,214.188 432.367,210.883 					"/>
                        <path fill="#FF8B7B" d="M293.684,205.664l-10.372-6.388l10.421-5.544c0,0,5.337,5.938,4.36,10.529L293.684,205.664z"/>
                        <polygon fill="#FF8B7B" points="279.174,189.917 287.678,187.243 293.733,193.731 283.313,199.276 					"/>
                        <polygon fill="#FF8B7B" points="288.339,492.296 299.25,493.361 310.604,467.391 299.693,466.325 					"/>
                        <polygon fill="#FF8B7B" points="177.605,412.792 183.829,422.217 207.658,410.831 201.434,401.406 					"/>
                        <path fill="#14365B" d="M186.438,421.234l-3.699-12.14c-0.136-0.442-0.551-0.707-1.001-0.638l-10.026,1.545
						c-1.039,0.16-1.721,1.304-1.393,2.317c1.362,4.211,2.231,6.174,3.859,11.513c1.001,3.283,2.732,10.696,4.115,15.23
						c1.351,4.437,5.939,3.41,5.771,1.396c-0.759-9.021,0.733-13.635,2.261-17.218C186.6,422.597,186.634,421.881,186.438,421.234z"
						/>
                        <path fill="#14365B" d="M300.699,489.99h-13.401c-0.487,0-0.927,0.34-1.058,0.814l-2.913,10.602
						c-0.303,1.101,0.507,2.141,1.634,2.122c4.682-0.082,6.969-0.355,12.861-0.355c3.626,0,12.997,0.377,18.004,0.377
						c4.896,0,5.919-4.951,3.893-5.399c-9.084-2.01-14.319-4.782-17.122-7.427C302.09,490.247,301.412,489.99,300.699,489.99z"/>
                        <polygon fill="#EA7063" points="310.598,467.398 304.749,480.785 293.365,480.785 299.683,466.331 					"/>
                        <polygon fill="#EA7063" points="201.426,401.408 207.652,410.837 195.368,416.701 189.139,407.271 					"/>
                        <path fill="#9FC6FF" d="M410.115,221.963c0,0,3.688,4.353-39.089,56.116c-15.71-9.193-31.949-18.695-39.596-23.169
						c10.095-15.727,15.928-25.653,27.578-63.232c0,0,9.351,3.049,18.109,7.623c11.855,6.192,17.32,10.05,17.98,10.522
						C402.406,215.047,410.115,221.963,410.115,221.963z"/>
                        <path fill="#FF8B7B" d="M390.745,180.099c-2.251,6.449-7.32,17.711-13.628,19.202c0,0-1.853,6.794,8.897,13.085
						c11.82,6.916,9.083-2.563,9.083-2.563c-5.55-5.316-2.583-10.004,1.171-13.843L390.745,180.099z"/>
                        <g>
                            <path fill="#FF8B7B" d="M404.924,217.496c-2.787-2.327-6.357-5.191-9.826-7.677c-5.547-3.967-11.139-6.943-17.983-10.522
							c-3.501-1.835-7.093-3.428-10.15-4.654c-0.49,0.819-0.093,3.316,1.414,6.971c5.698,7.345,18.93,18.158,29.974,20.305
							C403.486,221.183,405.097,219.557,404.924,217.496z"/>
                            <path fill="#DCE9FF" d="M368.378,201.615c2.064,5.009,6.22,12.206,13.138,20.363c7.822,0.543,13.204,0.464,16.836-0.058
							C387.308,219.773,374.076,208.96,368.378,201.615z"/>
                        </g>
                        <path fill="#EA7063" d="M392.994,186.576l3.271,9.397c-0.892,0.906-1.732,1.861-2.422,2.867
						c-2.255-1.799-4.677-6.18-3.429-8.914C391.037,188.565,392.435,187.055,392.994,186.576z"/>
                        <path fill="#FF8B7B" d="M390.861,167.271c-3.069,10.783-4.6,15.282-1.177,22.576c5.146,10.973,19.061,12.384,25.291,2.738
						c5.606-8.685,9.684-24.859,0.833-32.698C407.088,152.166,393.93,156.49,390.861,167.271z"/>
                        <path fill="#0F264C" d="M387.703,174.037c7.666,2.858,25.703-6.657,30.609-12.49c0.659-8.988-20.428-5.442-20.428-5.442
						S386.631,152.683,387.703,174.037z"/>
                        <path fill="#FF8B7B" d="M385.866,176.217c-0.552,2.258-0.011,4.559,1.006,6.177c1.529,2.432,4.217,1.529,5.401-0.921
						c1.067-2.205,1.559-6.128-0.752-7.717C389.247,172.193,386.498,173.637,385.866,176.217z"/>
                        <path fill="#0053CC" d="M371.026,278.08c0,0,0.649,101.694-17.386,131.051c-18.76,30.536-43.219,67.759-43.219,67.759
						l-21.172-1.023c0,0,24.695-55.091,34.01-80.657c12.841-35.246,18.771-134.097,18.771-134.097L371.026,278.08z"/>
                        <path fill="#004DAA" d="M348.498,280.892c-2.803,2.068-5.847,5.863-8.739,10.169c-0.658,7.56-1.461,16.073-2.415,24.979
						C343.799,307.293,348.909,291.901,348.498,280.892z"/>
                        <path fill="#0053CC" d="M360.57,271.96c0,0-44.813,63.603-72.75,97.881c-22.564,27.685-87.868,47.456-87.868,47.456
						l-7.967-13.363c0,0,51.954-28.991,67.447-47.725c49.588-59.953,48.974-91.05,71.998-101.299L360.57,271.96z"/>
                        <path fill="#14365B" d="M332.199,252.239l-3.861,2.5c-0.299,0.193-0.138,0.666,0.32,0.932l41.524,24.298
						c0.357,0.21,0.757,0.207,0.91-0.004l2.431-3.335c0.167-0.23-0.021-0.62-0.41-0.848l-40.098-23.462
						C332.721,252.146,332.39,252.115,332.199,252.239z"/>
                        <path fill="#0053CC" d="M334.959,259.875l-1.074-0.629c-0.214-0.125-0.313-0.33-0.219-0.456l3.199-4.311
						c0.093-0.126,0.345-0.126,0.558-0.001l1.074,0.629c0.215,0.125,0.313,0.331,0.219,0.455l-3.199,4.311
						C335.425,259.999,335.172,259.999,334.959,259.875z"/>
                        <path fill="#0053CC" d="M366.94,278.588l-1.074-0.629c-0.215-0.125-0.313-0.33-0.219-0.457l3.199-4.31
						c0.093-0.126,0.345-0.126,0.56-0.001l1.072,0.627c0.215,0.126,0.313,0.332,0.22,0.457l-3.198,4.31
						C367.405,278.712,367.153,278.712,366.94,278.588z"/>
                        <path fill="#0053CC" d="M350.95,269.231l-1.074-0.629c-0.213-0.125-0.312-0.33-0.219-0.457l3.197-4.31
						c0.094-0.126,0.346-0.126,0.56-0.001l1.075,0.629c0.213,0.125,0.312,0.33,0.218,0.455l-3.197,4.311
						C351.415,269.356,351.164,269.356,350.95,269.231z"/>
                        <ellipse transform="matrix(-0.9432 -0.3323 0.3323 -0.9432 732.0203 477.6157)" fill="#0F264C" cx="406.847" cy="176.219" rx="1.078" ry="1.651"/>
                        <ellipse transform="matrix(-0.9432 -0.3323 0.3323 -0.9432 749.7571 487.4925)" fill="#0F264C" cx="416.56" cy="179.641" rx="1.078" ry="1.649"/>
                        <path fill="#0F264C" d="M416.843,178.046l2.274,0.132C419.117,178.178,417.49,179.417,416.843,178.046z"/>
                        <path fill="#FF5652" d="M412.456,179.854c0,0,0.153,4.215,1.13,6.564c-1.507,0.66-3.265-0.503-3.265-0.503L412.456,179.854z"/>
                        <path fill="#0F264C" d="M406.193,188.249c-0.028,0-0.06-0.006-0.088-0.016c-4.046-1.424-4.921-4.848-4.956-4.994
						c-0.034-0.144,0.053-0.289,0.196-0.323c0.15-0.035,0.289,0.055,0.323,0.197c0.009,0.032,0.852,3.292,4.613,4.616
						c0.14,0.048,0.212,0.202,0.163,0.341C406.406,188.18,406.304,188.249,406.193,188.249z"/>
                        <path fill="#0F264C" d="M405.399,172.466c-0.19,0-0.374-0.101-0.472-0.281c-0.141-0.26-0.043-0.584,0.218-0.725
						c2.603-1.404,4.789-0.25,4.88-0.2c0.262,0.142,0.357,0.466,0.215,0.726c-0.143,0.259-0.47,0.352-0.724,0.216
						c-0.087-0.046-1.79-0.918-3.864,0.2C405.573,172.445,405.486,172.466,405.399,172.466z"/>
                        <path fill="#0F264C" d="M421.706,176.391c-0.238,0-0.456-0.161-0.518-0.403c-0.588-2.313-2.446-2.971-2.465-2.977
						c-0.279-0.095-0.429-0.4-0.332-0.68c0.094-0.278,0.397-0.431,0.678-0.335c0.099,0.035,2.428,0.858,3.156,3.728
						c0.072,0.287-0.102,0.577-0.387,0.651C421.794,176.385,421.751,176.391,421.706,176.391z"/>
                        <path fill="#FF8B7B" d="M355.737,208.7c-2.809,2.251-5.486,4.057-8.32,5.919c-2.806,1.842-5.713,3.515-8.676,5.106
						c-5.899,3.217-12.151,5.907-18.712,7.922c-0.807,0.275-1.659,0.46-2.488,0.691c-0.867,0.216-1.596,0.445-2.575,0.648
						c-2.008,0.452-4.238,0.617-6.495,0.337c-2.258-0.274-4.539-1.062-6.467-2.264c-1.937-1.202-3.493-2.755-4.728-4.368
						c-2.47-3.261-3.716-6.78-4.632-10.188c-0.458-1.71-0.745-3.434-0.955-5.148c-0.213-1.74-0.346-3.375-0.335-5.232l5.701-0.483
						c0.668,2.808,1.627,5.817,2.775,8.465c1.13,2.679,2.632,5.119,4.31,6.81c1.719,1.708,3.407,2.44,5.261,2.452
						c0.946-0.014,1.968-0.13,3.079-0.484c1.297-0.415,2.814-0.887,4.196-1.399c5.642-2.095,11.174-4.736,16.518-7.792
						c2.688-1.497,5.281-3.183,7.884-4.835c2.557-1.652,5.188-3.501,7.47-5.196L355.737,208.7z"/>
                        <polygon fill="#DCE9FF" points="337.378,204.812 342.512,220.334 347.335,217.447 342.82,202.049 					"/>
                        <path fill="#9FC6FF" d="M359.008,191.678c-4.673-1.115-19.056,9.843-19.056,9.843l6.102,19.459c0,0,15.093-8.351,16.426-14.454
						C363.869,200.171,364.34,192.951,359.008,191.678z"/>
                        <path fill="#407BFF" d="M187.583,427.595c-0.252,0-0.492-0.067-0.715-0.199c-1.233-0.733-1.578-3.358-1.672-4.858
						c-0.007-0.107,0.051-0.207,0.146-0.256c0.094-0.047,0.208-0.035,0.292,0.033c0.355,0.295,3.472,2.93,3.289,4.361
						c-0.029,0.227-0.151,0.535-0.565,0.728C188.087,427.53,187.828,427.595,187.583,427.595z M185.782,423.148
						c0.197,1.996,0.693,3.391,1.359,3.786c0.285,0.171,0.606,0.162,0.988-0.015c0.208-0.097,0.248-0.217,0.261-0.313
						C188.487,425.854,186.997,424.24,185.782,423.148z"/>
                        <path fill="#407BFF" d="M189.455,424.369c-1.365,0-3.444-0.961-4.177-1.655c-0.07-0.064-0.098-0.163-0.075-0.255
						c0.021-0.093,0.09-0.166,0.181-0.196c0.132-0.04,3.247-0.973,4.646-0.115c0.371,0.228,0.598,0.558,0.672,0.979
						c0.117,0.664-0.232,0.962-0.451,1.078C190.039,424.319,189.765,424.369,189.455,424.369z M186.043,422.64
						c1.133,0.778,3.261,1.474,3.954,1.095c0.114-0.063,0.238-0.175,0.177-0.515c-0.046-0.268-0.186-0.469-0.423-0.616
						C188.915,422.089,187.094,422.384,186.043,422.64z"/>
                        <path fill="#407BFF" d="M306.643,492.203c-1.292,0-2.694-0.249-3.665-0.467c-0.113-0.024-0.197-0.117-0.209-0.231
						c-0.011-0.113,0.049-0.224,0.152-0.271c0.903-0.426,5.469-2.499,6.68-1.674c0.168,0.111,0.36,0.33,0.338,0.729
						c-0.03,0.536-0.26,0.968-0.68,1.286C308.641,492.043,307.677,492.203,306.643,492.203z M303.902,491.377
						c1.462,0.266,3.979,0.568,5.034-0.228c0.294-0.222,0.448-0.513,0.468-0.891c0.009-0.157-0.046-0.219-0.101-0.256
						C308.644,489.56,305.902,490.51,303.902,491.377z"/>
                        <path fill="#407BFF" d="M303.035,491.743c-0.064,0-0.125-0.021-0.174-0.063c-0.076-0.065-0.11-0.167-0.087-0.265
						c0.046-0.207,1.168-5.062,3.837-4.727c0.689,0.083,0.879,0.43,0.917,0.706c0.17,1.264-2.88,3.709-4.392,4.328
						C303.103,491.736,303.068,491.743,303.035,491.743z M306.366,487.21c-1.603,0-2.565,2.601-2.919,3.769
						c1.542-0.847,3.649-2.777,3.551-3.51c-0.018-0.131-0.169-0.216-0.449-0.248C306.487,487.213,306.427,487.21,306.366,487.21z"/>
                        <path fill="#0F264C" d="M407.129,174.624l2.275,0.132C409.404,174.756,407.776,175.995,407.129,174.624z"/>
                    </g>
                </g>
                <g>
                    <path opacity="0.8" fill="#0053CC" d="M537.227,70.192H427.105c-9.795,0-17.809,8.014-17.809,17.809V122.1
					c0,9.795,8.014,17.809,17.809,17.809h9.233v17.516l17.518-17.516h83.37c9.795,0,17.81-8.014,17.81-17.809V88.001
					C555.036,78.206,547.021,70.192,537.227,70.192z"/>
                    <g>
                        <path fill="#9FC6FF" d="M534.652,92.542H429.678c-2.255,0-4.083-1.829-4.083-4.084l0,0c0-2.256,1.828-4.084,4.083-4.084
						h104.975c2.255,0,4.085,1.829,4.085,4.084l0,0C538.737,90.713,536.907,92.542,534.652,92.542z"/>
                    </g>
                    <g>
                        <path fill="#9FC6FF" d="M534.652,108.751h-67.3c-2.255,0-4.085-1.829-4.085-4.084l0,0c0-2.256,1.83-4.084,4.085-4.084h67.3
						c2.255,0,4.085,1.828,4.085,4.084l0,0C538.737,106.922,536.907,108.751,534.652,108.751z"/>
                    </g>
                    <g>
                        <path fill="#9FC6FF" d="M447.388,108.751h-17.71c-2.255,0-4.083-1.829-4.083-4.084l0,0c0-2.256,1.828-4.084,4.083-4.084h17.71
						c2.255,0,4.084,1.828,4.084,4.084l0,0C451.472,106.922,449.643,108.751,447.388,108.751z"/>
                    </g>
                    <g>
                        <path fill="#9FC6FF" d="M508.433,124.96h-78.755c-2.255,0-4.083-1.828-4.083-4.084l0,0c0-2.256,1.828-4.084,4.083-4.084h78.755
						c2.257,0,4.084,1.828,4.084,4.084l0,0C512.517,123.132,510.689,124.96,508.433,124.96z"/>
                    </g>
                </g>
            </g>
        </g>
    </g>
    <g>
        <g>
            <g>
                <g>
                    <g>
                        <g>
                            <rect y="486.271" fill="#E6E6E6" width="737" height="0.369"/>
                            <rect x="117.123" y="498.093" fill="#E6E6E6" width="50.712" height="0.368"/>
                            <rect x="177.536" y="498.093" fill="#E6E6E6" width="15.152" height="0.368"/>
                            <rect x="238.915" y="490.852" fill="#E6E6E6" width="28.534" height="0.369"/>
                            <rect x="571.061" y="506.271" fill="#E6E6E6" width="63.668" height="0.368"/>
                            <rect x="647.851" y="506.271" fill="#E6E6E6" width="9.336" height="0.368"/>
                            <rect x="449.079" y="493.342" fill="#E6E6E6" width="138.077" height="0.369"/>
                            <path fill="#E6E6E6" d="M349.358,420.535H64.73c-4.639,0-8.414-3.774-8.414-8.416V12.03c0-4.639,3.775-8.413,8.414-8.413
							h284.628c4.638,0,8.412,3.774,8.412,8.413v400.089C357.771,416.761,353.996,420.535,349.358,420.535z M64.73,3.985
							c-4.437,0-8.045,3.609-8.045,8.045v400.089c0,4.438,3.608,8.047,8.045,8.047h284.628c4.435,0,8.043-3.609,8.043-8.047V12.03
							c0-4.436-3.608-8.045-8.043-8.045H64.73z"/>
                            <path fill="#E6E6E6" d="M668.18,420.535H383.552c-4.638,0-8.411-3.774-8.411-8.416V12.03c0-4.639,3.773-8.413,8.411-8.413
							H668.18c4.638,0,8.413,3.774,8.413,8.413v400.089C676.593,416.761,672.817,420.535,668.18,420.535z M383.552,3.985
							c-4.435,0-8.043,3.609-8.043,8.045v400.089c0,4.438,3.608,8.047,8.043,8.047H668.18c4.437,0,8.044-3.609,8.044-8.047V12.03
							c0-4.436-3.607-8.045-8.044-8.045H383.552z"/>
                        </g>
                    </g>
                </g>
                <g>
                    <g>
                        <rect x="514.35" y="285.385" fill="#F5F5F5" width="103.276" height="200.887"/>
                        <rect x="609.107" y="285.385" fill="#F0F0F0" width="8.519" height="200.887"/>
                        <rect x="284.502" y="291.117" fill="#E0E0E0" width="237.805" height="43.4"/>
                        <path fill="#E0E0E0" d="M383.669,486.421H281.718c-0.815,0-1.474-0.659-1.474-1.474c0-0.815,0.659-1.474,1.474-1.474h101.951
						c14.738,0,16.704-4.296,16.704-21.374V246.897c0-0.814,0.659-1.474,1.476-1.474c0.814,0,1.474,0.66,1.474,1.474V462.1
						C403.322,480.35,400.481,486.421,383.669,486.421z"/>
                        <rect x="293.659" y="286.154" fill="#F0F0F0" width="321.66" height="15.067"/>
                        <rect x="192.688" y="285.385" fill="#F5F5F5" width="103.278" height="200.887"/>
                        <rect x="287.45" y="285.385" fill="#F0F0F0" width="8.516" height="200.887"/>
                    </g>
                    <g>
                        <rect x="134.202" y="128.529" fill="#FAFAFA" width="88.631" height="357.742"/>
                        <rect x="139.067" y="138.976" fill="#F5F5F5" width="78.901" height="78.901"/>
                        <path fill="#E0E0E0" d="M161.054,137.931L161.054,137.931h34.928l0,0c0,4.519-3.664,8.181-8.182,8.181h-18.564
						C164.717,146.111,161.054,142.449,161.054,137.931z"/>
                        <rect x="139.067" y="224.958" fill="#F5F5F5" width="78.901" height="78.902"/>
                        <rect x="139.067" y="310.942" fill="#F5F5F5" width="78.901" height="78.9"/>
                        <rect x="139.067" y="396.925" fill="#F5F5F5" width="78.901" height="78.902"/>
                        <path fill="#E0E0E0" d="M161.054,223.914L161.054,223.914h34.928l0,0c0,4.518-3.664,8.181-8.182,8.181h-18.564
						C164.717,232.095,161.054,228.432,161.054,223.914z"/>
                        <path fill="#E0E0E0" d="M161.054,309.898L161.054,309.898h34.928l0,0c0,4.518-3.664,8.18-8.182,8.18h-18.564
						C164.717,318.078,161.054,314.416,161.054,309.898z"/>
                        <path fill="#E0E0E0" d="M161.054,395.879L161.054,395.879h34.928l0,0c0,4.521-3.664,8.183-8.182,8.183h-18.564
						C164.717,404.062,161.054,400.399,161.054,395.879z"/>
                        <rect x="89.934" y="128.529" fill="#F0F0F0" width="44.268" height="357.742"/>
                    </g>
                    <g>
                        <polygon fill="#F0F0F0" points="389.716,285.385 367.434,285.385 372.854,242.018 395.138,242.018 					"/>
                        <polygon fill="#F5F5F5" points="394.642,285.385 372.36,285.385 377.781,242.018 400.063,242.018 					"/>
                        <polygon fill="#F0F0F0" points="442.438,285.385 426.331,285.385 423.237,280.471 439.347,280.471 					"/>
                        <polygon fill="#FAFAFA" points="528.754,285.385 431.255,285.385 428.163,280.471 515.609,280.471 					"/>
                        <path fill="#F0F0F0" d="M319.058,272.937h7.043c6.875,0,12.447,5.574,12.447,12.448l0,0h-31.936l0,0
						C306.612,278.511,312.185,272.937,319.058,272.937z"/>
                        <polygon fill="#F0F0F0" points="397.354,263.701 375.071,263.701 377.781,242.018 400.063,242.018 					"/>
                        <path fill="#F0F0F0" d="M315.479,258.51h157.615c1.314,0,2.33-1.152,2.167-2.456l-12.145-97.174
						c-0.137-1.093-1.067-1.914-2.17-1.914H303.332c-1.314,0-2.331,1.152-2.167,2.456l12.146,97.174
						C313.446,257.69,314.377,258.51,315.479,258.51z"/>
                        <path fill="#F5F5F5" d="M317.819,258.51h157.616c1.314,0,2.33-1.152,2.167-2.456l-12.145-97.174
						c-0.137-1.093-1.067-1.914-2.169-1.914H305.674c-1.314,0-2.332,1.152-2.168,2.456l12.146,97.174
						C315.789,257.69,316.718,258.51,317.819,258.51z"/>
                        <path fill="#E0E0E0" d="M472.519,253.139l-11.369-90.955c-0.038-0.306-0.297-0.536-0.604-0.536H309.196
						c-0.367,0-0.652,0.323-0.606,0.688l11.369,90.955c0.041,0.306,0.3,0.535,0.608,0.535h151.345
						C472.279,253.826,472.563,253.504,472.519,253.139z"/>
                        <path fill="#FAFAFA" d="M382.242,281.32h29.063c1.996,0,3.614,1.618,3.614,3.614v0.45h-36.292v-0.45
						C378.628,282.938,380.247,281.32,382.242,281.32z"/>
                        <path fill="#F0F0F0" d="M361.824,281.32h17.391c1.995,0,3.614,1.618,3.614,3.614v0.45h-24.62v-0.45
						C358.209,282.938,359.827,281.32,361.824,281.32z"/>
                    </g>
                    <path fill="#E0E0E0" d="M171.658,88.127c0.009-0.021,0.004-0.043,0.012-0.064c0.34-1.138,0.653-2.288,0.937-3.445
					c1.717,2.224,3.384,2.788,4.626,2.788c0.137,0,0.27-0.007,0.398-0.019c2.459-0.238,4.82-2.624,6.313-6.382
					c0.056-0.142,0.048-0.3-0.02-0.435c-0.069-0.136-0.191-0.235-0.338-0.274c-4.792-1.25-8.597,0.612-10.413,1.806
					c0.222-1.092,0.41-2.189,0.564-3.286c0.401,0.071,0.798,0.118,1.181,0.118c4.019,0,6.967-3.58,7.105-3.753
					c0.106-0.131,0.144-0.305,0.101-0.468c-0.043-0.164-0.162-0.295-0.317-0.358c-2.394-0.948-4.422-1.031-6.028-0.243
					c-0.994,0.487-1.794,1.309-2.375,2.401c-0.862-2.588-3.403-7.537-10.456-8.932c-0.154-0.031-0.307,0.006-0.426,0.101
					c-0.121,0.094-0.196,0.235-0.205,0.389c-0.207,3.647-0.092,8.107,2.646,10.234c1.04,0.806,2.344,1.209,3.938,1.209
					c1.104,0,2.358-0.204,3.75-0.589c-0.383,2.616-0.964,5.232-1.688,7.793c-1.425-1.886-5.142-6.111-10.783-7.568
					c-0.283-0.077-0.571,0.096-0.645,0.378c-0.828,3.138-0.405,5.686,1.225,7.369c1.343,1.388,3.443,2.096,6.097,2.096
					c1.088,0,2.275-0.125,3.535-0.365c-0.67,2.148-1.423,4.246-2.225,6.262c-1.638-1.449-6.457-5.127-11.695-3.596
					c-0.145,0.042-0.263,0.144-0.328,0.279c-0.065,0.135-0.071,0.292-0.013,0.431c1.426,3.475,3.043,5.402,5.081,6.066
					c0.533,0.172,1.09,0.26,1.678,0.26c1.289,0,2.732-0.428,4.388-1.286c-1.131,2.662-2.32,5.148-3.46,7.369
					c-1.235-1.333-4.598-4.082-10.563-2.806c-0.262,0.056-0.441,0.297-0.417,0.565c0.193,2.164,1.729,4.226,3.822,5.13
					c0.58,0.251,1.421,0.502,2.456,0.502c0.969,0,2.111-0.23,3.373-0.873c-1.163,2.137-2.216,3.924-3.044,5.273h-10.026
					c-1.586-2.728-3.426-6.11-5.224-9.924c0.88,0.259,1.746,0.399,2.575,0.399c1.776,0,3.397-0.586,4.7-1.743
					c2.008-1.781,2.878-4.592,2.162-6.996c-0.072-0.245-0.307-0.405-0.563-0.375c-5.844,0.616-8.787,4.499-9.913,6.451
					c-1.182-2.649-2.319-5.465-3.324-8.381c1.54,0.797,2.928,1.217,4.171,1.217c0.599,0,1.17-0.092,1.71-0.276
					c2.887-0.983,4.632-4.53,6.086-8.216c0.058-0.14,0.049-0.296-0.017-0.431c-0.066-0.135-0.187-0.235-0.333-0.275
					c-5.943-1.654-10.758,4.028-12.254,6.054c-0.779-2.446-1.45-4.948-1.966-7.466c1.338,0.243,2.6,0.371,3.762,0.371
					c3.023,0,5.404-0.815,6.904-2.408c1.779-1.888,2.211-4.712,1.25-8.167c-0.078-0.28-0.363-0.443-0.65-0.37
					c-6.072,1.657-10.059,6.271-11.66,8.452c-0.078-0.45-0.154-0.901-0.219-1.352c-0.018-0.122-0.078-0.221-0.154-0.306
					c-0.639-1.924-1.756-3.317-3.251-4.026c-1.771-0.839-3.995-0.717-6.61,0.36c-0.155,0.063-0.272,0.198-0.313,0.362
					s-0.001,0.336,0.107,0.467c0.155,0.187,3.398,4.019,7.759,4.019c0.453,0,0.919-0.06,1.393-0.15
					c0.194,1.252,0.427,2.505,0.701,3.752c-1.997-1.285-6.23-3.319-11.529-1.86c-0.146,0.041-0.268,0.141-0.335,0.278
					c-0.066,0.137-0.072,0.294-0.013,0.435c1.694,4.109,4.318,6.696,7.02,6.921c0.118,0.009,0.242,0.015,0.372,0.015
					c1.371,0,3.226-0.63,5.111-3.162c0.749,2.889,1.668,5.731,2.692,8.468c-2.551-1.204-8.285-3.294-12.387-0.12
					c-0.227,0.177-0.273,0.5-0.104,0.732c2.649,3.612,5.102,5.369,7.5,5.369c0.02,0,0.04,0,0.06-0.001
					c1.993-0.023,3.897-1.255,5.803-3.731c1.09,2.716,2.256,5.305,3.427,7.704c-2.548-1.586-5.353-1.334-8.657,0.751
					c-0.15,0.094-0.242,0.255-0.248,0.432c-0.005,0.176,0.078,0.343,0.22,0.446c0.186,0.134,3.344,2.373,6.665,2.373
					c1.19,0,2.399-0.292,3.502-1.065c0.941,1.811,1.862,3.482,2.717,4.972h-4.555v2.59h1.659l1.367,13.736h20.171l1.369-13.736
					h1.659v-2.59h-9.05c1.007-1.667,2.288-3.889,3.657-6.507c0.04-0.051,0.069-0.106,0.088-0.167
					c0.344-0.661,0.692-1.344,1.045-2.053c1.45,1.965,3.377,3.047,5.455,3.047c0.225,0,0.449-0.013,0.676-0.038
					c2.431-0.271,4.654-2.007,5.401-4.224c0.083-0.242-0.02-0.508-0.242-0.633c-4.253-2.377-8.17-1.303-10.201-0.402
					c0.761-1.619,1.52-3.333,2.249-5.116c0.049-0.07,0.085-0.148,0.095-0.235c0.203-0.501,0.405-1.008,0.602-1.521
					c1.757,2.212,3.503,3.303,5.316,3.303c0.001,0,0.003,0,0.005,0c2.206-0.003,4.437-1.629,6.817-4.974
					c0.167-0.234,0.117-0.558-0.112-0.73c-3.747-2.819-8.893-0.896-11.219,0.234c0.472-1.324,0.918-2.672,1.33-4.041
					C171.646,88.14,171.655,88.136,171.658,88.127z"/>
                    <g>
                        <g>
                            <rect x="517.855" y="81.908" fill="#E0E0E0" width="75.378" height="82.772"/>
                            <path fill="#EBEBEB" d="M583.938,85.306c-0.066,0-0.129-0.017-0.189-0.052c-0.179-0.107-17.977-10.691-23.636-10.691
							c-5.657,0-22.634,10.581-22.805,10.688c-0.169,0.108-0.397,0.057-0.506-0.117c-0.109-0.173-0.057-0.4,0.116-0.508
							c0.706-0.441,17.328-10.799,23.194-10.799c5.862,0,23.276,10.354,24.012,10.795c0.178,0.104,0.233,0.331,0.131,0.505
							C584.185,85.241,584.063,85.306,583.938,85.306z"/>
                            <rect x="523.537" y="81.908" fill="#F5F5F5" width="77.86" height="82.772"/>
                            <rect x="530.061" y="88.43" fill="#FFFFFF" width="64.817" height="69.727"/>
                        </g>
                        <path fill="#E0E0E0" d="M580.225,123.293c0,9.806-7.949,17.755-17.759,17.755c-9.805,0-17.754-7.949-17.754-17.755
						c0-9.806,7.949-17.755,17.754-17.755C572.275,105.539,580.225,113.488,580.225,123.293z"/>
                    </g>
                    <g>
                        <path fill="#E6E6E6" d="M560.958,385.829h66.066c12.611,0,22.907-10.089,23.162-22.699l2.465-120.951
						c0.192-9.454-7.419-17.221-16.874-17.221h-41.416c-8.578,0-15.796,6.439-16.765,14.966L560.958,385.829z"/>
                        <path fill="#E6E6E6" d="M532.338,373.171h64.653v12.658h-70.402c-1.821,0-3.3-1.478-3.3-3.3v-0.311
						C523.289,377.221,527.341,373.171,532.338,373.171z"/>
                        <path fill="#E6E6E6" d="M591.46,487.93c-0.686,0-1.298-0.478-1.441-1.175l-20.648-99.452h-35.958l-20.647,99.452
						c-0.167,0.798-0.95,1.305-1.743,1.146c-0.798-0.167-1.311-0.946-1.144-1.744l20.891-100.627
						c0.143-0.685,0.745-1.175,1.443-1.175h38.356c0.699,0,1.301,0.49,1.445,1.175l20.893,100.627
						c0.164,0.798-0.349,1.577-1.146,1.744C591.659,487.921,591.559,487.93,591.46,487.93z"/>
                        <path fill="#E6E6E6" d="M569.04,487.93c-0.099,0-0.199-0.009-0.299-0.029c-0.799-0.167-1.312-0.946-1.146-1.744l20.893-100.627
						c0.143-0.685,0.745-1.175,1.445-1.175h38.354c0.699,0,1.301,0.49,1.445,1.175l20.891,100.627
						c0.166,0.798-0.346,1.577-1.145,1.744c-0.8,0.159-1.578-0.348-1.745-1.146l-20.645-99.452h-35.96l-20.647,99.452
						C570.337,487.452,569.724,487.93,569.04,487.93z"/>
                    </g>
                </g>
            </g>
            <g>
                <ellipse fill="#F5F5F5" cx="368.5" cy="536.151" rx="285.792" ry="16.691"/>
            </g>
            <g>
                <g>
                    <g>
                        <path fill="#407BFF" d="M393.715,522.468c-0.932,0-1.766-0.653-1.958-1.601l-28.013-137.912h-48.762l-28.014,137.912
						c-0.22,1.083-1.27,1.782-2.356,1.561c-1.083-0.219-1.782-1.275-1.563-2.357l28.339-139.512c0.19-0.933,1.008-1.602,1.959-1.602
						h52.032c0.95,0,1.771,0.669,1.958,1.602l28.338,139.515c0.221,1.079-0.479,2.136-1.561,2.354
						C393.979,522.457,393.846,522.468,393.715,522.468z"/>
                        <path fill="#407BFF" d="M315.422,522.468c-0.932,0-1.765-0.653-1.958-1.601l-28.013-137.912h-48.762l-28.015,137.912
						c-0.218,1.083-1.27,1.782-2.357,1.561c-1.083-0.219-1.781-1.275-1.56-2.357l28.338-139.512
						c0.188-0.933,1.009-1.602,1.959-1.602h52.03c0.95,0,1.771,0.669,1.959,1.601l28.339,139.513
						c0.222,1.082-0.478,2.139-1.561,2.357C315.687,522.457,315.554,522.468,315.422,522.468z"/>
                        <path fill="#407BFF" d="M326.384,380.956H236.77c-17.11,0-31.075-13.685-31.423-30.79l-3.34-136.196
						c-0.262-12.823,10.062-23.359,22.888-23.359h56.177c11.641,0,21.426,8.735,22.745,20.299L326.384,380.956z"/>
                        <path fill="#407BFF" d="M365.207,363.785h-87.697v17.171h95.496c2.474,0,4.478-2.004,4.478-4.476v-0.421
						C377.482,369.28,371.986,363.785,365.207,363.785z"/>
                    </g>
                    <g opacity="0.3">
                        <path d="M393.715,522.468c-0.932,0-1.766-0.653-1.958-1.601l-28.013-137.912h-48.762l-28.014,137.912
						c-0.22,1.083-1.27,1.782-2.356,1.561c-1.083-0.219-1.782-1.275-1.563-2.357l28.339-139.512c0.19-0.933,1.008-1.602,1.959-1.602
						h52.032c0.95,0,1.771,0.669,1.958,1.602l28.338,139.515c0.221,1.079-0.479,2.136-1.561,2.354
						C393.979,522.457,393.846,522.468,393.715,522.468z"/>
                        <path d="M315.422,522.468c-0.932,0-1.765-0.653-1.958-1.601l-28.013-137.912h-48.762l-28.015,137.912
						c-0.218,1.083-1.27,1.782-2.357,1.561c-1.083-0.219-1.781-1.275-1.56-2.357l28.338-139.512
						c0.188-0.933,1.009-1.602,1.959-1.602h52.03c0.95,0,1.771,0.669,1.959,1.601l28.339,139.513
						c0.222,1.082-0.478,2.139-1.561,2.357C315.687,522.457,315.554,522.468,315.422,522.468z"/>
                        <path d="M326.384,380.956H236.77c-17.11,0-31.075-13.685-31.423-30.79l-3.34-136.196
						c-0.262-12.823,10.062-23.359,22.888-23.359h56.177c11.641,0,21.426,8.735,22.745,20.299L326.384,380.956z"/>
                        <path d="M365.207,363.785h-87.697v17.171h95.496c2.474,0,4.478-2.004,4.478-4.476v-0.421
						C377.482,369.28,371.986,363.785,365.207,363.785z"/>
                    </g>
                </g>
                <g>
                    <path fill="#263238" d="M301.444,183.156c0,0,12.531,16.36,4.428,48.935c-8.101,32.576-49.94,14.894-52.478-14.465
					c-2.991-34.61,35.901-10.747,42.798-41.526L301.444,183.156z"/>
                    <g>
                        <path fill="#407BFF" d="M292.349,173.442c-5.434,3.842-7.59,9.409-1.571,14.861c6.02,5.453,14.591,5.28,17.177,3.038
						c2.587-2.242,2.089-13.615,2.089-13.615L292.349,173.442z"/>
                        <path opacity="0.8" fill="#FFFFFF" d="M292.349,173.442c-5.434,3.842-7.59,9.409-1.571,14.861
						c6.02,5.453,14.591,5.28,17.177,3.038c2.587-2.242,2.089-13.615,2.089-13.615L292.349,173.442z"/>
                    </g>
                    <path fill="#E58A7B" d="M361.035,245.952c0.147,0.66,0.409,1.696,0.635,2.563l0.72,2.77c0.497,1.855,1.044,3.719,1.611,5.581
					c1.103,3.736,2.309,7.469,3.569,11.195c1.279,3.719,2.566,7.45,3.981,11.143c0.698,1.85,1.383,3.706,2.118,5.547l0.859,2.207
					c0.129,0.305,0.345,0.665,0.669,1.057c1.294,1.636,4.236,3.432,7.47,4.717c3.252,1.375,6.897,2.395,10.616,3.297
					c3.735,0.873,7.583,1.596,11.476,2.189c3.868,0.656,7.881,1.093,11.719,1.513l0.139,7.923
					c-8.454,0.827-16.736,0.923-25.297-0.005c-4.274-0.453-8.575-1.227-12.991-2.518c-2.201-0.673-4.43-1.508-6.687-2.634
					c-2.244-1.153-4.567-2.563-6.725-4.729c-1.071-1.081-2.096-2.349-2.951-3.815c-0.219-0.357-0.409-0.753-0.607-1.131l-0.388-0.79
					l-0.68-1.404c-0.915-1.866-1.823-3.739-2.669-5.642c-1.71-3.798-3.37-7.628-4.863-11.536c-1.528-3.894-2.917-7.852-4.183-11.878
					c-0.61-2.021-1.201-4.052-1.748-6.118l-0.799-3.124c-0.244-1.107-0.458-2.042-0.706-3.374L361.035,245.952z"/>
                    <g>
                        <path fill="#407BFF" d="M356.028,229.261c6.318,1.609,10.739,27.612,10.739,27.612l-17.413,11.842
						c0,0-16.695-26.233-11.834-33.18C342.581,228.3,346.808,226.913,356.028,229.261z"/>
                        <path opacity="0.5" fill="#FFFFFF" d="M356.028,229.261c6.318,1.609,10.739,27.612,10.739,27.612l-17.413,11.842
						c0,0-16.695-26.233-11.834-33.18C342.581,228.3,346.808,226.913,356.028,229.261z"/>
                    </g>
                    <path opacity="0.2" fill="#407BFF" d="M353.76,235.753l-15.138,11.999c3.582,9.713,10.73,20.959,10.73,20.959l12.072-8.21
					L353.76,235.753z"/>
                    <g>
                        <path fill="#407BFF" d="M356.028,229.261c0,0,7.304,2.572-7.326,92.534c-24.71,0-50.246,0-62.268,0
						c1.045-25.344,1.074-40.971-11.038-92.978c0,0,13.047-2.839,26.441-3.484c10.478-0.504,19.063-0.839,28.275,0.001
						C342.256,226.442,356.028,229.261,356.028,229.261z"/>
                        <path opacity="0.5" fill="#FFFFFF" d="M356.028,229.261c0,0,7.304,2.572-7.326,92.534c-24.71,0-50.246,0-62.268,0
						c1.045-25.344,1.074-40.971-11.038-92.978c0,0,13.047-2.839,26.441-3.484c10.478-0.504,19.063-0.839,28.275,0.001
						C342.256,226.442,356.028,229.261,356.028,229.261z"/>
                    </g>
                    <path fill="#E58A7B" d="M414.219,299.626l10.874-11.022l1.43,15.524c0,0-8.152,5.518-13.794,2.553L414.219,299.626z"/>
                    <polygon fill="#E58A7B" points="437.877,286.957 438.372,300.019 426.522,304.128 425.093,288.604 				"/>
                    <polygon fill="#E58A7B" points="419.289,508.229 434.62,508.229 436.979,472.727 421.647,472.727 				"/>
                    <polygon fill="#E58A7B" points="359.964,508.229 375.296,508.229 380.227,472.727 364.893,472.727 				"/>
                    <path fill="#263238" d="M376.247,506.456h-17.225c-0.627,0-1.135,0.434-1.224,1.047l-1.963,13.627
					c-0.203,1.413,1.013,2.752,2.458,2.726c6.006-0.104,8.899-0.455,16.474-0.455c4.66,0,16.611,0.484,23.046,0.484
					c6.295,0,6.777-6.362,4.1-6.938c-12.017-2.586-19.057-6.149-23.104-9.55C378.079,506.783,377.164,506.456,376.247,506.456z"/>
                    <path fill="#263238" d="M435.813,506.456h-17.224c-0.627,0-1.136,0.434-1.224,1.047l-1.963,13.627
					c-0.205,1.413,1.012,2.752,2.457,2.726c6.005-0.104,8.9-0.455,16.476-0.455c4.66,0,14.298,0.484,20.733,0.484
					c6.295,0,6.779-6.362,4.099-6.938c-12.016-2.586-16.744-6.149-20.791-9.55C437.646,506.783,436.729,506.456,435.813,506.456z"/>
                    <path fill="#263238" d="M343.803,162.47c5.523,0.348,8.321,27.945-7.849,26.389C319.78,187.302,343.803,162.47,343.803,162.47z"
					/>
                    <g>
                        <polygon fill="#CF6F64" points="436.977,472.735 435.762,491.036 420.425,491.036 421.637,472.735 					"/>
                        <polygon fill="#CF6F64" points="364.888,472.735 380.228,472.735 377.678,491.036 362.341,491.036 					"/>
                    </g>
                    <path opacity="0.2" fill="#407BFF" d="M281.623,257.672c1.444,7.547,2.519,14.062,3.317,19.929l3.639-28.168L281.623,257.672z"
					/>
                    <path fill="#E58A7B" d="M304.639,193.496c1.783,9.097,3.563,25.766-2.801,31.836c0,0,2.486,9.229,19.391,9.229
					c18.589,0,8.885-9.228,8.885-9.228c-10.146-2.422-9.883-9.949-8.117-17.018L304.639,193.496z"/>
                    <g>
                        <polygon fill="#263238" points="317.871,236.538 323.534,234.508 322.774,232.955 					"/>
                        <polygon fill="#263238" points="328.849,235.353 323.534,234.508 324.68,232.771 					"/>
                        <path fill="#407BFF" d="M303.895,221.038l-3.84,3.673c-0.248,0.237-0.265,0.627-0.04,0.886l16.158,18.476
						c0,0,0.639-6.163,6.602-11.117c-13.41-5.076-16.911-10.334-18.097-11.867C304.486,220.841,304.121,220.821,303.895,221.038z"/>
                        <path fill="#407BFF" d="M327.071,223.869l4.772,1.304c0.292,0.08,0.518,0.302,0.593,0.596
						c0.478,1.849,1.959,8.985-0.733,18.303c-0.691-2.511-2.964-8.517-7.022-11.302c4.395-3.04,2.631-6.98,2.007-8.467
						C326.583,224.054,326.809,223.797,327.071,223.869z"/>
                    </g>
                    <path fill="#CF6F64" d="M311.715,199.542l10.273,8.766c-0.424,1.672-0.754,3.369-0.872,5.019c-3.875-0.561-9.2-4.815-9.61-8.873
					C311.3,202.43,311.385,200.485,311.715,199.542z"/>
                    <path fill="#E58A7B" d="M303.569,169.526c-1.756,15.114-2.823,21.474,3.355,30.498c9.293,13.574,28.24,12.426,34.479-1.859
					c5.614-12.858,7.542-35.414-6.027-43.982C322.009,145.742,305.325,154.412,303.569,169.526z"/>
                    <path fill="#263238" d="M338.197,144.577c-24.991-9.868-43.757,1.259-47.633,17.072c-6.018,24.562,13.366,26.288,13.366,26.288
					l2.419-6.273c3.499,2.096,13.345,1.168,10.275-17.061c-1.739-10.323,11.327,4.049,27.895,2.453
					C348.972,166.625,354.995,151.21,338.197,144.577z"/>
                    <path fill="#263238" d="M346.704,150.651c-3.297-5.065-10.019-9.391-23.941-11.438c0,0,7.23,1.627,9.584,6.92
					C334.699,151.426,350.664,156.736,346.704,150.651z"/>
                    <path fill="#E58A7B" d="M298.833,182.6c-0.247,3.145,0.982,6.11,2.696,8.054c2.581,2.924,5.984,1.127,7.036-2.414
					c0.949-3.188,0.747-8.55-2.693-10.172C302.48,176.47,299.117,179.004,298.833,182.6z"/>
                    <path fill="#263238" d="M348.702,321.795c0,0,102.796,9.555,101.79,56.31c-1.045,48.632-11.453,109.388-11.453,109.388H417.81
					c0,0-1.817-51.414-2.429-99.293c-0.32-24.946-99.656-29.938-99.656-29.938l-12.824-36.466H348.702z"/>
                    <path fill="#263238" d="M332.257,321.795c0,0,66.437,22.036,68.112,49.298c3.084,50.21-18.989,116.399-18.989,116.399h-20.906
					c0,0,1.184-43.918,3.685-89.407c3.141-57.154-97.703-0.788-77.725-76.29H332.257z"/>
                    <ellipse transform="matrix(-0.9843 -0.1763 0.1763 -0.9843 617.3752 410.8847)" fill="#263238" cx="326.939" cy="178.019" rx="1.464" ry="2.239"/>
                    <ellipse transform="matrix(-0.9843 -0.1764 0.1764 -0.9843 644.223 418.2213)" fill="#263238" cx="340.698" cy="180.48" rx="1.463" ry="2.239"/>
                    <path fill="#263238" d="M340.729,178.281l3.075-0.32C343.803,177.961,341.895,179.977,340.729,178.281z"/>
                    <path fill="#DF5753" d="M335.246,181.664c0,0,1.128,5.61,2.951,8.545c-1.876,1.212-4.485,0.038-4.485,0.038L335.246,181.664z"/>
                    <path fill="#263238" d="M328.633,194.149c-0.013,0-0.026-0.001-0.04-0.004c-5.659-1.012-7.612-5.485-7.632-5.53
					c-0.049-0.118,0.005-0.253,0.124-0.303c0.118-0.048,0.253,0.005,0.302,0.122c0.019,0.043,1.884,4.288,7.287,5.255
					c0.126,0.023,0.21,0.143,0.187,0.269C328.84,194.07,328.742,194.149,328.633,194.149z"/>
                    <path fill="#263238" d="M322.273,172.33c-0.124,0-0.249-0.05-0.339-0.148c-0.175-0.188-0.163-0.481,0.025-0.655
					c2.847-2.629,5.971-1.881,6.104-1.847c0.248,0.063,0.397,0.313,0.337,0.56c-0.061,0.249-0.314,0.402-0.562,0.338
					c-0.114-0.027-2.785-0.65-5.251,1.63C322.498,172.29,322.386,172.33,322.273,172.33z"/>
                    <path fill="#263238" d="M346.767,174.749c-0.179,0-0.35-0.104-0.426-0.278c-1.348-3.1-4.122-3.601-4.148-3.605
					c-0.254-0.043-0.423-0.282-0.38-0.534c0.041-0.252,0.285-0.422,0.533-0.38c0.135,0.023,3.299,0.595,4.845,4.15
					c0.104,0.234-0.004,0.507-0.239,0.609C346.891,174.736,346.828,174.749,346.767,174.749z"/>
                    <path fill="#E58A7B" d="M284.698,250.997c-1.336,4.375-2.782,8.904-4.057,13.384c-1.341,4.48-2.649,8.964-3.809,13.448
					c-1.14,4.484-2.268,8.952-3.097,13.334c-0.4,2.183-0.767,4.345-0.98,6.375c-0.114,1.022-0.166,1.981-0.19,2.872
					c-0.006,0.194-0.033-0.058-0.147-0.345c-0.124-0.275-0.392-0.772-0.726-1.07c-0.751-0.661-1.038-0.538-0.694-0.436
					c0.313,0.116,1.06,0.193,1.876,0.188c1.673-0.005,3.752-0.321,5.825-0.753c4.206-0.854,8.592-2.226,12.958-3.691
					c8.717-3.02,17.55-6.549,26.167-10.22l3.802,6.952c-8.209,5.321-16.582,10.104-25.548,14.259
					c-4.489,2.074-9.09,3.973-14.128,5.498c-2.551,0.721-5.165,1.383-8.256,1.669c-1.562,0.126-3.22,0.196-5.255-0.13
					c-1.029-0.186-2.113-0.423-3.344-0.969c-1.207-0.536-2.525-1.313-3.687-2.522c-2.424-2.363-3.269-5.931-3.286-7.964
					c-0.075-1.493-0.081-2.922-0.028-4.279c0.102-2.729,0.353-5.303,0.701-7.83c0.7-5.037,1.618-9.896,2.741-14.678
					c1.105-4.785,2.305-9.509,3.616-14.192c1.384-4.683,2.727-9.278,4.373-13.966L284.698,250.997z"/>
                    <path fill="#407BFF" d="M381.501,509.029c-1.406,0-2.95-0.294-4.03-0.55c-0.1-0.023-0.176-0.104-0.194-0.204
					c-0.018-0.101,0.025-0.204,0.112-0.26c0.521-0.343,5.118-3.316,6.863-2.536c0.367,0.167,0.597,0.493,0.661,0.939
					c0.108,0.776-0.083,1.393-0.569,1.836C383.713,508.831,382.652,509.029,381.501,509.029z M378.19,508.113
					c2.831,0.6,4.979,0.519,5.808-0.238c0.358-0.325,0.49-0.777,0.404-1.385c-0.038-0.273-0.152-0.446-0.362-0.541
					C382.921,505.445,379.808,507.118,378.19,508.113z"/>
                    <path fill="#407BFF" d="M377.529,508.485c-0.044,0-0.089-0.012-0.129-0.034c-0.079-0.046-0.127-0.13-0.127-0.223
					c0-0.184,0.019-4.551,1.651-5.997c0.417-0.37,0.893-0.526,1.453-0.457c0.801,0.098,1.057,0.559,1.13,0.927
					c0.318,1.59-2.24,4.84-3.852,5.752C377.617,508.477,377.572,508.485,377.529,508.485z M380.137,502.272
					c-0.323,0-0.61,0.112-0.872,0.346c-1.164,1.03-1.411,3.958-1.464,5.124c1.43-1.07,3.442-3.748,3.203-4.94
					c-0.037-0.19-0.15-0.451-0.689-0.518C380.254,502.275,380.194,502.272,380.137,502.272z"/>
                    <path fill="#407BFF" d="M441.58,509.032c-1.681,0-3.516-0.291-4.814-0.55c-0.106-0.023-0.189-0.109-0.205-0.217
					c-0.015-0.109,0.038-0.213,0.137-0.264c0.686-0.357,6.747-3.452,8.578-2.453c0.332,0.182,0.527,0.486,0.563,0.884
					c0.061,0.688-0.148,1.253-0.623,1.679C444.449,508.802,443.076,509.032,441.58,509.032z M437.611,508.116
					c1.982,0.343,5.909,0.829,7.262-0.385c0.353-0.316,0.499-0.726,0.453-1.253c-0.021-0.227-0.115-0.38-0.296-0.479
					C443.828,505.341,439.751,507.072,437.611,508.116z"/>
                    <path fill="#407BFF" d="M436.815,508.485c-0.052,0-0.104-0.015-0.148-0.046c-0.074-0.052-0.114-0.139-0.108-0.23
					c0.014-0.173,0.363-4.255,2.258-5.832c0.566-0.473,1.212-0.677,1.932-0.603c0.938,0.095,1.208,0.561,1.269,0.936
					c0.277,1.693-3.293,4.94-5.097,5.755C436.886,508.479,436.852,508.485,436.815,508.485z M440.465,502.272
					c-0.486,0-0.919,0.164-1.321,0.498c-1.375,1.146-1.871,3.909-2.019,5.015c1.938-1.088,4.572-3.857,4.385-4.991
					c-0.016-0.109-0.07-0.436-0.814-0.51C440.617,502.275,440.541,502.272,440.465,502.272z"/>
                    <path fill="#E58A7B" d="M317.539,284.256l14.543-3.685l-6.929,13.967c0,0-9.835,0.42-13.083-5.064L317.539,284.256z"/>
                    <polygon fill="#E58A7B" points="343.831,285.878 337.396,297.257 325.153,294.538 332.082,280.571 				"/>
                    <path fill="#263238" d="M326.969,175.819l3.075-0.319C330.043,175.5,328.135,177.515,326.969,175.819z"/>
                    <path fill="#407BFF" d="M285.501,318.14l-0.495,5.574c-0.219,0.433,0.293,0.873,1.013,0.873h62.989
					c0.562,0,1.026-0.274,1.062-0.627l0.562-5.574c0.04-0.387-0.447-0.714-1.061-0.714h-63.056
					C286.051,317.672,285.642,317.862,285.501,318.14z"/>
                    <g>
                        <path fill="#263238" d="M293.971,325.19h-1.69c-0.336,0-0.593-0.173-0.57-0.384l0.793-7.243
						c0.023-0.211,0.318-0.385,0.653-0.385h1.689c0.336,0,0.593,0.174,0.57,0.385l-0.792,7.243
						C294.602,325.018,294.306,325.19,293.971,325.19z"/>
                        <path fill="#263238" d="M344.263,325.19h-1.688c-0.336,0-0.592-0.173-0.569-0.384l0.792-7.243
						c0.023-0.211,0.317-0.385,0.654-0.385h1.688c0.335,0,0.591,0.174,0.568,0.385l-0.792,7.243
						C344.893,325.018,344.599,325.19,344.263,325.19z"/>
                        <path fill="#263238" d="M319.115,325.19h-1.687c-0.337,0-0.593-0.173-0.57-0.384l0.792-7.243
						c0.023-0.211,0.316-0.385,0.654-0.385h1.689c0.335,0,0.592,0.174,0.568,0.385l-0.792,7.243
						C319.746,325.018,319.452,325.19,319.115,325.19z"/>
                    </g>
                    <g>
                        <path fill="#407BFF" d="M275.396,228.817c-6.239,1.896-13.731,23.377-13.731,23.377l20.114,19.637
						c0,0,12.914-20.265,10.294-28.329C289.342,235.106,282.516,226.652,275.396,228.817z"/>
                        <path opacity="0.5" fill="#FFFFFF" d="M275.396,228.817c-6.239,1.896-13.731,23.377-13.731,23.377l20.114,19.637
						c0,0,12.914-20.265,10.294-28.329C289.342,235.106,282.516,226.652,275.396,228.817z"/>
                    </g>
                </g>
            </g>
            <g>
                <g>
                    <rect x="492.458" y="306.48" fill="#407BFF" width="117.271" height="228.107"/>
                    <rect x="492.458" y="306.48" opacity="0.6" fill="#FFFFFF" width="117.271" height="228.107"/>
                </g>
                <g>
                    <rect x="265.283" y="306.48" fill="#407BFF" width="117.273" height="228.107"/>
                    <rect x="265.283" y="306.48" opacity="0.6" fill="#FFFFFF" width="117.273" height="228.107"/>
                </g>
                <g>
                    <rect x="604.454" y="306.48" fill="#407BFF" width="9.67" height="228.107"/>
                    <rect x="604.454" y="306.48" opacity="0.3" width="9.67" height="228.107"/>
                </g>
                <g>
                    <rect x="383.952" y="306.48" fill="#407BFF" width="233.165" height="17.109"/>
                    <rect x="383.952" y="306.48" opacity="0.3" width="233.165" height="17.109"/>
                </g>
                <g>
                    <rect x="377.278" y="306.48" fill="#407BFF" width="9.669" height="228.107"/>
                    <rect x="377.278" y="306.48" opacity="0.3" width="9.669" height="228.107"/>
                </g>
                <g>
                    <rect x="383.387" y="311.759" fill="#407BFF" width="225.9" height="49.283"/>
                    <rect x="383.387" y="311.759" opacity="0.3" width="225.9" height="49.283"/>
                </g>
                <g>
                    <path fill="#407BFF" d="M609.793,541.207H544.68c-9.188,0-16.664-7.478-16.664-16.669v-205.35
					c0-8.137-6.618-14.755-14.754-14.755h-19.471v-1.475h19.471c8.948,0,16.228,7.281,16.228,16.229v205.35
					c0,8.378,6.815,15.195,15.19,15.195h65.113c2.801,0,4.417-1.866,4.992-3.608c0.575-1.744,0.392-4.202-1.857-5.875l0.878-1.184
					c2.373,1.763,3.306,4.716,2.379,7.521C615.258,539.394,612.746,541.207,609.793,541.207z"/>
                    <path opacity="0.3" d="M609.793,541.207H544.68c-9.188,0-16.664-7.478-16.664-16.669v-205.35
					c0-8.137-6.618-14.755-14.754-14.755h-19.471v-1.475h19.471c8.948,0,16.228,7.281,16.228,16.229v205.35
					c0,8.378,6.815,15.195,15.19,15.195h65.113c2.801,0,4.417-1.866,4.992-3.608c0.575-1.744,0.392-4.202-1.857-5.875l0.878-1.184
					c2.373,1.763,3.306,4.716,2.379,7.521C615.258,539.394,612.746,541.207,609.793,541.207z"/>
                </g>
                <g>
                    <g>
                        <rect x="617.809" y="373.784" fill="#407BFF" width="1.474" height="28.498"/>
                        <rect x="617.809" y="373.784" opacity="0.3" width="1.474" height="28.498"/>
                    </g>
                    <g>
                        <rect x="617.809" y="356.956" fill="#407BFF" width="1.474" height="7.492"/>
                        <rect x="617.809" y="356.956" opacity="0.3" width="1.474" height="7.492"/>
                    </g>
                </g>
            </g>
            <g>
                <g>
                    <polygon fill="#407BFF" points="511.323,238.381 402.05,238.381 386.212,302.909 495.487,302.909 				"/>
                    <polygon opacity="0.4" fill="#FFFFFF" points="511.323,238.381 402.05,238.381 386.212,302.909 495.487,302.909 				"/>
                </g>
                <g>
                    <polygon fill="#407BFF" points="389.569,302.909 389.127,306.477 346.237,306.477 346.68,302.909 				"/>
                    <polygon opacity="0.4" fill="#FFFFFF" points="389.569,302.909 389.127,306.477 346.237,306.477 346.68,302.909 				"/>
                </g>
                <g>
                    <polygon fill="#407BFF" points="498.849,302.909 498.408,306.477 389.127,306.477 389.569,302.909 				"/>
                    <polygon opacity="0.5" points="498.849,302.909 498.408,306.477 389.127,306.477 389.569,302.909 				"/>
                </g>
                <g>
                    <polygon fill="#407BFF" points="514.688,238.381 405.411,238.381 389.575,302.909 498.849,302.909 				"/>
                    <polygon opacity="0.5" points="514.688,238.381 405.411,238.381 389.575,302.909 498.849,302.909 				"/>
                </g>
            </g>
            <g>
                <path fill="#407BFF" d="M556.896,290.219c0,0-16.081-27.722,6.229-49.789c0,0,5.824,3.795,5.733,8.897
				c-0.089,5.103-6.234,6.393-4.913,10.651c1.318,4.258,7.122,8.436,3.313,11.956c-3.808,3.519,0.613,6.653,0.358,10.966
				C567.355,287.212,556.896,290.219,556.896,290.219z"/>
                <g>
                    <path fill="#407BFF" d="M558.113,292.752c0,0,6.522-31.377-21.609-45.284c0,0-4.33,5.438-2.636,10.251
					c1.694,4.814,7.933,4.102,8.023,8.559c0.089,4.457-4.101,10.251,0.625,12.391c4.725,2.139,1.515,6.506,3.116,10.518
					C547.241,293.198,558.113,292.752,558.113,292.752z"/>
                    <path opacity="0.5" d="M558.113,292.752c0,0,6.522-31.377-21.609-45.284c0,0-4.33,5.438-2.636,10.251
					c1.694,4.814,7.933,4.102,8.023,8.559c0.089,4.457-4.101,10.251,0.625,12.391c4.725,2.139,1.515,6.506,3.116,10.518
					C547.241,293.198,558.113,292.752,558.113,292.752z"/>
                </g>
                <g>
                    <path fill="#407BFF" d="M533.477,285.799c0,0,0.532,20.682,21.036,20.682c20.503,0,21.039-20.682,21.039-20.682H533.477z"/>
                    <path opacity="0.5" d="M533.477,285.799c0,0,0.532,20.682,21.036,20.682c20.503,0,21.039-20.682,21.039-20.682H533.477z"/>
                </g>
            </g>
            <g>
                <polygon fill="#407BFF" points="423.258,150.584 405.745,127.963 388.232,150.583 396.473,150.583 396.473,179.876 
				415.017,179.876 415.017,150.584 			"/>
                <g>
                    <path fill="#407BFF" d="M474.638,177.193c0-10.94,4.36-21.449,12.091-29.18c7.731-7.73,18.238-12.092,29.181-12.092v10.768
					c-16.843,0-30.506,13.661-30.506,30.504H474.638z"/>
                    <g>
                        <path fill="#407BFF" d="M474.638,177.193h10.766c0,16.857,13.663,30.504,30.506,30.504c5.555,0,10.766-1.482,15.245-4.087
						l5.384,9.328c-19.607,11.314-45.043,4.491-56.374-15.116C476.552,191.561,474.638,184.434,474.638,177.193z"/>
                        <path opacity="0.5" fill="#FFFFFF" d="M474.638,177.193h10.766c0,16.857,13.663,30.504,30.506,30.504
						c5.555,0,10.766-1.482,15.245-4.087l5.384,9.328c-19.607,11.314-45.043,4.491-56.374-15.116
						C476.552,191.561,474.638,184.434,474.638,177.193z"/>
                    </g>
                    <g>
                        <path fill="#407BFF" d="M515.909,146.689v-10.768c22.788,0,41.271,18.484,41.271,41.272c0,15.274-8.305,28.619-20.643,35.745
						l-5.384-9.328c9.125-5.255,15.261-15.116,15.261-26.417C546.415,160.35,532.752,146.689,515.909,146.689z"/>
                        <path opacity="0.7" d="M515.909,146.689v-10.768c22.788,0,41.271,18.484,41.271,41.272c0,15.274-8.305,28.619-20.643,35.745
						l-5.384-9.328c9.125-5.255,15.261-15.116,15.261-26.417C546.415,160.35,532.752,146.689,515.909,146.689z"/>
                    </g>
                </g>
                <g>
                    <path fill="#263238" d="M477.146,75.948h-37.604c-2.791,0-5.051,2.261-5.051,5.051v69.498c0,2.791,2.26,5.051,5.051,5.051
					h48.127c2.792,0,5.052-2.261,5.052-5.051V91.522L477.146,75.948z"/>
                    <g>
                        <path fill="#407BFF" d="M474.941,148.593h-31.288c-1.215,0-2.206-0.993-2.206-2.206l0,0c0-1.212,0.991-2.206,2.206-2.206
						h31.288c1.212,0,2.205,0.994,2.205,2.206l0,0C477.146,147.601,476.153,148.593,474.941,148.593z"/>
                    </g>
                    <g>
                        <path fill="#407BFF" d="M460.201,87.314h-16.548c-1.215,0-2.206-0.992-2.206-2.206l0,0c0-1.212,0.991-2.206,2.206-2.206h16.548
						c1.212,0,2.205,0.993,2.205,2.206l0,0C462.406,86.322,461.413,87.314,460.201,87.314z"/>
                    </g>
                    <g>
                        <path fill="#407BFF" d="M470.997,96.068h-27.344c-1.215,0-2.206-0.993-2.206-2.206l0,0c0-1.212,0.991-2.205,2.206-2.205h27.344
						c1.212,0,2.205,0.993,2.205,2.205l0,0C473.202,95.076,472.209,96.068,470.997,96.068z"/>
                    </g>
                    <g>
                        <path fill="#407BFF" d="M483.56,104.822h-39.906c-1.215,0-2.206-0.993-2.206-2.206l0,0c0-1.213,0.991-2.206,2.206-2.206h39.906
						c1.215,0,2.206,0.993,2.206,2.206l0,0C485.766,103.83,484.774,104.822,483.56,104.822z"/>
                    </g>
                    <g>
                        <path fill="#407BFF" d="M483.56,113.577h-23.2c-1.212,0-2.205-0.993-2.205-2.206l0,0c0-1.213,0.993-2.206,2.205-2.206h23.2
						c1.215,0,2.206,0.993,2.206,2.206l0,0C485.766,112.584,484.774,113.577,483.56,113.577z"/>
                    </g>
                    <g>
                        <path fill="#407BFF" d="M449.721,113.577h-6.067c-1.215,0-2.206-0.993-2.206-2.206l0,0c0-1.213,0.991-2.206,2.206-2.206h6.067
						c1.214,0,2.205,0.993,2.205,2.206l0,0C451.926,112.584,450.935,113.577,449.721,113.577z"/>
                    </g>
                    <g>
                        <path fill="#407BFF" d="M483.56,122.331h-39.906c-1.215,0-2.206-0.993-2.206-2.206l0,0c0-1.213,0.991-2.206,2.206-2.206h39.906
						c1.215,0,2.206,0.993,2.206,2.206l0,0C485.766,121.338,484.774,122.331,483.56,122.331z"/>
                    </g>
                    <g>
                        <path fill="#407BFF" d="M468.16,131.085h-24.507c-1.215,0-2.206-0.992-2.206-2.206l0,0c0-1.214,0.991-2.206,2.206-2.206h24.507
						c1.214,0,2.207,0.992,2.207,2.206l0,0C470.367,130.093,469.374,131.085,468.16,131.085z"/>
                    </g>
                    <g>
                        <path fill="#407BFF" d="M483.56,131.085h-6.54c-1.214,0-2.205-0.992-2.205-2.206l0,0c0-1.214,0.991-2.206,2.205-2.206h6.54
						c1.215,0,2.206,0.992,2.206,2.206l0,0C485.766,130.093,484.774,131.085,483.56,131.085z"/>
                    </g>
                    <g>
                        <path fill="#407BFF" d="M483.56,139.839h-39.906c-1.215,0-2.206-0.993-2.206-2.206l0,0c0-1.213,0.991-2.206,2.206-2.206h39.906
						c1.215,0,2.206,0.993,2.206,2.206l0,0C485.766,138.846,484.774,139.839,483.56,139.839z"/>
                    </g>
                    <g>
                        <g opacity="0.5">
                            <path fill="#FFFFFF" d="M474.941,148.593h-31.288c-1.215,0-2.206-0.993-2.206-2.206l0,0c0-1.212,0.991-2.206,2.206-2.206
							h31.288c1.212,0,2.205,0.994,2.205,2.206l0,0C477.146,147.601,476.153,148.593,474.941,148.593z"/>
                        </g>
                        <g opacity="0.5">
                            <path fill="#FFFFFF" d="M460.201,87.314h-16.548c-1.215,0-2.206-0.992-2.206-2.206l0,0c0-1.212,0.991-2.206,2.206-2.206
							h16.548c1.212,0,2.205,0.993,2.205,2.206l0,0C462.406,86.322,461.413,87.314,460.201,87.314z"/>
                        </g>
                        <g opacity="0.5">
                            <path fill="#FFFFFF" d="M470.997,96.068h-27.344c-1.215,0-2.206-0.993-2.206-2.206l0,0c0-1.212,0.991-2.205,2.206-2.205
							h27.344c1.212,0,2.205,0.993,2.205,2.205l0,0C473.202,95.076,472.209,96.068,470.997,96.068z"/>
                        </g>
                        <g opacity="0.5">
                            <path fill="#FFFFFF" d="M483.56,104.822h-39.906c-1.215,0-2.206-0.993-2.206-2.206l0,0c0-1.213,0.991-2.206,2.206-2.206
							h39.906c1.215,0,2.206,0.993,2.206,2.206l0,0C485.766,103.83,484.774,104.822,483.56,104.822z"/>
                        </g>
                        <g opacity="0.5">
                            <path fill="#FFFFFF" d="M483.56,113.577h-23.2c-1.212,0-2.205-0.993-2.205-2.206l0,0c0-1.213,0.993-2.206,2.205-2.206h23.2
							c1.215,0,2.206,0.993,2.206,2.206l0,0C485.766,112.584,484.774,113.577,483.56,113.577z"/>
                        </g>
                        <g opacity="0.5">
                            <path fill="#FFFFFF" d="M449.721,113.577h-6.067c-1.215,0-2.206-0.993-2.206-2.206l0,0c0-1.213,0.991-2.206,2.206-2.206h6.067
							c1.214,0,2.205,0.993,2.205,2.206l0,0C451.926,112.584,450.935,113.577,449.721,113.577z"/>
                        </g>
                        <g opacity="0.5">
                            <path fill="#FFFFFF" d="M483.56,122.331h-39.906c-1.215,0-2.206-0.993-2.206-2.206l0,0c0-1.213,0.991-2.206,2.206-2.206
							h39.906c1.215,0,2.206,0.993,2.206,2.206l0,0C485.766,121.338,484.774,122.331,483.56,122.331z"/>
                        </g>
                        <g opacity="0.5">
                            <path fill="#FFFFFF" d="M468.16,131.085h-24.507c-1.215,0-2.206-0.992-2.206-2.206l0,0c0-1.214,0.991-2.206,2.206-2.206
							h24.507c1.214,0,2.207,0.992,2.207,2.206l0,0C470.367,130.093,469.374,131.085,468.16,131.085z"/>
                        </g>
                        <g opacity="0.5">
                            <path fill="#FFFFFF" d="M483.56,131.085h-6.54c-1.214,0-2.205-0.992-2.205-2.206l0,0c0-1.214,0.991-2.206,2.205-2.206h6.54
							c1.215,0,2.206,0.992,2.206,2.206l0,0C485.766,130.093,484.774,131.085,483.56,131.085z"/>
                        </g>
                        <g opacity="0.5">
                            <path fill="#FFFFFF" d="M483.56,139.839h-39.906c-1.215,0-2.206-0.993-2.206-2.206l0,0c0-1.213,0.991-2.206,2.206-2.206
							h39.906c1.215,0,2.206,0.993,2.206,2.206l0,0C485.766,138.846,484.774,139.839,483.56,139.839z"/>
                        </g>
                    </g>
                    <g>
                        <path fill="#407BFF" d="M477.146,75.948v10.523c0,2.791,2.264,5.051,5.052,5.051h10.522L477.146,75.948z"/>
                        <path opacity="0.5" fill="#FFFFFF" d="M477.146,75.948v10.523c0,2.791,2.264,5.051,5.052,5.051h10.522L477.146,75.948z"/>
                    </g>
                </g>
            </g>
        </g>
    </g>
</svg>
