<svg version="1.1" id="Layer_1"
    xmlns="http://www.w3.org/2000/svg"
    xmlns:xlink="http://www.w3.org/1999/xlink" x="0px" y="0px"
	 width="1394.93px" height="653.968px" viewBox="0 0 1394.93 653.968" enable-background="new 0 0 1394.93 653.968"
	 xml:space="preserve">
    <g>
        <g>
            <linearGradient id="SVGID_1_" gradientUnits="userSpaceOnUse" x1="102.7437" y1="532.6035" x2="1163.6865" y2="532.6035">
                <stop  offset="1.500000e-007" style="stop-color:#EFF6FF"/>
                <stop  offset="1" style="stop-color:#C4D8FB"/>
            </linearGradient>
            <path fill="url(#SVGID_1_)" d="M656.885,484.053c-227.545,0-412.01,21.736-412.01,48.55c0,26.81,184.465,48.552,412.01,48.552
			c227.54,0,412.004-21.742,412.004-48.552C1068.89,505.789,884.425,484.053,656.885,484.053z"/>
        </g>
        <g>
            <path fill="#333242" d="M687.997,15.528h-31.7v507.605h31.7c62.009,0,112.267-113.63,112.267-253.799
			C800.264,129.164,750.006,15.528,687.997,15.528z"/>
            <path fill="#42445D" d="M656.297,358.715h136.802c3.052-18.356,5.201-37.718,6.303-57.812H656.297V358.715z"/>
            <path fill="#42445D" d="M656.297,523.133h31.7c42.116,0,78.805-52.42,98.018-129.975H656.297V523.133z"/>
            <path fill="#FFFFFF" d="M653.171,15.528c-62.008,0-112.267,113.636-112.267,253.806c0,140.169,50.258,253.799,112.267,253.799
			c62.003,0,112.273-113.63,112.273-253.799C765.444,129.164,715.175,15.528,653.171,15.528z"/>
            <linearGradient id="SVGID_2_" gradientUnits="userSpaceOnUse" x1="554.5884" y1="269.3345" x2="733.8267" y2="269.3345">
                <stop  offset="0" style="stop-color:#FDB522"/>
                <stop  offset="1" style="stop-color:#FB6B14"/>
            </linearGradient>
            <path fill="url(#SVGID_2_)" d="M644.208,66.733c-49.49,0-89.619,90.708-89.619,202.601c0,111.892,40.129,202.602,89.619,202.602
			c49.492,0,89.619-90.71,89.619-202.602C733.827,157.442,693.7,66.733,644.208,66.733z"/>
            <ellipse fill="#FFFFFF" cx="634.309" cy="269.334" rx="63.792" ry="144.217"/>
            <linearGradient id="SVGID_3_" gradientUnits="userSpaceOnUse" x1="586.2168" y1="269.3311" x2="670.4678" y2="269.3311">
                <stop  offset="0" style="stop-color:#FDB522"/>
                <stop  offset="1" style="stop-color:#FB6B14"/>
            </linearGradient>
            <path fill="url(#SVGID_3_)" d="M628.34,174.107c-23.26,0-42.123,42.635-42.123,95.227c0,52.586,18.863,95.221,42.123,95.221
			c23.267,0,42.128-42.635,42.128-95.221C670.468,216.742,651.606,174.107,628.34,174.107z"/>
            <path fill="#FFFFFF" d="M622.537,226.687c-10.423,0-18.869,19.095-18.869,42.647c0,23.553,8.446,42.646,18.869,42.646
			c10.416,0,18.861-19.094,18.861-42.646C641.398,245.782,632.953,226.687,622.537,226.687z"/>
        </g>
        <g>
            <g>
                <g>
                    <g>
                        <g>
                            <g>
                                <path fill="#333242" d="M950.527,469.999l-46.699-0.184c-4.964,0-9.594,4.137-10.321,9.231l-16.785,131.998h10.114
								l16.207-131.975c0.428-2.994-0.94-6.006,1.976-6.006l44.492,1.095c2.917,0,5.743,2.536,6.172,5.53l16.666,131.355h6.16
								L962.82,479.047C962.087,473.952,955.479,469.999,950.527,469.999z"/>
                            </g>
                        </g>
                        <g>
                            <g>
                                <path fill="#42445D" d="M946.654,469.815h-45.689c-4.958,0-9.57,4.148-10.267,9.255l-16.803,131.975h4.238l16.713-131.361
								c0.412-2.994,3.214-5.524,6.118-5.524h45.689c2.91,0,5.714,2.53,6.124,5.524l16.713,131.361h4.232L956.927,479.07
								C956.225,473.964,951.623,469.815,946.654,469.815z"/>
                            </g>
                        </g>
                    </g>
                </g>
                <g>
                    <g>
                        <g>
                            <g>
                                <path fill="#333242" d="M856.985,469.511h-55.799c-4.958,0-9.589,4.291-10.314,9.56l-22.44,131.975h7.826L800.4,479.089
								c0.429-3.095,4.428-5.071,7.338-5.071h48.053c2.909,0,5.736,2.619,6.166,5.714l16.659,131.313h6.166L869.099,479.07
								C868.366,473.802,861.945,469.511,856.985,469.511z"/>
                            </g>
                        </g>
                        <g>
                            <g>
                                <path fill="#42445D" d="M852.005,469.511h-54.609c-4.916,0-9.673,4.222-10.608,9.405l-22.153,132.129h4.312L790.9,479.772
								c0.566-3.119,3.543-5.755,6.495-5.755h54.609c2.91,0,5.731,2.619,6.155,5.714l16.67,131.313h4.238l-16.767-131.968
								C861.581,473.802,856.957,469.511,852.005,469.511z"/>
                            </g>
                        </g>
                    </g>
                </g>
                <g>
                    <g>
                        <linearGradient id="SVGID_4_" gradientUnits="userSpaceOnUse" x1="788.3457" y1="421.0078" x2="788.3457" y2="460.5998">
                            <stop  offset="2.500000e-007" style="stop-color:#EFF6FF"/>
                            <stop  offset="1" style="stop-color:#8AA8DA"/>
                        </linearGradient>
                        <path fill="url(#SVGID_4_)" d="M797.563,466.81c-1.406,0.031-2.598,0.048-3.376,0.054c-0.101-0.042-2.595-1.155-5.672-17.022
						c-1.834-9.464-3.179-20.345-4.065-27.546c-0.357-2.898-0.636-5.185-0.846-6.446l-0.346-2.15l-4.129,0.715l0.343,2.15
						c0.192,1.184,0.472,3.433,0.817,6.284c4.411,35.701,8.021,48.354,13.825,48.354c0.822,0,2.036-0.017,3.448-0.047V466.81z"/>
                    </g>
                    <g>
                        <linearGradient id="SVGID_5_" gradientUnits="userSpaceOnUse" x1="828.3174" y1="418.4063" x2="828.3174" y2="469.9689">
                            <stop  offset="0" style="stop-color:#8AA8DA"/>
                            <stop  offset="1" style="stop-color:#EFF6FF"/>
                        </linearGradient>
                        <path fill="url(#SVGID_5_)" d="M792.294,448.828c-1.832-9.386-3.179-20.177-4.064-27.307c-0.357-2.823-0.633-5.048-0.834-6.298
						l-4.132,0.721c0.192,1.166,0.466,3.356,0.804,6.13c4.411,35.396,8.03,47.944,13.839,47.944h75.466v-4.353l-75.395,0.006
						C797.872,465.639,795.383,464.559,792.294,448.828z"/>
                    </g>
                </g>
                <rect x="889.704" y="465.739" fill="#B7CCE7" width="56.818" height="6.595"/>
                <g>
                    <g>
                        <g>
                            <path fill="#42445D" d="M876.063,449.941c-2.001-9.958-3.523-21.528-4.436-28.444c-0.333-2.523-1.125-7.799-1.125-7.799
							l-4.13,0.715c0,0,0.773,5.186,1.1,7.673c4.899,37.146,8.722,50.307,14.589,50.307h2.096l0.09-4.333h-2.096
							C881.878,467.952,879.384,466.542,876.063,449.941z"/>
                        </g>
                    </g>
                    <g>
                        <path fill="#B7CCE7" d="M879.551,449.245c-1.833-9.471-3.178-20.355-4.064-27.564c-0.357-2.897-0.645-5.189-0.846-6.457
						l-4.138,0.721c0.197,1.178,0.471,3.435,0.822,6.292c4.415,35.716,8.027,48.371,13.82,48.371l0.083-4.339
						C885.122,466.227,882.628,465.114,879.551,449.245z"/>
                    </g>
                </g>
                <linearGradient id="SVGID_6_" gradientUnits="userSpaceOnUse" x1="814.3584" y1="343.9985" x2="814.3584" y2="388.2994">
                    <stop  offset="1.500000e-007" style="stop-color:#EFF6FF"/>
                    <stop  offset="1" style="stop-color:#C4D8FB"/>
                </linearGradient>
                <path fill="url(#SVGID_6_)" d="M845.785,333.509h-77.947c-7.946,0-13.493,6.088-12.327,13.529l11.01,70.41
				c0,0,11.381,5.179,45.522,5.179c34.14,0,61.317-5.179,61.317-5.179l-11.018-70.41
				C861.182,339.598,853.724,333.509,845.785,333.509z"/>
                <path fill="#0D5BD9" d="M852.934,333.509h-77.954c-7.94,0-13.492,6.088-12.326,13.529l11.018,70.41
				c0,0,11.378,5.179,45.521,5.179c34.146,0,61.316-5.179,61.316-5.179l-11.018-70.41
				C868.324,339.598,860.874,333.509,852.934,333.509z"/>
                <g>
                    <g>
                        <path fill="#0D5BD9" d="M883.479,457.411H792.8c-3.976,0-7.201,3.345-7.201,7.477c0,4.124,3.226,7.463,7.201,7.463h90.68
						c3.97,0,7.195-3.339,7.195-7.463C890.675,460.756,887.449,457.411,883.479,457.411z"/>
                    </g>
                </g>
                <g>
                    <g>
                        <path fill="#0A429F" d="M960.479,457.411h-90.686c-3.969,0-7.189,3.345-7.189,7.477c0,4.124,3.221,7.463,7.189,7.463h90.686
						c3.976,0,7.195-3.339,7.195-7.463C967.675,460.756,964.455,457.411,960.479,457.411z"/>
                    </g>
                </g>
            </g>
            <path fill-rule="evenodd" clip-rule="evenodd" fill="#FFCAB8" d="M929.75,459.196c-10.751-20.367-83.132-36.658-83.132-36.658
			s-11.101,26.165-9.507,31.374c1.828,5.957,63.693,19.158,64.76,24.67c1.487,5.811-0.466,10.755-0.691,15.994
			c-1.161,26.729,7.519,44.521,4.911,65.168c-0.847,6.737-3.148,6.506-3.679,9.441c-0.72,3.957,1.215,8.355,1.019,16.021
			c-0.251,9.93-3.542,20.481-0.995,25.577c1.638,3.279,11.362,11.517,15.767,10.832c5.103-0.797,3.27-9.714,3.119-13.522
			c-0.148-3.728-3.935-30.961-4.088-33.117C916.631,567.029,937.938,474.72,929.75,459.196z"/>
            <path fill-rule="evenodd" clip-rule="evenodd" fill="#FFC3AB" d="M857.557,419.675c0,0-22.039,29.028-20.445,34.237
			c1.828,5.957,63.693,19.158,64.76,24.67c1.487,5.811-0.466,10.755-0.691,15.994c-1.161,26.729,7.519,44.521,4.911,65.168
			c-0.847,6.737-3.148,6.506-3.679,9.441c-0.72,3.962,1.215,8.355,1.019,16.021c-0.251,9.93-3.542,20.481-0.995,25.577
			c1.59,3.172,10.713,10.95,15.304,10.844c-8.293-10.541-10.506-22.23-8.263-35.35c2.437-14.308,1.364-26.246,0.375-40.514
			c-1.011-14.584,0.727-28.861,7.334-41.485c6.809-13.019,7.333-24.695,7.333-38.963c0-3.826,1.202-6.881,3.094-9.184
			C911.798,437.216,857.557,419.675,857.557,419.675z"/>
            <path fill-rule="evenodd" clip-rule="evenodd" fill="#FFFFFF" d="M921.006,604.777c-1.041,1.279-1.976,3.452-3.778,3.737
			c-9.09,1.417-13.976-14.147-14.478-15.374c-0.909,7.215-2.184,13.897-0.314,17.643c1.638,3.279,11.362,11.517,15.767,10.832
			c5.103-0.797,3.27-9.714,3.119-13.522C921.298,607.515,921.179,606.313,921.006,604.777z"/>
            <linearGradient id="SVGID_7_" gradientUnits="userSpaceOnUse" x1="914.1494" y1="621.6553" x2="914.1494" y2="604.7773">
                <stop  offset="0" style="stop-color:#8AA8DA"/>
                <stop  offset="1" style="stop-color:#EFF6FF"/>
            </linearGradient>
            <path fill-rule="evenodd" clip-rule="evenodd" fill="url(#SVGID_7_)" d="M921.006,604.777c-1.041,1.279-1.976,3.452-3.778,3.737
			c-1.066,0.161-2.073,0.083-3.024-0.171c0.263,0.945,0.416,1.98,0.422,3.189c0.014,2.75-3.1,4.673-5.558,4.416
			c-0.835-0.083-1.691-0.273-2.531-0.524c3.672,3.292,8.798,6.638,11.666,6.19c5.103-0.797,3.27-9.714,3.119-13.522
			C921.298,607.515,921.179,606.313,921.006,604.777z"/>
            <g>
                <path fill-rule="evenodd" clip-rule="evenodd" fill="#FFCAB8" d="M898.264,424.443c-11.958,15.981-8.154,71.043-14.499,90.858
				c-2.076,6.463-4.292,5.819-5.357,8.606c-1.428,3.762-0.338,8.433-1.939,15.939c-2.072,9.713-7.237,19.48-5.672,24.955
				c1.01,3.523,9.051,13.411,13.51,13.542c5.167,0.153,4.994-8.946,5.549-12.72c0.535-3.69,1.825-31.159,2.059-33.302
				c0.868-7.927,32.182-73.459,35.426-94.017C930.416,418.813,905.03,415.396,898.264,424.443z"/>
                <path fill-rule="evenodd" clip-rule="evenodd" fill="#FFFFFF" d="M885.747,565.291c-9.19-0.279-11.131-16.481-11.405-17.784
				c-2.213,6.934-4.695,13.278-3.546,17.296c1.01,3.523,9.051,13.411,13.51,13.542c5.167,0.153,4.994-8.946,5.549-12.72
				c0.082-0.577,0.178-1.769,0.29-3.309C888.895,563.374,887.573,565.338,885.747,565.291z"/>
                <linearGradient id="SVGID_8_" gradientUnits="userSpaceOnUse" x1="882.0557" y1="578.3467" x2="882.0557" y2="562.3164">
                    <stop  offset="0" style="stop-color:#8AA8DA"/>
                    <stop  offset="1" style="stop-color:#EFF6FF"/>
                </linearGradient>
                <path fill-rule="evenodd" clip-rule="evenodd" fill="url(#SVGID_8_)" d="M885.747,565.291c-1.07-0.035-2.048-0.302-2.935-0.726
				c0.078,0.977,0.042,2.031-0.173,3.22c-0.5,2.691-3.906,4.012-6.274,3.314c-0.804-0.243-1.613-0.583-2.397-0.98
				c3.012,3.904,7.434,8.142,10.338,8.226c5.167,0.153,4.994-8.946,5.549-12.72c0.082-0.577,0.178-1.769,0.29-3.309
				C888.895,563.374,887.573,565.338,885.747,565.291z"/>
            </g>
            <g>
                <path fill-rule="evenodd" clip-rule="evenodd" fill="#C3391C" d="M858.569,205.528c-8.107,0-14.678,6.571-14.678,14.683
				c0,8.107,6.57,14.678,14.678,14.678c8.106,0,14.685-6.571,14.685-14.678C873.254,212.099,866.676,205.528,858.569,205.528z"/>
                <path fill-rule="evenodd" clip-rule="evenodd" fill="#FD4B1B" d="M860.938,229.563c-15.058,0-15.083-23.409,0-23.409
				c0.862,0,1.655,0.095,2.411,0.244c-1.501-0.524-3.103-0.869-4.78-0.869c-8.107,0-14.678,6.571-14.678,14.683
				c0,8.107,6.57,14.678,14.678,14.678c8.106,0,14.685-6.571,14.685-14.678c0-2.625-0.745-5.059-1.959-7.196
				C874.051,219.92,870.629,229.563,860.938,229.563z"/>
                <path fill-rule="evenodd" clip-rule="evenodd" fill="#C3391C" d="M865.33,202.535c-4.91-2.887-10.618-3.167-15.552-1.273
				c3.893-0.561,7.999,0.137,11.66,2.285c8.57,5.035,11.434,16.064,6.397,24.635c-2.148,3.661-5.396,6.268-9.076,7.672
				c5.231-0.75,10.089-3.773,12.976-8.689C876.77,218.599,873.901,207.57,865.33,202.535z"/>
                <path fill-rule="evenodd" clip-rule="evenodd" fill="#FFCAB8" d="M960.004,381.071c-4.977-0.214-0.816-4.047-4.977-3.679
				c-4.512,0.393-8.612,1.667-12.296,5.233c-1.744,1.677-3.477,1.998-5.583,2.147c-9.012,0.625-19.845-6.001-36.951-6.846
				c-5.784-0.291-11.38-1.725-17.248-2.213c-0.196,1.423-4.838,12.511-2.756,13.41c11.273,4.875,21.904,4.357,29.6,5.024
				c8.821,0.762,16.945-0.703,29.259,0c9.41,0.541,14.91-0.179,18.387,0.089c3.256,0.249,4.994-0.655,4.863-3.138
				c1.749-0.154,3.088-1.613,2.826-3.457c1.894-0.101,2.571-1.995,1.905-3.287c3.023-0.125,5.647-0.379,4.904-2.647
				C971.575,380.595,962.951,381.202,960.004,381.071z"/>
                <path fill-rule="evenodd" clip-rule="evenodd" fill="#FFC3AB" d="M960.004,381.071c-0.696-0.024-1.16-0.15-1.548-0.298
				c-1.763,2.084-4.464,3.178-7.379,3.512c-8.293,8.101-17.893,7.934-29.614,6.34c-7.296-0.996-12.985-1.663-20.17-3.125
				c-7.113-1.447-14.147-1.881-20.88-3.834c-0.744,2.668-1.144,5.059-0.22,5.458c11.273,4.875,21.904,4.357,29.6,5.024
				c8.821,0.762,16.945-0.703,29.259,0c9.41,0.541,14.91-0.179,18.387,0.089c3.256,0.249,4.994-0.655,4.863-3.138
				c1.749-0.154,3.088-1.613,2.826-3.457c1.894-0.101,2.571-1.995,1.905-3.287c3.023-0.125,5.647-0.379,4.904-2.647
				C971.575,380.595,962.951,381.202,960.004,381.071z"/>
                <path fill-rule="evenodd" clip-rule="evenodd" fill="#FFCAB8" d="M946.845,379.56l5.355,1.071
				c1.738-0.424,4.125-1.506,5.779-3.524c3.315-0.357,5.179-2.125,5.209-4.548c-4.061,1.565-6.055,1.828-7.793,2.121L946.845,379.56
				z"/>
                <g>
                    <g>
                        <path fill-rule="evenodd" clip-rule="evenodd" fill="#FFCAB8" d="M969.759,380.852c-3.398,0.143-4.221,0.189-7.601,0.611
						c-3.202,0.398-2.565,1.936-0.32,2.078c2.91,0.189,5.005,0.214,7.963-0.012c1.66-0.125,1.976-0.803,2.036-1.453
						C971.907,381.409,971.104,380.79,969.759,380.852z"/>
                        <path fill-rule="evenodd" clip-rule="evenodd" fill="#FFCAB8" d="M965.836,384.166c-3.379,0.167-6.517-0.042-9.916,0.143
						c-3.214,0.172-2.647,1.626-0.421,1.958c2.885,0.441,6.654,0.65,9.617,0.637c1.666,0,2.023-0.708,2.132-1.398
						C967.359,384.797,967.181,384.102,965.836,384.166z"/>
                        <path fill-rule="evenodd" clip-rule="evenodd" fill="#FFCAB8" d="M963.777,387.548c-3.041,0.017-5.655-0.341-8.708-0.311
						c-2.894,0.023-2.595,1.655-0.601,2.09c2.582,0.564,5.963,0.946,8.611,1.077c1.5,0.064,1.821-0.625,1.936-1.298
						C965.122,388.398,964.974,387.548,963.777,387.548z"/>
                        <path fill-rule="evenodd" clip-rule="evenodd" fill="#FFCAB8" d="M961.241,390.826c-3.035,0.019-4.554-0.064-7.605-0.037
						c-2.882,0.025-2.395,1.501-0.405,1.937c2.589,0.563,4.679,0.678,7.333,0.804c1.494,0.07,1.821-0.614,1.928-1.298
						C962.6,391.529,962.444,390.826,961.241,390.826z"/>
                    </g>
                </g>
                <path fill-rule="evenodd" clip-rule="evenodd" fill="#C3391C" d="M860.104,222.801c-8.82-1.958-23.713-2.148-33.408,12.607
				c-12.762,19.421-0.173,52.973,22.351,52.973c17.069,0,30.319-8.607,33.205-23.16
				C883.723,257.805,891.282,229.693,860.104,222.801z"/>
                <path fill-rule="evenodd" clip-rule="evenodd" fill="#FD4B1B" d="M870.408,275.315c-6.529,2.167-14.012,0.322-19.82-2.934
				c-5.625-3.154-10.559-8.63-12.138-15c-1.476-5.982-0.976-11.749,1.395-17.374c2.523-5.97,6.594-10.583,12.492-13.321
				c2.196-1.671,4.668-2.963,7.148-3.522c0.382-0.089,0.78-0.155,1.18-0.227c-0.19-0.041-0.363-0.095-0.561-0.137
				c-8.82-1.958-23.713-2.148-33.408,12.607c-12.762,19.421-0.173,52.973,22.351,52.973c15.795,0,28.295-7.38,32.373-20.005
				c-0.203,0.214-0.394,0.482-0.602,0.678C877.807,271.964,874.384,273.994,870.408,275.315z"/>
                <path fill-rule="evenodd" clip-rule="evenodd" fill="#FFCAB8" d="M885.65,314.391c-3.935-1.995-12.611-3.423-17.689-5.393
				c-8.791-3.411-7.254-11.137-5.23-22.022l-16.244-5.719c-1.554,11.582,1.124,24.832-10.826,21.552
				c-14.249-3.91-28.087,3.458-30.522,10.32l70.974,38.171c0,12.934,0.619,26.695,3.694,37.355l12.953-6.952
				C892.759,369.061,901.472,322.402,885.65,314.391z"/>
                <path fill-rule="evenodd" clip-rule="evenodd" fill="#FFCAB8" d="M783.829,369.939h14.303
				c7.679-7.999,25.523-48.134,25.523-48.134l-16.857-11.111C796.538,324.766,787.747,354.371,783.829,369.939z"/>
                <path fill-rule="evenodd" clip-rule="evenodd" fill="#FFC3AB" d="M783.829,369.939l3.43-1.021c-1.429-2.12,1.041-8.186,3.047-11
				c5.607-7.916,5.214-12.665,9.553-21.213c3.87-7.642,8.733-14.665,12.548-22.313l-5.608-3.697
				C796.538,324.766,787.747,354.371,783.829,369.939z"/>
                <path fill-rule="evenodd" clip-rule="evenodd" fill="#FFC3AB" d="M835.66,302.808c-7.856-2.155-13.444-2.292-17.624,1.137
				c3.351-1.047,7.023-1.339,10.137-0.953c4.79,0.583,8.576,5.357,12.725,5.863c7.679,0.946,16.387-9.267,20.772-15.874
				c0.293-1.88,0.661-3.881,1.061-6.006l-16.244-5.719C844.933,292.838,847.61,306.088,835.66,302.808z"/>
                <path fill-rule="evenodd" clip-rule="evenodd" fill="#FFC3AB" d="M883.176,352.912c-0.453,0.756-4.887,5.195-6.928,5.934
				c0.165,10.736,1.094,21.266,3.558,29.808l6.804-3.453c-1.911-7.368-2.792-16.23-3.005-24.254
				C883.532,358.174,883.354,355.512,883.176,352.912z"/>
                <path fill-rule="evenodd" clip-rule="evenodd" fill="#FFCAB8" d="M859.558,235.39c-5.887-1.036-10.499-0.405-14.076,1.398
				c-8.023,3.982-10.834,13.845-10.733,24.409c0,0.47,0,0.935,0.031,1.441c0.231,6.987,0.81,11.702,2.237,15.51
				c1.275,3.382,9.999,15.589,17.262,15.619c6.654,0,16.01-10.934,17.553-13.476c3.173-5.35,3.607-11.267,4.143-18.088
				C876.908,250.103,873.736,237.895,859.558,235.39z"/>
                <path fill-rule="evenodd" clip-rule="evenodd" fill="#FFC3AB" d="M845.481,236.788c-8.023,3.982-10.834,13.845-10.733,24.409
				c23.269-1.13,29.792-23.135,29.792-23.135C856.617,235.42,850.361,235.354,845.481,236.788z"/>
                <linearGradient id="SVGID_9_" gradientUnits="userSpaceOnUse" x1="802.0596" y1="437.0996" x2="920.8213" y2="437.0996">
                    <stop  offset="0" style="stop-color:#FB6B14"/>
                    <stop  offset="1" style="stop-color:#FDB522"/>
                </linearGradient>
                <path fill-rule="evenodd" clip-rule="evenodd" fill="url(#SVGID_9_)" d="M804.633,405.892
				c-15.798,57.716,45.698,55.752,60.954,62.417c8.713-10.684,33.873-49.759,55.234-45.771
				c-11.386-10.706-42.497-16.428-42.497-16.428C855.434,405.892,822.222,410.61,804.633,405.892z"/>
                <path fill-rule="evenodd" clip-rule="evenodd" fill="#FFB725" d="M896.233,417.223c-11.713,6.322-15.868,14.399-23.741,24.083
				c-4.168,5.132-10.108,19.099-17.059,16.665c-9.422-3.286-4.982-16.225-8.565-18.313c-3.513-2.048-17.624-1.013-21.237-3.881
				c-11.54-9.174-14.623-28.177-20.998-29.885c-15.798,57.716,45.698,55.752,60.954,62.417
				c8.713-10.684,33.873-49.759,55.234-45.771c-3.059-2.88-7.563-5.392-12.494-7.54
				C904.603,414.628,900.764,414.771,896.233,417.223z"/>
                <linearGradient id="SVGID_10_" gradientUnits="userSpaceOnUse" x1="804.4609" y1="357.9941" x2="897.6338" y2="357.9941">
                    <stop  offset="0" style="stop-color:#FB6B14"/>
                    <stop  offset="1" style="stop-color:#FDB522"/>
                </linearGradient>
                <path fill-rule="evenodd" clip-rule="evenodd" fill="url(#SVGID_10_)" d="M874.925,310.665l-20.309,6.35
				c0,0-13.844-9.874-20.908-16.266c0,0-18.914-2.613-27.695,7.005c-4.987,5.458,5.863,14.018,4.328,27.224
				c-2.584,22.255-6.928,55.372-5.649,71.319c1.221,15.069,74.192,9.563,76.02-0.966c1.161-6.719-3.797-6.679-4.482-18.737
				c-0.333-5.583-0.102-16.646,1.578-26.749c4.381-3.577,7.553-8.814,7.553-14.807c0-9.112,13.058-8.286,12.237-14.653
				C895.15,311.379,874.925,310.665,874.925,310.665z"/>
                <path fill-rule="evenodd" clip-rule="evenodd" fill="#FFB725" d="M854.616,317.015c0,0-13.844-9.874-20.908-16.266
				c0,0-18.914-2.613-27.695,7.005c-4.987,5.458,5.863,14.018,4.328,27.224c-2.584,22.255-6.928,55.372-5.649,71.319
				c0.959,11.824,50.027,10.914,69.329,4.218c-3.839-1.665-10.493-3.665-14.61-3.719c-17.036-0.232-26.405-7.589-35.827-14.784
				c-5.064-3.864-1.63-7.553,3.506-3.633c5.678,4.333,22.308,11.292,22.308,4.28c0-16.54,17.762-29.653,13.601-34.276
				c-4.975-5.543-11.285-21.124-1.76-23.844c4.492-1.28,5.355-4.525,5.278-5.37c-0.613-6.82,5.882-11.194,11.702-11.702
				c3.202-0.279,6.601-2.863,8.23-3.481c-5.75-3.09-11.523-3.321-11.523-3.321L854.616,317.015z M849.458,362.56
				c-7.09,1.197-17.316-6.167-20.415-4.13c-5.405,3.524-10.156,1.314-8.602-4.958c1.005-4.048-0.876-8.702-3.114-12.024
				c-1.701-2.511-2.79-6.922-0.868-8.248c2.144-2.441,8.231-1.09,9.809,2.631c2.995,7.087,16.482,19.183,22.554,21.052
				C850.98,357.549,855.819,361.488,849.458,362.56z"/>
                <g>
                    <g>
                        <g>
                            <path fill-rule="evenodd" clip-rule="evenodd" fill="#FFC3AB" d="M854.79,276.125c-1.929-0.006-3.81,0.762-3.945,1.101
							c-0.353,0.809,0.903,1.101,1.623,1.149c0.279,0.024,0.829,0.106,1.197,0.196c0.613,0.144,1.244,0.144,1.852,0
							c0.369-0.089,0.922-0.172,1.201-0.196c0.714-0.048,2.143-0.441,1.626-1.149C857.992,276.75,856.575,276.131,854.79,276.125z"
							/>
                        </g>
                    </g>
                </g>
                <path fill-rule="evenodd" clip-rule="evenodd" fill="#C3391C" d="M823.328,256.977c34.075,3.5,43.313-23.975,43.313-23.975
				C827.369,221.444,823.328,256.977,823.328,256.977z"/>
                <path fill-rule="evenodd" clip-rule="evenodd" fill="#FFCAB8" d="M860.688,377.68c-4.933-0.662-0.457-4.108-4.629-4.114
				c-4.524-0.013-8.596,1.059-12.72,4.114c-3.84,2.851-28.844-5.762-44.802-11.275c-5.47-1.897-8.969-0.856-13.873,2.405
				c-1.203,0.798-2.684,5.334,0.619,8.197c16.029,13.892,41.162,10.017,53.371,11.819c9.321,1.382,14.868,1.155,18.297,1.732
				c3.22,0.542,5.033-0.201,5.131-2.689c1.756,0,3.22-1.327,3.123-3.191c1.894,0.061,2.739-1.761,2.185-3.105
				c3.024,0.143,5.666,0.131,5.131-2.196C872.261,378.231,863.611,378.07,860.688,377.68z"/>
                <path fill-rule="evenodd" clip-rule="evenodd" fill="#FFC3AB" d="M863.153,380.327c-2.566,2.874-5.577,5.214-9.554,6.04
				c-2.953,0.619-14.881,1.317-21.159-1.325c-5.44-2.28-11.851-3.538-17.445-4.269c-8.231-1.083-14.606-4.333-22.421-7.291
				c-3.178-1.203-4.881-3.513-5.726-6.024c-0.982,0.279-1.489,0.887-2.185,1.351c-1.203,0.798-2.684,5.334,0.619,8.197
				c16.029,13.892,41.162,10.017,53.371,11.819c3.762,0.561,5.993-0.547,8.636-0.356c3.893,0.286,7.619,1.743,9.661,2.089
				c3.22,0.542,5.033-0.201,5.131-2.689c1.756,0,3.22-1.327,3.123-3.191c1.894,0.061,2.739-1.761,2.185-3.105
				c2.686,0.131,5.055,0.125,5.186-1.501C869.468,380.773,866.474,380.606,863.153,380.327z"/>
            </g>
        </g>
        <g>
            <path fill="#FFFFFF" d="M380.355,375.076h-35.95v6.353h35.95c1.756,0,3.178-1.417,3.178-3.172
			C383.533,376.5,382.111,375.076,380.355,375.076z"/>
            <path fill="#D0DDFD" d="M326.407,346.489l0.463,14.762l-11.481,13.825h35.177l11.511-11.54c1.304-1.303,1.953-3.119,1.774-4.952
			l-1.167-12.095H326.407z"/>
            <polygon fill="#333242" points="326.407,346.489 326.573,351.787 363.202,351.787 362.684,346.489 		"/>
            <g>
                <g>
                    <path fill="#333242" d="M345.732,375.076h-29.826l11.548-11.54c1.297-1.303,1.952-3.119,1.773-4.952l-1.167-12.095h-6.381
					l1.279,12.552l-11.689,11.69c-1.512,1.518-2.316,3.691-1.864,5.792c0.632,2.927,3.155,4.905,6.036,4.905h30.289
					c1.756,0,3.172-1.417,3.172-3.172C348.904,376.5,347.488,375.076,345.732,375.076z"/>
                </g>
            </g>
            <path fill="#D0DDFD" d="M417.4,220.962H253.786c-6.226,0-11.119,5.339-10.577,11.546l9.112,104.399
			c0.477,5.488,5.072,9.696,10.583,9.696h163.61c6.232,0,11.125-5.334,10.576-11.542l-9.112-104.398
			C427.501,225.176,422.912,220.962,417.4,220.962z"/>
            <path fill="#D0DDFD" d="M431.572,229.581c-0.928-4.964-5.286-8.625-10.41-8.625H257.559c-6.237,0-11.124,5.339-10.588,11.552
			l9.107,104.394c0.476,5.5,5.071,9.696,10.583,9.696h163.615c6.226,0,11.124-5.323,10.583-11.536l-9.125-104.392
			C431.703,230.294,431.65,229.938,431.572,229.581z"/>
            <path fill="#6F0871" d="M425.406,231.211c-0.184-2.214-2.011-3.886-4.238-3.886h-163.62c-1.632,0-2.673,0.863-3.137,1.375
			c-0.488,0.518-1.25,1.631-1.113,3.262l0.464,5.422l8.648,98.975c0.191,2.215,2.012,3.894,4.25,3.894h163.609
			c1.63,0,2.673-0.87,3.136-1.381c0.488-0.519,1.25-1.632,1.119-3.262l-8.57-98.227L425.406,231.211z"/>
            <path fill="#333242" d="M421.168,227.319H257.554c-1.625,0-2.667,0.869-3.137,1.381c-0.489,0.518-1.256,1.631-1.119,3.262
			l9.119,104.397c0.19,2.215,2.012,3.887,4.244,3.887h163.615c1.63,0,2.673-0.863,3.143-1.374c0.481-0.519,1.25-1.632,1.113-3.262
			l-9.119-104.399C425.228,228.997,423.4,227.319,421.168,227.319z"/>
            <g>
                <path fill="#FFB725" d="M421.168,227.325h-163.62c-1.632,0-2.673,0.863-3.137,1.375c-0.488,0.518-1.25,1.631-1.113,3.262
				l0.464,5.422h172.192l-0.548-6.173C425.222,228.997,423.395,227.325,421.168,227.325z"/>
                <linearGradient id="SVGID_11_" gradientUnits="userSpaceOnUse" x1="290.2002" y1="232.3516" x2="387.3311" y2="232.3516">
                    <stop  offset="2.500000e-007" style="stop-color:#EFF6FF"/>
                    <stop  offset="1" style="stop-color:#8AA8DA"/>
                </linearGradient>
                <polygon fill="url(#SVGID_11_)" points="290.2,229.729 290.741,234.974 387.331,234.974 386.783,229.729 			"/>
                <g>
                    <g>
                        <g>
                            <path fill="#FFFFFF" d="M420.954,230.729l-3.292,3.613c-0.131,0.137-0.107,0.37,0.047,0.506c0.149,0.142,0.375,0.142,0.506,0
							l3.298-3.607c0.125-0.143,0.106-0.369-0.047-0.512C421.311,230.592,421.084,230.592,420.954,230.729z"/>
                            <path fill="#FFFFFF" d="M417.859,230.729c-0.155-0.137-0.387-0.137-0.512,0c-0.131,0.144-0.107,0.37,0.042,0.512l3.928,3.607
							c0.149,0.142,0.381,0.142,0.506,0c0.13-0.137,0.106-0.37-0.042-0.506L417.859,230.729z"/>
                        </g>
                        <g>
                            <path fill="#FFFFFF" d="M412.198,230.36c-1.339,0-2.333,1.089-2.214,2.434c0.113,1.339,1.297,2.429,2.644,2.429
							c1.345,0,2.338-1.089,2.22-2.429C414.734,231.45,413.544,230.36,412.198,230.36z M412.58,234.669
							c-1.036,0-1.958-0.84-2.048-1.875c-0.089-1.042,0.678-1.887,1.721-1.887c1.035,0,1.952,0.845,2.048,1.887
							C414.389,233.83,413.615,234.669,412.58,234.669z"/>
                        </g>
                        <g>
                            <path fill="#FFFFFF" d="M403.188,234.289c-0.155,0-0.274,0.119-0.257,0.273c0.019,0.155,0.149,0.274,0.304,0.274h4.38
							c0.155,0,0.268-0.119,0.25-0.274c-0.005-0.155-0.142-0.273-0.297-0.273H403.188z"/>
                        </g>
                    </g>
                    <g>
                        <g>
                            <path fill="#FFFFFF" d="M261.13,234.134c-0.149,0-0.262,0.119-0.25,0.273c0.018,0.155,0.148,0.273,0.297,0.273h4.393
							c0.149,0,0.255-0.119,0.244-0.273c-0.012-0.155-0.144-0.273-0.298-0.273H261.13z"/>
                        </g>
                    </g>
                    <g>
                        <g>
                            <path fill="#FFFFFF" d="M260.994,232.521c-0.155,0-0.268,0.119-0.25,0.273c0.011,0.149,0.142,0.273,0.297,0.273h4.38
							c0.154,0,0.268-0.125,0.25-0.273c-0.006-0.155-0.143-0.273-0.297-0.273H260.994z"/>
                        </g>
                    </g>
                    <g>
                        <g>
                            <path fill="#FFFFFF" d="M260.851,230.901c-0.155,0-0.262,0.125-0.25,0.274c0.012,0.154,0.144,0.274,0.298,0.274h4.386
							c0.155,0,0.262-0.12,0.25-0.274c-0.012-0.148-0.143-0.274-0.297-0.274H260.851z"/>
                        </g>
                    </g>
                </g>
            </g>
            <g>
                <linearGradient id="SVGID_12_" gradientUnits="userSpaceOnUse" x1="274.4844" y1="251.3438" x2="380.2632" y2="251.3438">
                    <stop  offset="2.500000e-007" style="stop-color:#EFF6FF"/>
                    <stop  offset="1" style="stop-color:#8AA8DA"/>
                </linearGradient>
                <path fill="url(#SVGID_12_)" d="M378.891,250.067H275.678c-0.697,0-1.233,0.577-1.191,1.273c0.054,0.702,0.667,1.28,1.37,1.28
				H379.07c0.702,0,1.238-0.578,1.19-1.28C380.207,250.644,379.593,250.067,378.891,250.067z"/>
                <linearGradient id="SVGID_13_" gradientUnits="userSpaceOnUse" x1="256.002" y1="243.1777" x2="325.0166" y2="243.1777">
                    <stop  offset="2.500000e-007" style="stop-color:#EFF6FF"/>
                    <stop  offset="1" style="stop-color:#8AA8DA"/>
                </linearGradient>
                <path fill="url(#SVGID_13_)" d="M323.264,241.539H257.53c-0.899,0-1.583,0.738-1.524,1.642c0.065,0.898,0.852,1.637,1.756,1.637
				h65.728c0.898,0,1.583-0.738,1.523-1.637C324.948,242.276,324.162,241.539,323.264,241.539z"/>
                <linearGradient id="SVGID_14_" gradientUnits="userSpaceOnUse" x1="256.5742" y1="251.3438" x2="265.7583" y2="251.3438">
                    <stop  offset="2.500000e-007" style="stop-color:#EFF6FF"/>
                    <stop  offset="1" style="stop-color:#8AA8DA"/>
                </linearGradient>
                <path fill="url(#SVGID_14_)" d="M264.392,250.067h-6.625c-0.702,0-1.237,0.577-1.19,1.273c0.053,0.702,0.661,1.28,1.369,1.28
				h6.625c0.696,0,1.232-0.578,1.185-1.28C265.708,250.644,265.095,250.067,264.392,250.067z"/>
                <path fill="#40C8CB" d="M312.05,258.031H258.91c-0.439,0-0.773,0.357-0.744,0.792c0.037,0.434,0.417,0.792,0.851,0.792h53.152
				c0.435,0,0.762-0.357,0.732-0.792C312.872,258.388,312.49,258.031,312.05,258.031z"/>
                <path fill="#40C8CB" d="M312.502,264.495h-53.146c-0.434,0-0.768,0.351-0.731,0.791c0.029,0.435,0.41,0.792,0.845,0.792h53.145
				c0.441,0,0.768-0.357,0.738-0.792C313.324,264.846,312.937,264.495,312.502,264.495z"/>
                <path fill="#40C8CB" d="M312.955,270.953H259.81c-0.435,0-0.769,0.357-0.738,0.792c0.029,0.44,0.41,0.792,0.851,0.792h53.145
				c0.435,0,0.768-0.352,0.732-0.792C313.771,271.31,313.39,270.953,312.955,270.953z"/>
                <path fill="#40C8CB" d="M313.407,277.417h-53.146c-0.434,0-0.767,0.357-0.738,0.792c0.03,0.435,0.41,0.792,0.845,0.792h53.145
				c0.44,0,0.774-0.357,0.738-0.792C314.228,277.774,313.841,277.417,313.407,277.417z"/>
                <path fill="#40C8CB" d="M268.82,283.88h-8.106c-0.44,0-0.768,0.351-0.738,0.792c0.03,0.434,0.411,0.791,0.845,0.791h8.112
				c0.435,0,0.769-0.357,0.738-0.791C269.636,284.231,269.255,283.88,268.82,283.88z"/>
                <path fill="#40C8CB" d="M282.974,283.88h-8.106c-0.434,0-0.767,0.351-0.738,0.792c0.03,0.434,0.411,0.791,0.851,0.791h8.106
				c0.435,0,0.768-0.357,0.738-0.791C283.795,284.231,283.415,283.88,282.974,283.88z"/>
                <path fill="#40C8CB" d="M297.128,283.88h-8.106c-0.44,0-0.768,0.351-0.744,0.792c0.036,0.434,0.417,0.791,0.851,0.791h8.106
				c0.441,0,0.769-0.357,0.744-0.791C297.95,284.231,297.563,283.88,297.128,283.88z"/>
                <path fill="#40C8CB" d="M311.282,283.88h-8.107c-0.441,0-0.768,0.351-0.738,0.792c0.03,0.434,0.411,0.791,0.846,0.791h8.112
				c0.435,0,0.768-0.357,0.732-0.791C312.098,284.231,311.717,283.88,311.282,283.88z"/>
                <path fill="#40C8CB" d="M325.43,283.88h-8.106c-0.428,0-0.762,0.351-0.738,0.792c0.035,0.434,0.416,0.791,0.851,0.791h8.106
				c0.44,0,0.774-0.357,0.744-0.791C326.251,284.231,325.871,283.88,325.43,283.88z"/>
                <path fill="#40C8CB" d="M339.59,283.88h-8.112c-0.436,0-0.769,0.351-0.738,0.792c0.035,0.434,0.416,0.791,0.851,0.791h8.106
				c0.441,0,0.768-0.357,0.738-0.791C340.406,284.231,340.025,283.88,339.59,283.88z"/>
                <path fill="#40C8CB" d="M314.312,290.338h-53.146c-0.435,0-0.769,0.357-0.745,0.797c0.036,0.435,0.417,0.792,0.851,0.792h53.146
				c0.44,0,0.768-0.357,0.738-0.792C315.126,290.695,314.746,290.338,314.312,290.338z"/>
                <path fill="#40C8CB" d="M422.055,268.227h-65.186c-0.607,0-1.066,0.5-1.024,1.107c0.042,0.607,0.572,1.107,1.179,1.107h65.187
				c0.607,0,1.071-0.5,1.029-1.107C423.198,268.727,422.662,268.227,422.055,268.227z"/>
                <path fill="#86C0F0" d="M422.733,277.899h-65.186c-0.608,0-1.071,0.5-1.024,1.102c0.036,0.607,0.571,1.106,1.179,1.106h65.186
				c0.607,0,1.071-0.5,1.023-1.106C423.87,278.399,423.341,277.899,422.733,277.899z"/>
                <path fill="#86C0F0" d="M423.365,286.952h-65.181c-0.612,0-1.071,0.5-1.035,1.106c0.047,0.601,0.578,1.102,1.19,1.102h65.181
				c0.601,0,1.072-0.5,1.023-1.102C424.507,287.452,423.972,286.952,423.365,286.952z"/>
                <path fill="#86C0F0" d="M423.996,296.004h-65.181c-0.607,0-1.077,0.5-1.035,1.108c0.047,0.607,0.578,1.106,1.19,1.106h65.181
				c0.613,0,1.071-0.499,1.029-1.106C425.138,296.505,424.603,296.004,423.996,296.004z"/>
                <path fill="#86C0F0" d="M424.626,305.064h-65.187c-0.601,0-1.065,0.494-1.023,1.101c0.041,0.608,0.577,1.107,1.183,1.107h65.181
				c0.607,0,1.077-0.5,1.03-1.107C425.769,305.558,425.233,305.064,424.626,305.064z"/>
                <path fill="#86C0F0" d="M393.568,314.116h-33.492c-0.613,0-1.071,0.495-1.029,1.102c0.047,0.614,0.577,1.107,1.184,1.107h33.498
				c0.601,0,1.065-0.493,1.023-1.107C394.711,314.611,394.175,314.116,393.568,314.116z"/>
                <path fill="#86C0F0" d="M415.9,320.276h-33.492c-0.612,0-1.071,0.5-1.029,1.108s0.572,1.107,1.185,1.107h33.492
				c0.607,0,1.071-0.5,1.024-1.107C417.043,320.776,416.501,320.276,415.9,320.276z"/>
                <path fill="#86C0F0" d="M416.341,326.663h-33.492c-0.607,0-1.066,0.494-1.024,1.107c0.036,0.608,0.578,1.108,1.179,1.108h33.492
				c0.613,0,1.072-0.5,1.03-1.108C417.483,327.157,416.954,326.663,416.341,326.663z"/>
                <path fill="#86C0F0" d="M287.558,326.663h-15.612c-0.607,0-1.072,0.494-1.03,1.107c0.042,0.608,0.578,1.108,1.185,1.108h15.613
				c0.613,0,1.071-0.5,1.023-1.108C288.7,327.157,288.165,326.663,287.558,326.663z"/>
                <path fill="#86C0F0" d="M287.188,321.384h-15.612c-0.607,0-1.072,0.5-1.03,1.107c0.047,0.606,0.577,1.1,1.184,1.1h15.612
				c0.607,0,1.072-0.494,1.03-1.1C288.325,321.884,287.795,321.384,287.188,321.384z"/>
                <path fill="#86C0F0" d="M286.82,316.105h-15.613c-0.607,0-1.071,0.5-1.023,1.107c0.042,0.612,0.572,1.106,1.179,1.106h15.613
				c0.607,0,1.071-0.494,1.03-1.106C287.962,316.605,287.427,316.105,286.82,316.105z"/>
                <path fill="#86C0F0" d="M286.45,310.831h-15.606c-0.612,0-1.077,0.494-1.035,1.107c0.047,0.607,0.577,1.101,1.19,1.101h15.612
				c0.601,0,1.066-0.494,1.023-1.101C287.593,311.325,287.057,310.831,286.45,310.831z"/>
                <path fill="#86C0F0" d="M301.2,310.831h-4.744c-0.613,0-1.072,0.494-1.03,1.107c0.042,0.607,0.572,1.101,1.184,1.101h4.738
				c0.614,0,1.072-0.494,1.031-1.101C302.336,311.325,301.807,310.831,301.2,310.831z"/>
                <path fill="#86C0F0" d="M302.009,322.498h-4.737c-0.614,0-1.072,0.5-1.03,1.107c0.048,0.612,0.571,1.105,1.184,1.105h4.738
				c0.613,0,1.072-0.494,1.03-1.105C303.151,322.997,302.622,322.498,302.009,322.498z"/>
            </g>
            <g opacity="0.17">
                <polygon fill="#FFFFFF" points="369.486,346.598 389.664,346.598 437.482,296.541 435.768,276.774 			"/>
                <path fill="#FFFFFF" d="M421.162,220.956h-35.248L267.505,346.598h53.729l110.338-117.017
				C430.644,224.617,426.287,220.956,421.162,220.956z"/>
                <polygon fill="#FFFFFF" points="249.72,264.025 253.809,310.813 337.375,220.956 289.771,220.956 			"/>
            </g>
        </g>
        <g>
            <linearGradient id="SVGID_15_" gradientUnits="userSpaceOnUse" x1="782.1553" y1="610.2832" x2="782.1553" y2="405.7305">
                <stop  offset="2.500000e-007" style="stop-color:#EFF6FF"/>
                <stop  offset="1" style="stop-color:#8AA8DA"/>
            </linearGradient>
            <rect x="777.563" y="405.73" fill="url(#SVGID_15_)" width="9.183" height="204.553"/>
            <rect x="774.522" y="405.73" fill="#D0DDFD" width="3.041" height="204.553"/>
            <linearGradient id="SVGID_16_" gradientUnits="userSpaceOnUse" x1="1092.9541" y1="610.2832" x2="1092.9541" y2="405.7305">
                <stop  offset="2.500000e-007" style="stop-color:#EFF6FF"/>
                <stop  offset="1" style="stop-color:#8AA8DA"/>
            </linearGradient>
            <rect x="1088.358" y="405.73" fill="url(#SVGID_16_)" width="9.19" height="204.553"/>
            <rect x="1085.329" y="405.73" fill="#D0DDFD" width="3.029" height="204.553"/>
            <rect x="1014.894" y="405.73" fill="#D0DDFD" width="3.035" height="204.553"/>
            <linearGradient id="SVGID_17_" gradientUnits="userSpaceOnUse" x1="715.2114" y1="610.2832" x2="715.2114" y2="405.7305">
                <stop  offset="2.500000e-007" style="stop-color:#EFF6FF"/>
                <stop  offset="1" style="stop-color:#8AA8DA"/>
            </linearGradient>
            <rect x="710.619" y="405.73" fill="url(#SVGID_17_)" width="9.185" height="204.553"/>
            <linearGradient id="SVGID_18_" gradientUnits="userSpaceOnUse" x1="1022.375" y1="610.2832" x2="1022.375" y2="405.7305">
                <stop  offset="2.500000e-007" style="stop-color:#EFF6FF"/>
                <stop  offset="1" style="stop-color:#8AA8DA"/>
            </linearGradient>
            <rect x="1017.78" y="405.73" fill="url(#SVGID_18_)" width="9.189" height="204.553"/>
            <rect x="707.591" y="405.73" fill="#D0DDFD" width="3.028" height="204.553"/>
            <linearGradient id="SVGID_19_" gradientUnits="userSpaceOnUse" x1="724.7202" y1="387.9209" x2="1139.3906" y2="387.9209">
                <stop  offset="2.500000e-007" style="stop-color:#EFF6FF"/>
                <stop  offset="1" style="stop-color:#8AA8DA"/>
            </linearGradient>
            <rect x="724.72" y="381.403" fill="url(#SVGID_19_)" width="414.67" height="13.035"/>
            <linearGradient id="SVGID_20_" gradientUnits="userSpaceOnUse" x1="660.0464" y1="387.9209" x2="724.7202" y2="387.9209">
                <stop  offset="1.500000e-007" style="stop-color:#EFF6FF"/>
                <stop  offset="1" style="stop-color:#C4D8FB"/>
            </linearGradient>
            <rect x="660.046" y="381.403" fill="url(#SVGID_20_)" width="64.674" height="13.035"/>
            <linearGradient id="SVGID_21_" gradientUnits="userSpaceOnUse" x1="739.5234" y1="400.7832" x2="1113.1611" y2="400.7832">
                <stop  offset="2.500000e-007" style="stop-color:#EFF6FF"/>
                <stop  offset="1" style="stop-color:#8AA8DA"/>
            </linearGradient>
            <rect x="739.523" y="394.266" fill="url(#SVGID_21_)" width="373.638" height="13.035"/>
            <linearGradient id="SVGID_22_" gradientUnits="userSpaceOnUse" x1="688.1699" y1="400.7832" x2="744.3867" y2="400.7832">
                <stop  offset="1.500000e-007" style="stop-color:#EFF6FF"/>
                <stop  offset="1" style="stop-color:#C4D8FB"/>
            </linearGradient>
            <rect x="688.17" y="394.266" fill="url(#SVGID_22_)" width="56.217" height="13.035"/>
        </g>
        <g>
            <linearGradient id="SVGID_23_" gradientUnits="userSpaceOnUse" x1="289.3872" y1="507.0361" x2="289.3872" y2="610.7994">
                <stop  offset="0" style="stop-color:#8AA8DA"/>
                <stop  offset="1" style="stop-color:#EFF6FF"/>
            </linearGradient>
            <rect x="284.795" y="405.73" fill="url(#SVGID_23_)" width="9.184" height="204.553"/>
            <rect x="281.76" y="405.73" fill="#D0DDFD" width="3.035" height="204.553"/>
            <linearGradient id="SVGID_24_" gradientUnits="userSpaceOnUse" x1="600.1836" y1="507.0361" x2="600.1836" y2="610.7994">
                <stop  offset="0" style="stop-color:#8AA8DA"/>
                <stop  offset="1" style="stop-color:#EFF6FF"/>
            </linearGradient>
            <rect x="595.591" y="405.73" fill="url(#SVGID_24_)" width="9.185" height="204.553"/>
            <rect x="592.556" y="405.73" fill="#D0DDFD" width="3.036" height="204.553"/>
            <rect x="522.126" y="405.73" fill="#D0DDFD" width="3.036" height="204.553"/>
            <linearGradient id="SVGID_25_" gradientUnits="userSpaceOnUse" x1="222.4458" y1="507.0361" x2="222.4458" y2="610.7994">
                <stop  offset="0" style="stop-color:#8AA8DA"/>
                <stop  offset="1" style="stop-color:#EFF6FF"/>
            </linearGradient>
            <rect x="217.854" y="405.73" fill="url(#SVGID_25_)" width="9.184" height="204.553"/>
            <linearGradient id="SVGID_26_" gradientUnits="userSpaceOnUse" x1="529.6079" y1="507.0361" x2="529.6079" y2="610.7994">
                <stop  offset="0" style="stop-color:#8AA8DA"/>
                <stop  offset="1" style="stop-color:#EFF6FF"/>
            </linearGradient>
            <rect x="525.013" y="405.73" fill="url(#SVGID_26_)" width="9.189" height="204.553"/>
            <rect x="214.824" y="405.73" fill="#D0DDFD" width="3.03" height="204.553"/>
            <linearGradient id="SVGID_27_" gradientUnits="userSpaceOnUse" x1="231.9595" y1="387.9209" x2="646.624" y2="387.9209">
                <stop  offset="2.500000e-007" style="stop-color:#EFF6FF"/>
                <stop  offset="1" style="stop-color:#8AA8DA"/>
            </linearGradient>
            <rect x="231.959" y="381.403" fill="url(#SVGID_27_)" width="414.665" height="13.035"/>
            <linearGradient id="SVGID_28_" gradientUnits="userSpaceOnUse" x1="167.2852" y1="387.9209" x2="231.9595" y2="387.9209">
                <stop  offset="1.500000e-007" style="stop-color:#EFF6FF"/>
                <stop  offset="1" style="stop-color:#C4D8FB"/>
            </linearGradient>
            <rect x="167.285" y="381.403" fill="url(#SVGID_28_)" width="64.674" height="13.035"/>
            <linearGradient id="SVGID_29_" gradientUnits="userSpaceOnUse" x1="246.7559" y1="400.7832" x2="620.3945" y2="400.7832">
                <stop  offset="2.500000e-007" style="stop-color:#EFF6FF"/>
                <stop  offset="1" style="stop-color:#8AA8DA"/>
            </linearGradient>
            <rect x="246.756" y="394.266" fill="url(#SVGID_29_)" width="373.639" height="13.035"/>
            <linearGradient id="SVGID_30_" gradientUnits="userSpaceOnUse" x1="195.4023" y1="400.7832" x2="251.6191" y2="400.7832">
                <stop  offset="1.500000e-007" style="stop-color:#EFF6FF"/>
                <stop  offset="1" style="stop-color:#C4D8FB"/>
            </linearGradient>
            <rect x="195.402" y="394.266" fill="url(#SVGID_30_)" width="56.217" height="13.035"/>
        </g>
        <g>
            <path fill="#FFFFFF" d="M1069.372,219.432H901.168c-5.666,0-10.387,4.334-10.875,9.97l-9.367,107.333
			c-0.561,6.375,4.471,11.869,10.874,11.869h168.203c5.661,0,10.387-4.335,10.876-9.971l9.366-107.333
			C1080.806,224.92,1075.775,219.432,1069.372,219.432z"/>
            <path fill="#0D5BD9" d="M1073.646,219.426H905.454c-5.274,0-9.749,3.762-10.703,8.862c-0.083,0.37-9.553,108.446-9.553,108.446
			c-0.547,6.387,4.483,11.855,10.887,11.855h168.198c5.672,0,10.387-4.309,10.887-9.969l9.36-107.321
			C1085.08,224.914,1080.05,219.426,1073.646,219.426z"/>
            <path fill="#0A429F" d="M1054.248,248.55H942.313c-1.803,0-3.356,1.25-3.736,2.987c-0.281,2.97-6.25,70.955-6.334,71.959
			c-0.095,1.09,0.258,2.125,0.994,2.929c0.739,0.803,1.749,1.244,2.846,1.244h111.939c2.006,0,3.655-1.506,3.833-3.512l6.231-71.418
			c0.095-1.088-0.263-2.136-0.999-2.94C1056.349,248.996,1055.338,248.55,1054.248,248.55z"/>
            <path fill="#FFFFFF" d="M969.015,325.884h6.56c0,0,3.958-15.274,18.088-15.274C993.662,310.61,976.466,306.844,969.015,325.884z"
			/>
            <path fill="#0D5BD9" d="M1032.124,374.875h-36.956v6.528h36.956c1.804,0,3.268-1.457,3.268-3.261
			C1035.392,376.339,1033.928,374.875,1032.124,374.875z"/>
            <linearGradient id="SVGID_31_" gradientUnits="userSpaceOnUse" x1="965.3369" y1="342.7427" x2="1015.1895" y2="342.7427">
                <stop  offset="2.500000e-007" style="stop-color:#EFF6FF"/>
                <stop  offset="1" style="stop-color:#8AA8DA"/>
            </linearGradient>
            <path fill="url(#SVGID_31_)" d="M993.662,310.61c-10.982,0-19.545,9.488-18.44,20.411l2.816,27.521l-12.701,16.333h36.159
			l11.838-11.869c1.339-1.339,2.006-3.203,1.827-5.083l-3.054-30.624C1011.155,317.824,1003.187,310.61,993.662,310.61z"/>
            <g>
                <path fill="#FFFFFF" d="M996.524,374.875h-30.658l11.869-11.869c1.34-1.339,2.006-3.203,1.819-5.083l-4.141-32.039h-6.399
				l4.102,32.51l-12.018,12.011c-1.554,1.565-2.38,3.803-1.911,5.951c0.645,3.013,3.245,5.047,6.202,5.047h31.135
				c1.805,0,3.263-1.457,3.263-3.261C999.787,376.339,998.329,374.875,996.524,374.875z"/>
            </g>
            <path fill="#0D5BD9" d="M993.662,322.492c-3.887,0-7.034,3.153-7.034,7.034c0,3.887,3.147,7.042,7.034,7.042
			c3.886,0,7.041-3.155,7.041-7.042C1000.703,325.645,997.548,322.492,993.662,322.492z"/>
        </g>
        <g>
            <g>
                <path fill="#FFCAB8" d="M455.702,560.167c-0.125-0.833-17.541,4.273-17.88,9.78c-0.292,4.7,3.203,12.212-0.149,17.265
				c-3.863,5.804-20.189,13.149-28.194,14.321c-0.411,1.186,0.976,2.179,2.16,2.578c5.923,2.006,12.375,1.131,18.594,0.482
				c7.202-0.75,14.445-1.161,21.689-1.232c3.226-0.037,7.046-0.322,8.684-3.101c1.22-2.073,0.66-4.673,0.381-7.066
				C460.112,585.92,456.744,567.423,455.702,560.167z"/>
                <path fill="#FFC3AB" d="M455.702,560.167c-0.06-0.411-8.505,4.887-12.534,4.286c0.268,0.512,5.094,5.499,5.321,6.041
				c6.463,15.683-3.411,27.842-16.69,33.98c6.69-0.656,13.404-1.049,20.124-1.113c3.226-0.037,7.046-0.322,8.684-3.101
				c1.22-2.073,0.66-4.673,0.381-7.066C460.112,585.92,456.744,567.423,455.702,560.167z"/>
                <path fill="#FD4B1B" d="M460.856,589.844c-2.012-1.505-14.85,8.417-29.576,8.417c0-1.953-1.857-5.269-4.285-4.428
				c-6.476,2.243-17.868,6.313-19.147,6.849c-4.132,1.727-2.507,8.672-0.066,8.672c2.023,0,15.355,0,22.855,0
				c4.351,0,11.291-3.998,18.296-3.998c7.833,0,10.148-0.262,11.113-0.697C467.457,601.324,464.583,592.616,460.856,589.844z"/>
                <path fill="#C3391C" d="M448.327,600.836c-5.214,0.275-21.594,2.257-24.361,3.002c-3.929,1.058-8.268,1.113-12.214,0.033
				c-1.916-0.521-3.625-1.33-5.148-2.349c-2.477,2.47-0.977,7.831,1.178,7.831h22.855c4.351,0,11.291-3.998,18.296-3.998
				c7.833,0,10.148-0.262,11.113-0.697c5.839-2.631,5.261-8.554,2.947-12.326C459.927,597.432,454.683,600.504,448.327,600.836z"/>
                <path fill="#C3391C" d="M446.322,609.354h14.379l3.613-9.207l-17,4.886C447.679,606.765,446.322,609.354,446.322,609.354z"/>
            </g>
            <path fill="#333242" d="M451.309,423.943c0,0-47.849,1.061-63.99,24.701c-9.356,13.725,42.522,117.564,49.759,134.146
			c11.208,2.106,17.969-0.125,24.284-4.487c-6.041-33.35-15.41-101.839-25.045-119.497
			C430.477,448.097,451.006,436.122,451.309,423.943z"/>
            <g>
                <path fill="#FFCAB8" d="M405.884,571.244c-0.12-0.834-16.487-5.477-16.827,0.029c-0.292,4.703,4.946,11.981,0.833,15.713
				c-4.72,4.285-22.219,13.375-30.23,14.547c-0.411,1.186,0.976,2.179,2.161,2.578c5.922,2.006,12.374,1.131,18.594,0.482
				c7.201-0.75,14.445-1.161,21.695-1.232c3.22-0.037,7.042-0.322,8.684-3.101c1.22-2.073,0.66-4.673,0.375-7.066
				C410.293,585.92,406.925,578.504,405.884,571.244z"/>
                <path fill="#FFC3AB" d="M405.884,571.244c-0.06-0.405-3.952-1.702-7.982-2.31c0.262,0.519,0.548,1.018,0.768,1.56
				c6.47,15.683-3.41,27.842-16.689,33.98c6.696-0.656,13.404-1.049,20.13-1.113c3.22-0.037,7.042-0.322,8.684-3.101
				c1.22-2.073,0.66-4.673,0.375-7.066C410.293,585.92,406.925,578.504,405.884,571.244z"/>
                <path fill="#FD4B1B" d="M411.044,589.844c-2.018-1.505-14.85,8.417-29.576,8.417c0-1.953-1.857-5.269-4.286-4.428
				c-6.476,2.243-17.874,6.313-19.148,6.849c-4.136,1.727-2.517,8.672-0.071,8.672c2.024,0,15.362,0,22.856,0
				c4.357,0,11.297-3.998,18.303-3.998c7.821,0,10.142-0.262,11.112-0.697C417.639,601.324,414.764,592.616,411.044,589.844z"/>
                <path fill="#C3391C" d="M398.508,600.836c-5.208,0.275-21.593,2.257-24.355,3.002c-3.928,1.058-8.273,1.113-12.213,0.033
				c-1.922-0.521-3.63-1.33-5.148-2.349c-2.482,2.47-0.976,7.831,1.172,7.831h22.856c4.357,0,11.297-3.998,18.303-3.998
				c7.821,0,10.142-0.262,11.112-0.697c5.839-2.631,5.262-8.554,2.941-12.326C410.109,597.432,404.866,600.504,398.508,600.836z"/>
                <path fill="#C3391C" d="M396.509,609.354h14.375l3.618-9.207l-17.005,4.886C397.86,606.765,396.509,609.354,396.509,609.354z"/>
            </g>
            <path fill="#42445D" d="M396.765,415.194c0,0-63.806,6.369-63.806,41.164c0,16.833,47.473,117.641,52.33,129.486
			c9.785,3.803,21.451-0.965,26.754-6.191c-1.75-4.606-25.695-96.036-31.611-118.795
			C377.314,448.828,396.462,427.599,396.765,415.194z"/>
            <path fill="#42445D" d="M450.411,410.493c-39.641,0-67.771,5.927-79.013,10.022c-17.368,6.333-33.153,43.747,14.165,48.169
			c8.458,0.793,50.634,0,62.235,0c76.579,0,76.828-13.172,76.828-25.177C524.625,431.496,490.045,410.493,450.411,410.493z"/>
            <path fill="#FFB725" d="M371.29,350.574c-3.172,8.111,7.214,19.909,10.952,18.403c36.682-14.79,61.532-44.217,61.532-44.217
			l-16.005-30.951C427.769,293.809,374.463,342.46,371.29,350.574z"/>
            <linearGradient id="SVGID_32_" gradientUnits="userSpaceOnUse" x1="373.4219" y1="340.6836" x2="443.7744" y2="340.6836">
                <stop  offset="0" style="stop-color:#FB6B14"/>
                <stop  offset="1" style="stop-color:#FDB522"/>
            </linearGradient>
            <path fill="url(#SVGID_32_)" d="M384.307,360.222c-3.541,1.392-7.237,2.035-10.885,2.006c2.719,4.386,6.767,7.576,8.82,6.749
			c36.682-14.79,61.532-44.217,61.532-44.217l-8.512-12.5C424.258,333.413,405.835,351.782,384.307,360.222z"/>
            <linearGradient id="SVGID_33_" gradientUnits="userSpaceOnUse" x1="507.0439" y1="329.6694" x2="590.645" y2="329.6694">
                <stop  offset="0" style="stop-color:#FB6B14"/>
                <stop  offset="1" style="stop-color:#FDB522"/>
            </linearGradient>
            <path fill="url(#SVGID_33_)" d="M521.983,291.202l-14.939,38.921c0,0,50.062,38.015,72.144,38.015
			c5.935,0,18.606-8.951,6.202-21.272C579.206,340.728,521.983,291.202,521.983,291.202z"/>
            <path fill="#FFB725" d="M477.563,279.333c-22.736,0-50.86,9.19-50.258,16.458c6.273,75.072-1.351,115.165-1.351,115.165
			c8.684,9.464,23.635,18.54,35.628,23.213c28.564,11.04,60.323,10.457,65.573,7.488c0.453-0.257,0.697-0.543,0.745-0.786
			c0.993-5.667,2.314-136.771-0.048-142.557C527.691,297.855,521.091,279.333,477.563,279.333z"/>
            <linearGradient id="SVGID_34_" gradientUnits="userSpaceOnUse" x1="461.582" y1="362.6719" x2="529.1768" y2="362.6719">
                <stop  offset="0" style="stop-color:#FB6B14"/>
                <stop  offset="1" style="stop-color:#FDB522"/>
            </linearGradient>
            <path fill="url(#SVGID_34_)" d="M527.239,296.986c-0.208-0.452-0.458-0.862-0.75-1.279c-0.286-0.417-0.571-0.827-0.905-1.238
			c-0.292-0.375-12.499-12.629-24.813-12.629c24.438,15.796,13.319,68.157,5.916,91.803c-6.363,20.171-14.387,35.099-30.219,49.445
			c-4.714,4.261-9.636,8.021-14.886,11.082c28.564,11.04,60.323,10.457,65.573,7.488c0.453-0.257,0.697-0.543,0.745-0.786
			c0.993-5.667,2.314-136.771-0.048-142.557C527.691,297.855,527.483,297.404,527.239,296.986z"/>
            <path fill-rule="evenodd" clip-rule="evenodd" fill="#FFCAB8" d="M299.932,370.238c-3.964-1.47-9.267,0.494-13.017,1.685
			c-2.214,0.708-6.69,1.903-7.869,3.393c-1.101,1.367-0.137,4.041,2.602,3.024c6.618-2.465,16.642,4.582,23.7,2.23
			c1.167-0.392,11.125-4.671,12.214-4.987c-1.089-2.256-4.285-7.935-4.696-10.279C311.58,365.662,301.723,370.905,299.932,370.238z"
			/>
            <path fill="#FFC3AB" d="M484.325,208.284c-4.095-3.273-9.505-4.619-14.755-4.482c-5.244,0.138-10.362,1.655-15.237,3.583
			c-3.619,1.429-14.726,8.167-11.512,32.332c0.744,5.612,3.042,21.504,6.059,26.302c4.87,7.72,15.874,11.893,24.266,8.333
			c27.034-11.458,21.076-44.312,19.779-50.282C491.628,218.099,489.099,212.094,484.325,208.284z"/>
            <path fill="#FFCAB8" d="M454.648,266.614c-5.16-6.678-7.726-14.529-7.851-22.999c-0.071-4.487,0.53-8.964,0.399-13.47
			c-0.315-10.719,6.893-21.069,16.583-25.617c-3.221,0.649-6.386,1.649-9.446,2.857c-3.619,1.429-14.726,8.167-11.512,32.332
			c0.744,5.612,3.042,21.504,6.059,26.302c3.263,5.172,9.285,8.744,15.434,9.464C460.63,273.072,457.327,270.078,454.648,266.614z"
			/>
            <path fill="#FFC3AB" d="M460.624,256.906c-0.089,7.708-1.279,16.236-1.75,23.784c-0.476,7.547,30.355,7.649,29.862,0
			c-1.031-15.861,0-35.236,0-35.236S460.713,249.198,460.624,256.906z"/>
            <path fill="#FFCAB8" d="M459.612,271.893c-0.238,2.524-0.588,6.417-0.738,8.797c-0.095,1.554,1.148,2.786,3.154,3.703
			c-0.155-1.899-0.31-3.81-0.327-5.643C461.689,277.405,461.427,273.328,459.612,271.893z"/>
            <path fill="#42445D" d="M471.718,198.237c-20.7,0-26.254,17.677-36.783,19.23c21.731,5.482,10.898,43.622,39.974,51.991
			c4.828,1.394,16.166,2.726,22.969-10.493C515.608,224.521,497.717,198.237,471.718,198.237z"/>
            <path fill="#333242" d="M471.718,198.237c-13.933,0-24.742,16.439-24.742,29.873c6.743,13.571,6.851,35.284,27.933,41.349
			c4.828,1.394,16.166,2.726,22.969-10.493C515.608,224.521,497.717,198.237,471.718,198.237z"/>
            <path fill="#FFB725" d="M382.367,349.888c-6.119-0.762-23.909,2.726-29.843,4.375c-9.369,2.608-42.873,10.167-42.873,10.167
			s-0.321,5.862,2.363,15.111c0,0,47.026-4.361,66.288-9.266C397.515,365.375,388.64,350.674,382.367,349.888z"/>
            <linearGradient id="SVGID_35_" gradientUnits="userSpaceOnUse" x1="309.6743" y1="368.5835" x2="390.9282" y2="368.5835">
                <stop  offset="0" style="stop-color:#FB6B14"/>
                <stop  offset="1" style="stop-color:#FDB522"/>
            </linearGradient>
            <path fill="url(#SVGID_35_)" d="M309.674,366.315c0.102,2.43,0.56,7.064,2.34,13.225c0,0,39.914-3.474,64.853-8.867
			c10.922-2.363,16.738-8.671,12.856-13.046C389.146,359.632,324.585,378.209,309.674,366.315z"/>
            <path fill-rule="evenodd" clip-rule="evenodd" fill="#FFCAB8" d="M280.368,374.22l-8.227,5.864
			c-0.767,0.553-0.952,1.624-0.398,2.397c0.554,0.775,1.625,0.953,2.399,0.404l7.398-4.897c0.773-0.561,1.774-2.589,1.22-3.364
			C282.207,373.852,281.135,373.672,280.368,374.22z"/>
            <path fill-rule="evenodd" clip-rule="evenodd" fill="#333242" d="M302.61,369.571c0,0,3.666,3.858,5.094,10.113
			c0,0,1.912,0.042,3.535-1.274c0,0-0.904-6.088-4.969-10.345C306.271,368.065,303.991,368.566,302.61,369.571z"/>
            <path fill="#D0DDFD" d="M304.122,367.958c-1.982,0.72-3.481,1.607-3.345,1.981c0.143,0.382,1.857,0.108,3.845-0.605
			c1.982-0.72,3.482-1.602,3.345-1.983C307.823,366.971,306.11,367.244,304.122,367.958z"/>
            <g>
                <g>
                    <g>
                        <g>
                            <linearGradient id="SVGID_36_" gradientUnits="userSpaceOnUse" x1="509.314" y1="478.5938" x2="509.314" y2="586.3754">
                                <stop  offset="0" style="stop-color:#8AA8DA"/>
                                <stop  offset="1" style="stop-color:#EFF6FF"/>
                            </linearGradient>
                            <path fill="url(#SVGID_36_)" d="M537.393,473.274h-61.579c-5.476,0-12.565,4.403-13.375,9.808l-17.559,127.862h6.785
							l18.66-127.177c0.47-3.186,3.583-5.87,6.803-5.87h58.943c3.214,0,1.708,2.025,2.178,5.209l27.034,127.802l3.054-0.106
							l5.41-0.633l-24.974-127.087C547.97,477.678,542.863,473.274,537.393,473.274z"/>
                        </g>
                        <g>
                            <path fill="#FFFFFF" d="M530.78,473.267h-60.252c-5.476,0-10.577,4.411-11.374,9.829l-18.672,127.17l4.577,0.673
							l18.672-127.171c0.463-3.186,3.577-5.87,6.797-5.87h60.252c3.268,0,6.547,2.704,7.172,5.912l24.606,127.235l4.696-0.353
							l-24.767-127.765C541.458,477.607,536.208,473.267,530.78,473.267z"/>
                        </g>
                    </g>
                </g>
                <g>
                    <g>
                        <g>
                            <linearGradient id="SVGID_37_" gradientUnits="userSpaceOnUse" x1="470.2964" y1="447.1738" x2="572.4268" y2="447.1738">
                                <stop  offset="2.500000e-007" style="stop-color:#EFF6FF"/>
                                <stop  offset="1" style="stop-color:#8AA8DA"/>
                            </linearGradient>
                            <path fill="url(#SVGID_37_)" d="M566.558,425.752c-0.982,7.655-2.464,19.22-4.488,29.272
							c-3.398,16.855-6.143,18.04-6.261,18.083c-2.148-0.006-6.53-0.114-12.594-0.257c-15.874-0.38-35.075-1.013-70.604-1.013
							h-2.314v4.626h2.314c35.474,0,54.634,0.631,70.496,1.013c6.095,0.143,10.494,0.249,12.786,0.249
							c6.397,0,10.386-13.446,15.254-51.383c0.387-3.03,1.28-8.964,1.28-8.964l-4.56-0.757
							C567.867,416.622,566.957,422.675,566.558,425.752z"/>
                        </g>
                        <g>
                            <path fill="#FFFFFF" d="M562.392,424.926c-0.982,7.589-2.465,19.045-4.494,29.022c-3.404,16.718-6.148,17.861-6.261,17.897
							l-83.209-0.008v4.626h83.286c6.405,0,10.398-13.334,15.268-50.943c0.38-2.946,0.679-5.279,0.887-6.518l-4.565-0.762
							C563.083,419.563,562.778,421.932,562.392,424.926z"/>
                        </g>
                    </g>
                    <g>
                        <g>
                            <path fill="#0D5BD9" d="M547.85,463.065H447.773c-4.387,0-7.94,3.561-7.94,7.946c0,4.381,3.553,7.935,7.94,7.935H547.85
							c4.382,0,7.94-3.554,7.94-7.935C555.791,466.626,552.232,463.065,547.85,463.065z"/>
                        </g>
                    </g>
                    <g>
                        <g>
                            <path fill="#D0DDFD" d="M458.07,463.071h-64.305c-10.036,0-17.678,2.656-22.701,7.888c-3.863,4.028-4.988,8.487-5.048,10.493
							l-0.119,4.261h13.671l0.274-3.189c0.566-2.132,4.083-5.577,13.922-5.577h64.305c3.827,0,6.94-3.103,6.94-6.941
							C465.011,466.179,461.897,463.071,458.07,463.071z"/>
                            <path fill="#D0DDFD" d="M379.874,482.153c0.011-0.16,0.024-0.327,0.024-0.486c0,0.297-0.019,0.553-0.048,0.762
							L379.874,482.153z"/>
                        </g>
                    </g>
                    <g>
                        <g>
                            <g>
                                <linearGradient id="SVGID_38_" gradientUnits="userSpaceOnUse" x1="456.4287" y1="447.8086" x2="476.1528" y2="447.8086">
                                    <stop  offset="2.500000e-007" style="stop-color:#EFF6FF"/>
                                    <stop  offset="1" style="stop-color:#8AA8DA"/>
                                </linearGradient>
                                <path fill="url(#SVGID_38_)" d="M471.213,418.902c-0.202,1.202-0.488,3.32-0.858,6.004
								c-1.011,7.347-2.695,19.643-4.898,30.225c-3.666,17.643-6.416,19.137-6.714,19.249h-2.314l0.095,4.614h2.315
								c6.481,0,10.689-13.989,16.094-53.455c0.363-2.65,0.655-4.739,0.839-5.876l0.381-2.278l-4.554-0.763L471.213,418.902z"/>
                            </g>
                        </g>
                        <g>
                            <path fill="#FFFFFF" d="M466.093,425.104c-0.975,7.653-2.464,19.224-4.493,29.284c-3.386,16.866-6.143,18.052-6.255,18.094
							l0.083,4.612c6.398,0,10.386-13.451,15.254-51.401c0.387-3.036,0.696-5.435,0.905-6.69l-4.56-0.762
							C466.802,419.586,466.493,422.021,466.093,425.104z"/>
                        </g>
                    </g>
                    <g>
                        <g>
                            <g>
                                <linearGradient id="SVGID_39_" gradientUnits="userSpaceOnUse" x1="420.7397" y1="478.5928" x2="420.7397" y2="586.3752">
                                    <stop  offset="0" style="stop-color:#8AA8DA"/>
                                    <stop  offset="1" style="stop-color:#EFF6FF"/>
                                </linearGradient>
                                <path fill="url(#SVGID_39_)" d="M447.042,468.863l-51.545,0.196c-5.47,0-12.755,4.207-13.564,9.619l-17.559,132.266h6.786
								l18.654-131.581c0.47-3.185,3.595-5.869,6.803-5.869l49.104-1.174c3.214,0,1.708,3.197,2.185,6.381l18.135,132.207
								l5.648-0.106l5.417-0.633l-18.684-131.49C457.618,473.267,452.512,468.863,447.042,468.863z"/>
                            </g>
                            <g>
                                <path fill="#FFFFFF" d="M440.435,468.869h-50.419c-5.482,0-10.565,4.405-11.339,9.832L359.97,610.277l4.583,0.655
								l18.702-131.575c0.452-3.179,3.553-5.863,6.762-5.863h50.419c3.208,0,6.304,2.685,6.75,5.863l18.706,131.575l4.584-0.655
								l-18.708-131.576C450.994,473.274,445.91,468.869,440.435,468.869z"/>
                            </g>
                        </g>
                    </g>
                    <path fill="#D0DDFD" d="M564.844,323.605h-75.138c-7.994,0-15.493,6.476-16.666,14.38c0,0-12.351,73.222-11.714,75.351
					c1.143,3.853,2.577,6.333,6.214,6.333c3.631,0,97.387,0.936,97.387,0.936l0.601-3.965l11.083-74.81
					c0.262-1.732,8.81-2.447,8.464-3.981C583.848,332.349,578.599,323.605,564.844,323.605z"/>
                    <path fill="#0D5BD9" d="M576.158,331.407h-78.441c-7.988,0-15.493,6.47-16.667,14.382l-11.082,74.816
					c0,0,27.343,5.504,61.699,5.504c34.361,0,45.813-5.504,45.813-5.504l11.088-74.816
					C589.74,337.876,584.151,331.407,576.158,331.407z"/>
                </g>
            </g>
        </g>
        <g>
            <path fill="#42445D" d="M1208.97,165.792h-51.295c1.163,9.297-10.374,19.713-14.171,27.885
			c-3.929,8.452-5.398,36.063,40.213,36.063c45.614,0,44.37-28.397,39.354-36.063C1218.13,186.142,1207.81,175.089,1208.97,165.792z
			"/>
            <path fill="#333242" d="M1221.059,190.785c1.173,6.953,0.346,15.713-6.618,20.214c-14.778,9.553-31.218,1.232-40.129-11.06
			c-1.827-2.529-7.517,10.047-7.517,10.047s-11.476-25.313-0.923-44.193h-8.197c1.163,9.297-10.374,19.713-14.171,27.885
			c-3.929,8.452-5.398,36.063,40.213,36.063c45.614,0,44.37-28.397,39.354-36.063
			C1222.463,192.761,1221.784,191.791,1221.059,190.785z"/>
            <path fill-rule="evenodd" clip-rule="evenodd" fill="#FFC3AB" d="M1177.139,460.062c-0.386,4.927-1.792,8.992-2.071,13.076
			c-0.298,4.297,0.542,8.618,0.744,14.182c0.571,5.93-2.095,10.472-3.124,15.577c-5.22,26.039,0.31,41.962-5.399,61.812
			c-1.863,6.483-3.827,8.755-4.798,11.553c-1.31,3.774-0.081,8.382-1.451,15.867c-1.763,9.698-6.495,19.512-4.88,24.935
			c1.523,5.137,13.379,10.111,17.807,10.111c5.293,0,2.714-6.105,2.466-9.886c-0.398-5.976,1.743-39.973,3.73-47.431
			c5.745-21.564,18.685-53.759,21.296-74.257c2.476-19.436,0.847-23.102,5.257-45.908c0.506-2.65,9.838-63.813,10.588-88.453
			l-39.741,20.053C1178.483,405.094,1179.103,435.246,1177.139,460.062z"/>
            <path fill-rule="evenodd" clip-rule="evenodd" fill="#FFCAB8" d="M1195.304,441.663c4.922,20.771,0.257,41.349-6.088,61.501
			c-7.101,22.552-13.065,42.005-14.178,65.829c-0.869,18.333-10.446,36.753-11.101,55.039c3.72,1.893,7.81,3.142,10.028,3.142
			c5.293,0,2.714-6.105,2.466-9.886c-0.398-5.981,1.743-39.973,3.73-47.431c5.745-21.564,18.69-53.759,21.296-74.257
			c2.476-19.436,0.847-23.102,5.257-45.908c0.506-2.65,9.838-63.813,10.588-88.453l-27.158,13.7
			C1194.154,397.106,1190.108,419.736,1195.304,441.663z"/>
            <path fill-rule="evenodd" clip-rule="evenodd" fill="#0A429F" d="M1176.454,611.234c-0.851,4.065-8.928,6.25-12.826,0.906
			c-2.553-3.501-3.549-8.113-4.249-12.1c-0.03-0.174-0.089-0.329-0.126-0.503c-1.988,7.037-4.296,13.488-3.094,17.524
			c1.523,5.137,13.379,10.111,17.807,10.111c5.293,0,2.714-6.105,2.466-9.886C1176.354,616.158,1176.371,614.008,1176.454,611.234z"
			/>
            <path fill-rule="evenodd" clip-rule="evenodd" fill="#0D5BD9" d="M1165.045,614.604c-0.113-0.411-0.155-0.809-0.172-1.19
			c-0.447-0.364-0.87-0.762-1.245-1.273c-2.553-3.501-3.549-8.113-4.249-12.1c-0.03-0.174-0.089-0.329-0.126-0.503
			c-1.988,7.037-4.296,13.488-3.094,17.524c1.523,5.137,13.379,10.111,17.807,10.111c2.335,0,3.096-1.22,3.244-2.868
			C1175.329,624.627,1167.253,622.408,1165.045,614.604z"/>
            <path fill-rule="evenodd" clip-rule="evenodd" fill="#FFCAB8" d="M1214.524,227.14c-4.258-1.012-12.519-3.399-17.56-5.351
			c-8.731-3.387-7.196-11.053-5.195-21.867l-16.124-5.679c-1.543,11.511,1.119,24.653-10.745,21.404
			c-14.14-3.887-20.896-1.239-25.325,17.314l65.48,30.814c0,12.838,5.164,24.819,8.219,35.396l13.725-5.464
			C1225.476,278.976,1222.291,228.985,1214.524,227.14z"/>
            <path fill-rule="evenodd" clip-rule="evenodd" fill="#FFCAB8" d="M1115.815,281.69l10.999,10.351
			c7.278-9.184,27.303-54.967,27.303-54.967l-18.69-7.821C1126.047,245.085,1119.286,273.208,1115.815,281.69z"/>
            <path fill-rule="evenodd" clip-rule="evenodd" fill="#FFC3AB" d="M1144.82,233.937c-1.816,6.482-14.422,2.595-17.011,11.767
			c-0.982,3.494,2.637,10.291,3.915,13.261c0.649,1.518,1.786,14.916-2.904,23.725c-0.969,1.809-6.786,2.803-8.125,3.595
			l6.119,5.756c7.278-9.184,27.303-54.967,27.303-54.967l-9.174-3.839C1144.891,233.473,1144.885,233.693,1144.82,233.937z"/>
            <path fill-rule="evenodd" clip-rule="evenodd" fill="#FFCAB8" d="M1115.584,278.523c-17.173,4.863-53.443,15.761-57.336,12.523
			c-4.16-3.47-8.393-4.839-13.172-5.106c-4.399-0.238,0.118,3.667-5.131,4.071c-3.107,0.232-12.237-0.107-12.589,1.077
			c-0.703,2.423,2.076,2.602,5.279,2.625c-0.661,1.393,0.125,3.363,2.126,3.41c-0.215,1.958,1.25,3.453,3.105,3.553
			c-0.048,2.631,1.821,3.524,5.251,3.149c3.66-0.406,9.494,0.166,19.41-0.732c12.992-1.173,46.293,2.988,64.031-10.713
			C1130.221,289.558,1121.471,276.851,1115.584,278.523z"/>
            <path fill-rule="evenodd" clip-rule="evenodd" fill="#FFC3AB" d="M1115.572,288.017c-8.429,2.661-16.53,6.184-25.279,6.827
			c-8.809,0.656-21.499,4.423-30.331,4.953c-2.821,0.172-6.678-2.87-10.028-5.75c-2.078-1.785-4.548-3.042-7.231-3.583
			c-1.197-0.244-2.096-0.506-2.757-0.458c-3.107,0.238-12.243-0.101-12.589,1.083c-0.703,2.423,2.076,2.602,5.279,2.625
			c-0.661,1.393,0.125,3.363,2.126,3.41c-0.215,1.958,1.25,3.453,3.105,3.553c-0.048,2.631,1.821,3.524,5.251,3.149
			c2.185-0.244,15.409-0.37,19.41-0.732c12.992-1.173,46.293,2.988,64.031-10.713c2.856-2.203,0.553-5.78-1.174-7.678
			C1122.964,285.119,1116.561,287.701,1115.572,288.017z"/>
            <path fill-rule="evenodd" clip-rule="evenodd" fill="#FFCAB8" d="M1035.423,281.922c0.255,2.554,2.374,4.238,5.903,4.304
			c1.934,1.976,3.768,3.261,5.636,3.547l6.322-2.006l-9.458-4.344C1041.963,283.279,1039.845,283.196,1035.423,281.922z"/>
            <path fill-rule="evenodd" clip-rule="evenodd" fill="#FFC3AB" d="M1164.9,215.647c-7.796-2.143-13.343-2.28-17.498,1.124
			c3.339-1.041,6.982-1.327,10.071-0.951c4.749,0.583,8.505,5.321,12.631,5.827c7.617,0.934,16.26-9.208,20.617-15.755
			c0.286-1.87,0.66-3.857,1.048-5.97l-16.124-5.679C1174.103,205.749,1176.765,218.896,1164.9,215.647z"/>
            <path fill-rule="evenodd" clip-rule="evenodd" fill="#FFC3AB" d="M1212.066,265.375c-0.446,0.75-4.846,5.155-6.869,5.887
			c0.344,9.898,5.631,19.433,8.077,27.909l5.268-1.107c-1.899-7.315-5.833-16.749-6.055-24.719
			C1212.416,270.596,1212.245,267.959,1212.066,265.375z"/>
            <path fill-rule="evenodd" clip-rule="evenodd" fill="#FFCAB8" d="M1187.62,151.133c-5.882-0.845-10.421-0.048-13.922,1.856
			c-7.267,3.946-9.897,12.78-9.85,22.434c0,0.369,0,0.745,0.023,1.113c0,0.351,0.03,0.696,0.03,1.042
			c0.022,0.471,0.022,0.946,0.071,1.44c0.148,2.113,0.327,3.994,0.523,5.731c0.493,3.947,1.166,6.994,2.256,9.577
			c1.367,3.298,10.446,15.106,17.636,14.879c6.607-0.219,15.511-11.379,16.95-13.963c1.71-3.125,2.524-6.422,2.946-9.976
			c0.323-2.529,0.43-5.184,0.549-8.012v-0.101c0.023-0.643,0.054-1.333,0.054-1.982
			C1204.905,163.834,1200.989,153.02,1187.62,151.133z"/>
            <path fill-rule="evenodd" clip-rule="evenodd" fill="#FFCAB8" d="M1202.012,584.993c-0.969-2.798-3.195-2.22-5.053-8.702
			c-5.714-19.845,0.071-38.616-5.148-64.662c-1.023-5.108-3.696-9.648-3.124-15.57c0.208-5.578,1.04-9.899,0.744-14.186
			c-0.287-4.088-1.686-8.146-2.072-13.082c-1.256-15.867-1.451-22.152-1.197-45.204c0.394-34.82,3.18-51.343-9.476-77.424
			l-26.378,0.095l-3.112,23.719c0.826,26.974,5.435,54.919,11.325,85.454c4.404,22.809,3.125,31.825,5.602,51.265
			c2.606,20.498,23.612,78.357,24.242,86.245c0.168,2.135,0.625,29.427,1.048,33.104c0.44,3.755-0.006,12.784,5.118,12.784
			c4.435,0,12.709-9.576,13.809-13.027c1.727-5.394-3.113-15.244-4.88-24.934C1202.095,593.372,1203.317,588.766,1202.012,584.993z"
			/>
            <path fill-rule="evenodd" clip-rule="evenodd" fill="#0A429F" d="M1193.496,625.829c-1.816,0-3.066-1.992-4.28-3.089
			c0.065,1.535,0.131,2.726,0.196,3.304c0.44,3.755-0.006,12.784,5.118,12.784c4.435,0,12.709-9.576,13.809-13.027
			c1.27-3.964-0.999-10.328-2.999-17.268C1205.03,609.819,1202.619,625.829,1193.496,625.829z"/>
            <path fill-rule="evenodd" clip-rule="evenodd" fill="#0D5BD9" d="M1196.506,628.396c-0.184-1.186-0.189-2.226-0.077-3.197
			c-0.893,0.394-1.861,0.631-2.933,0.631c-1.816,0-3.066-1.992-4.28-3.089c0.065,1.535,0.131,2.726,0.196,3.304
			c0.44,3.755-0.006,12.784,5.118,12.784c2.894,0,7.399-4.071,10.505-7.856c-0.791,0.376-1.601,0.69-2.404,0.897
			C1200.262,632.494,1196.917,631.086,1196.506,628.396z"/>
            <path fill-rule="evenodd" clip-rule="evenodd" fill="#C3391C" d="M1138.069,318.432c-0.171,1.113-2.439,20.105-2.553,21.146
			c-3.916,34.784,9.249,82.739,18.808,128.73c23.623,7.887,57.021-1.367,57.021-1.367s14.971-71.032,14.971-106.435
			c0-24.271-13.728-38.67-15.053-46.318C1193.805,324.271,1145.974,320.461,1138.069,318.432z"/>
            <path fill-rule="evenodd" clip-rule="evenodd" fill="#FD4B1B" d="M1173.55,444.222c-2.512-9.076-7.29-35.623-6.439-45.004
			c1.827-20.188-26.285-20.076-16.874-28.735c4.369-4.018,21.873-5.256,24.784-11.833c5.541-12.488-14.846-14.494-21.719-37.986
			c-0.061-0.184-15.166-1.66-15.286-1.805c-0.404,3.049-2.392,19.745-2.499,20.719c-3.916,34.784,9.249,82.739,18.808,128.73
			c17.923,5.981,41.462,2.102,51.783-0.123C1197.19,457.143,1177.405,458.173,1173.55,444.222z"/>
            <path fill-rule="evenodd" clip-rule="evenodd" fill="#C3391C" d="M1203.875,223.444l-20.158,6.297c0,0-10.184-8.458-17.195-14.797
			c0,0-17.529-10.445-35.213,12.321c-2.006,2.583,9.988,7.197,8.464,20.309c-2.565,22.095-8.405,64.205-2.458,71.258
			c5.618,6.666,72.68,9.017,74.602-2.352c1.125-6.672-4.886-10.094-6.744-17.671c-1.313-5.393-0.82-11.321,0.841-21.344
			c4.345-3.554,12.529-8.232,8.225-19.904c-3.136-8.487,12.957-8.225,12.143-14.546
			C1223.952,224.152,1203.875,223.444,1203.875,223.444z"/>
            <path fill-rule="evenodd" clip-rule="evenodd" fill="#C3391C" d="M1178.745,265.406c-5.837-3.227-7.243-7.006-9.159-12.44
			c-1.655-4.714-7.213-0.904-12.279,2.893c-4.041,3.023-8.332-4.303-10.601-2.315c-2.647,2.315,4.088,7.911,3.089,11.934
			c-1.542,6.226,3.173,8.416,8.535,4.917c3.084-2.018,15.167,5.16,22.208,3.97C1186.847,273.298,1187.007,269.965,1178.745,265.406z
			"/>
            <path fill-rule="evenodd" clip-rule="evenodd" fill="#FD4B1B" d="M1183.287,231.752c-6.607-0.898-14.171,0.679-20.7,4.887
			c-6.173,3.975-21.29-2.178-22.814,10.934c-2.565,22.095-8.405,64.205-2.458,71.258c4.409,5.231,46.64,7.804,65.556,3.172
			c-3.811-1.655-10.298-3.088-14.394-3.144c-16.908-0.226-26.206-7.535-35.563-14.676c-5.029-3.833-1.618-7.494,3.482-3.602
			c5.631,4.298,22.142,11.208,22.142,4.244c0-16.416,20.588-25.1,20.588-32.308c0-9.219-5.84-19.552,1.25-23.498
			c4.529-2.523-4.19-6.672-4.846-7.214c-9.154-7.428,5.839-11.112,11.617-11.613c3.175-0.28,5.098-1.916,4.555-3.197
			c-1.374-3.237-8.583-2.904-14.063-0.065C1192.877,229.402,1186.591,232.199,1183.287,231.752z M1180.538,274.815
			c-7.041,1.19-19.124-5.982-22.208-3.963c-5.362,3.499-10.077,1.309-8.535-4.923c0.999-4.018-5.736-9.612-3.089-11.928
			c2.269-1.988,6.56,5.339,10.601,2.316c5.066-3.798,10.624-7.607,12.279-2.893c1.916,5.434,3.322,9.214,9.159,12.434
			C1187.007,270.423,1186.847,273.75,1180.538,274.815z"/>
            <g>
                <g>
                    <g>
                        <path fill-rule="evenodd" clip-rule="evenodd" fill="#FFC3AB" d="M1184.294,191.696c-1.911,0.06-3.738,0.893-3.875,1.231
						c-0.315,0.816,0.94,1.06,1.654,1.09c0.279,0.006,0.82,0.071,1.196,0.142c0.606,0.125,1.237,0.102,1.839-0.059
						c0.363-0.102,0.904-0.209,1.179-0.238c0.714-0.071,2.12-0.505,1.578-1.19C1187.495,192.213,1186.08,191.643,1184.294,191.696z"
						/>
                    </g>
                </g>
            </g>
            <path fill="#FFC3AB" d="M1187.62,148.604c-5.882-0.84-10.421-0.048-13.922,1.862c-7.267,3.946-9.897,12.78-9.85,22.434
			c1.244-3.827,3.451-8.517,7.321-11.636c0,0,6.451,6.197,14.91,9.547c0,0-5.239-7.911-6.228-11.137
			c0.595,0.369,9.899,6.523,24.433,23.07c0.323-2.553,0.43-5.255,0.549-8.112C1205.334,162.597,1201.757,150.591,1187.62,148.604z"
			/>
            <path fill="#42445D" d="M1184.425,138.818c-12.173,0-16.714,10.178-16.714,10.178s-8.625,1.726-10.101,9.624
			c-1.256,6.809,1.411,13.755,6.375,19.046c0,0,1.256-11.928,8.761-17.969c0,0,6.434,6.196,14.898,9.559
			c0,0-5.272-7.976-6.25-11.166c0,0,10.375,6.553,26.641,25.629c-1.035-8.333,0.935-12.357,0.935-21.803
			C1208.97,151.133,1199.656,138.818,1184.425,138.818z"/>
            <path fill="#333242" d="M1177.336,155.174c1.958,6.094,6.881,12.714,10.309,14.083c0,0-5.272-7.976-6.25-11.166
			c0,0,10.375,6.553,26.641,25.629C1208.019,183.547,1195.834,155.174,1177.336,155.174z"/>
            <path fill="#333242" d="M1158.885,155.174c-0.565,0.994-1.024,2.131-1.274,3.446c-1.256,6.809,1.411,13.755,6.375,19.046
			c0,0,0.326-3.066,1.613-6.869C1158.64,168.971,1156.402,160.996,1158.885,155.174z"/>
            <path fill="#FFC3AB" d="M1195.804,186.981c-4.244,0.149-7.784-2.88-7.938-6.696c-0.103-3.202,2.154-4.637,7.547-4.815
			c1.142-0.042,2.124,0,3,0.096c-0.293-0.316-0.536-0.656-0.781-0.995c-0.762-0.053-1.534-0.077-2.249-0.042
			c-2.856,0.102-6.423,0.566-7.839,3.024l0.029-0.078c-0.326,0.452-1.47,0.726-1.768,0.726c-0.274,0.018-1.416,0.047-2.077,0.071
			c-0.697,0.029-1.839,0.071-2.111,0.071c-0.275,0-1.442-0.173-1.816-0.619l0.03,0.102c-1.56-2.357-5.137-2.578-8.019-2.482
			c-1.606,0.047-3.44,0.25-5.011,0.846c0.054-0.024,0.078-0.049,0.131-0.078c-0.846,0.202-2.144,0.346-3.06,0.423
			c0,0.351,0.03,0.696,0.03,1.042c0.022,0.471,0.022,0.946,0.071,1.44c0.148,2.113,0.327,3.994,0.523,5.731
			c1.536,2.482,4.464,4.119,7.786,3.994c4.564-0.149,8.189-3.571,8.337-7.69l0.024,0.125c0.517-1.167,2.207-1.565,3.131-1.589
			c0.887-0.024,2.601,0.226,3.196,1.363l0.029-0.125c0.44,4.096,4.263,7.244,8.853,7.101c3.968-0.155,7.218-2.755,8.116-6.153
			c0,0.071,0,0.148,0,0.148c0.025-0.071,0.042-0.155,0.062-0.232c-0.305-0.339-0.572-0.708-0.829-1.083
			C1202.84,184.06,1199.716,186.845,1195.804,186.981z M1172.258,187.803c-4.238,0.143-7.814-2.857-7.935-6.702
			c-0.123-3.197,2.132-4.613,7.542-4.815c5.387-0.191,7.738,1.095,7.839,4.268C1179.853,184.398,1176.502,187.649,1172.258,187.803z
			"/>
            <g>
                <g>
                    <path fill="#FFFFFF" d="M1196.107,173.786c-3.713,0.131-8.63,0.869-8.451,5.791c0.147,4.364,4.154,7.78,8.923,7.613
					c4.773-0.166,8.529-3.851,8.373-8.22C1204.779,174.054,1199.821,173.655,1196.107,173.786z M1196.543,186.238
					c-4.244,0.148-7.804-2.851-7.946-6.695c-0.106-3.179,2.148-4.619,7.547-4.804c5.394-0.191,7.743,1.083,7.857,4.268
					C1204.138,182.845,1200.786,186.095,1196.543,186.238z"/>
                </g>
                <path fill="#FFFFFF" d="M1205.024,174.406c-0.637,0.023-2.815,0.035-4.035-0.215c0,0,1.452,0.578,2.719,2.089
				c0.995,1.19,0.981,4.898,0.981,4.898c0.482-1.273,0.536-3.012,0.514-3.745c-0.025-0.726,0.137-0.898,0.469-0.945
				c0.335-0.037,0.365-0.208,0.357-0.394c-0.011-0.184-0.04-1.083-0.053-1.375C1205.971,174.429,1205.655,174.382,1205.024,174.406z
				"/>
                <g>
                    <path fill="#FFFFFF" d="M1172.551,174.608c-3.716,0.131-8.632,0.869-8.459,5.791c0.156,4.369,4.154,7.78,8.923,7.613
					c4.772-0.167,8.528-3.851,8.38-8.22C1181.217,174.876,1176.265,174.477,1172.551,174.608z M1172.983,187.059
					c-4.244,0.155-7.802-2.85-7.938-6.695c-0.108-3.179,2.144-4.619,7.54-4.81c5.393-0.184,7.744,1.089,7.856,4.274
					C1180.573,183.666,1177.233,186.916,1172.983,187.059z"/>
                </g>
                <path fill="#FFFFFF" d="M1162.766,176.227c0.012,0.291,0.048,1.197,0.053,1.381c0.012,0.184,0.054,0.357,0.381,0.37
				c0.329,0.011,0.513,0.178,0.535,0.904c0.031,0.727,0.203,2.465,0.775,3.697c0,0-0.275-3.691,0.637-4.953
				c1.16-1.601,2.564-2.273,2.564-2.273c-1.197,0.339-3.374,0.476-4.013,0.494C1163.067,175.869,1162.759,175.935,1162.766,176.227z
				"/>
                <path fill="#FFFFFF" d="M1184.448,177.542c-0.685,0.023-1.822,0.065-2.101,0.071c-0.28,0.018-1.446-0.171-1.804-0.601
				l0.845,3.435c0.518-1.172,2.197-1.56,3.106-1.589c0.898-0.036,2.608,0.232,3.214,1.368l0.59-3.487
				c-0.315,0.458-1.471,0.72-1.75,0.732C1186.27,177.477,1185.126,177.524,1184.448,177.542z"/>
            </g>
            <g>
                <g>
                    <path fill-rule="evenodd" clip-rule="evenodd" fill="#FFCAB8" d="M1212.362,296.303c-16.754,2.911-28.735,10.534-37.688,11.017
					c-2.095,0.113-4.123,0.809-6.04-0.637c-4.071-3.066-8.375-2.905-12.862-2.75c-4.148,0.149,0.41,3.417-4.464,4.232
					c-2.882,0.488-11.458,0.935-11.68,2.077c-0.451,2.321,2.162,2.25,5.156,2.006c-0.5,1.357,0.399,3.136,2.274,3.012
					c-0.03,1.85,1.47,3.119,3.2,3.058c0.179,2.466,2,3.149,5.179,2.505c3.387-0.684,8.894-0.642,18.096-2.314
					c12.053-2.19,14.475-0.566,23.235-1.327c8.607-0.756,21.773-1.763,28.944-6.929c2.548-1.839,2.548-9.909,1.144-17.897
					C1221.137,293.552,1218.023,295.32,1212.362,296.303z"/>
                    <path fill-rule="evenodd" clip-rule="evenodd" fill="#FFCAB8" d="M1145.027,300.148c0.465,2.356,2.589,3.761,5.893,3.523
					c1.18,1.112,1.976,2.393,2.798,3.036l8.655-2.607l-9.347-3.262C1151.266,300.868,1149.284,300.962,1145.027,300.148z"/>
                </g>
            </g>
            <g>
                <g>
                    <g>
                        <path fill="#42445D" d="M1153.908,305.861c0,0.006,0,0.012,0,0.019c0,1.755,1.44,3.202,3.202,3.202h75.31
						c1.757,0,3.198-1.446,3.198-3.202c0-0.007,0-0.013,0-0.019H1153.908z"/>
                    </g>
                </g>
                <path fill="#42445D" d="M1145.778,239.461c-0.709-2.589-3.095-4.363-5.779-4.292l-46.206-0.023v73.132l63.807,0.804
				c3.909,0,4.143-3.023,3.88-4.071L1145.778,239.461z"/>
                <path fill="#FFFFFF" d="M1142.463,236.508c-0.227-0.809-0.971-1.375-1.816-1.375h-81.559c-1.244,0-2.15,1.179-1.816,2.375
				l15.304,64.782c1.113,4.011,4.76,6.791,8.92,6.791h75.954c1.238,0,2.143-1.185,1.804-2.381L1142.463,236.508z"/>
            </g>
            <g>
                <g>
                    <path fill-rule="evenodd" clip-rule="evenodd" fill="#FFCAB8" d="M1037.172,291.005c-3.602-0.286-4.458-0.297-8.055-0.292
					c-1.421,0-2.248,0.69-2.142,1.393c0.096,0.678,0.459,1.38,2.22,1.44c3.131,0.102,5.346-0.029,8.41-0.363
					C1039.969,292.927,1040.576,291.279,1037.172,291.005z"/>
                    <path fill-rule="evenodd" clip-rule="evenodd" fill="#FFCAB8" d="M1043.885,293.719c-3.602-0.036-6.897,0.333-10.474,0.31
					c-1.418-0.006-1.578,0.738-1.429,1.482c0.147,0.727,0.553,1.458,2.321,1.381c3.123-0.125,7.087-0.524,10.123-1.125
					C1046.761,295.314,1047.297,293.749,1043.885,293.719z"/>
                    <path fill-rule="evenodd" clip-rule="evenodd" fill="#FFCAB8" d="M1044.927,296.773c-3.227,0.113-5.97,0.607-9.178,0.731
					c-1.274,0.054-1.387,0.965-1.238,1.696c0.143,0.721,0.519,1.429,2.101,1.286c2.798-0.262,6.339-0.822,9.048-1.536
					C1047.735,298.397,1047.975,296.666,1044.927,296.773z"/>
                    <path fill-rule="evenodd" clip-rule="evenodd" fill="#FFCAB8" d="M1046.605,300.458c-3.231,0.106-4.827,0.273-8.03,0.398
					c-1.271,0.048-1.397,0.797-1.25,1.536c0.138,0.714,0.52,1.423,2.09,1.28c2.805-0.256,4.994-0.47,7.703-1.191
					C1049.194,301.927,1049.652,300.35,1046.605,300.458z"/>
                </g>
            </g>
        </g>
    </g>
</svg>
