<svg version="1.1" id="Layer_1"
    xmlns="http://www.w3.org/2000/svg"
    xmlns:xlink="http://www.w3.org/1999/xlink" x="0px" y="0px"
	 width="960px" height="560px" viewBox="0 0 960 560" enable-background="new 0 0 960 560" xml:space="preserve">
    <g>
        <g>
            <path fill="#74CB96" d="M417.069,141.864c-31.037,0-56.28-25.248-56.28-56.282c0-31.036,25.243-56.283,56.28-56.283
			c31.034,0,56.277,25.248,56.277,56.283C473.346,116.616,448.103,141.864,417.069,141.864z M417.069,58.491
			c-14.94,0-27.095,12.153-27.095,27.092c0,14.937,12.155,27.091,27.095,27.091c14.938,0,27.089-12.154,27.089-27.091
			C444.158,70.644,432.007,58.491,417.069,58.491z"/>
            <g>
                <path fill="#74CB96" d="M433.467,43.896h-30.95V14.414c0-2.284,1.852-4.137,4.14-4.137h22.674c2.284,0,4.136,1.853,4.136,4.137
				V43.896z"/>
                <path fill="#74CB96" d="M429.331,160.888h-22.674c-2.288,0-4.14-1.852-4.14-4.138v-29.481h30.95v29.481
				C433.467,159.036,431.615,160.888,429.331,160.888z"/>
            </g>
            <g>
                <path fill="#74CB96" d="M376.306,70.108v30.949h-29.482c-2.284,0-4.136-1.852-4.136-4.138V74.244
				c0-2.284,1.852-4.136,4.136-4.136H376.306z"/>
                <path fill="#74CB96" d="M493.297,74.244v22.675c0,2.286-1.852,4.138-4.136,4.138h-29.483V70.108h29.483
				C491.445,70.108,493.297,71.96,493.297,74.244z"/>
            </g>
            <g>
                <path fill="#74CB96" d="M399.459,45.163l-21.884,21.886l-20.847-20.847c-1.617-1.617-1.617-4.236,0-5.852l16.031-16.033
				c1.617-1.617,4.236-1.617,5.853,0L399.459,45.163z"/>
                <path fill="#74CB96" d="M479.259,130.814l-16.033,16.033c-1.618,1.616-4.237,1.616-5.851,0l-20.847-20.846l21.884-21.885
				l20.847,20.847C480.873,126.579,480.873,129.199,479.259,130.814z"/>
            </g>
            <g>
                <path fill="#74CB96" d="M458.412,67.048l-21.884-21.886l20.847-20.846c1.614-1.617,4.233-1.617,5.851,0l16.033,16.033
				c1.614,1.615,1.614,4.235,0,5.852L458.412,67.048z"/>
                <path fill="#74CB96" d="M372.759,146.848l-16.031-16.033c-1.617-1.615-1.617-4.235,0-5.851l20.847-20.847l21.884,21.885
				l-20.847,20.846C376.995,148.464,374.376,148.464,372.759,146.848z"/>
            </g>
        </g>
        <g>
            <g>
                <path fill="none" stroke="#D7B4B4" stroke-width="0.4707" stroke-miterlimit="10" d="M721.482,455.688H201.631
				c-6.876,0-12.451-5.574-12.451-12.449V122.609c0-6.876,5.574-12.451,12.451-12.451h519.852c6.878,0,12.452,5.575,12.452,12.451
				v320.629C733.935,450.113,728.36,455.688,721.482,455.688z"/>
                <path fill="#F8E7E2" d="M751.569,429.576H231.718c-6.877,0-12.452-5.575-12.452-12.452V96.498
				c0-6.878,5.575-12.452,12.452-12.452h519.851c6.879,0,12.453,5.574,12.453,12.452v320.626
				C764.022,424.001,758.448,429.576,751.569,429.576z"/>
            </g>
            <g>
                <g>
                    <path fill="none" stroke="#D7B4B4" stroke-width="0.4862" stroke-miterlimit="10" d="M438.574,367.371H287.206
					c-3.331,0-6.028-2.698-6.028-6.029V137.52c0-3.329,2.697-6.027,6.028-6.027h151.369c3.331,0,6.029,2.698,6.029,6.027v223.822
					C444.603,364.673,441.905,367.371,438.574,367.371z"/>
                    <path fill="none" stroke="#FFFFFF" stroke-width="0.4599" stroke-miterlimit="10" d="M412.275,337.232H306.899
					c-3.224,0-5.837-2.613-5.837-5.838v-84.189c0-3.223,2.613-5.836,5.837-5.836h105.375c3.221,0,5.835,2.613,5.835,5.836v84.189
					C418.11,334.619,415.496,337.232,412.275,337.232z"/>
                </g>
                <g>
                    <circle fill="#3C6BE2" cx="262.387" cy="105.107" r="6.892"/>
                    <circle fill="#E17246" cx="285.312" cy="105.107" r="6.892"/>
                    <path fill="none" stroke="#D7B4B4" stroke-width="0.3225" stroke-miterlimit="10" d="M315.128,105.107
					c0,3.806-3.087,6.891-6.894,6.891c-3.804,0-6.891-3.084-6.891-6.891c0-3.807,3.087-6.892,6.891-6.892
					C312.042,98.215,315.128,101.3,315.128,105.107z"/>
                </g>
                <path fill="none" stroke="#FFFFFF" stroke-width="0.4599" stroke-miterlimit="10" d="M745.742,280.273v62.786
				c0,4.333-3.514,7.845-7.847,7.845H585.023c-4.334,0-7.847-3.512-7.847-7.845v-62.786c0-4.335,3.513-7.85,7.847-7.85h152.872
				C742.229,272.423,745.742,275.938,745.742,280.273z"/>
                <g>
                    <path fill="none" stroke="#D7B4B4" stroke-width="0.4707" stroke-miterlimit="10" d="M602.786,180.36H487.61
					c-9.338,0-16.909-7.569-16.909-16.906l0,0c0-9.338,7.57-16.907,16.909-16.907h115.176c9.335,0,16.905,7.569,16.905,16.907l0,0
					C619.691,172.792,612.121,180.36,602.786,180.36z"/>
                    <path fill="none" stroke="#FFFFFF" stroke-width="0.4599" stroke-miterlimit="10" d="M515.081,163.454
					c0,2.917-2.362,5.283-5.283,5.283c-2.917,0-5.283-2.366-5.283-5.283c0-2.917,2.366-5.283,5.283-5.283
					C512.719,158.171,515.081,160.537,515.081,163.454z"/>
                    <circle fill="none" stroke="#FFFFFF" stroke-width="0.4599" stroke-miterlimit="10" cx="546.077" cy="163.454" r="5.283"/>
                    <circle fill="none" stroke="#FFFFFF" stroke-width="0.4599" stroke-miterlimit="10" cx="579.539" cy="163.454" r="5.283"/>
                </g>
            </g>
        </g>
        <g>
            <g>
                <path fill="#3C6BE2" d="M384.465,202.967H169.533c-3.108,0-5.629-2.521-5.629-5.629v-45.662c0-3.108,2.521-5.628,5.629-5.628
				h214.932c3.108,0,5.628,2.52,5.628,5.628v45.662C390.093,200.446,387.574,202.967,384.465,202.967z"/>
                <g>
                    <line fill="none" stroke="#FFFFFF" stroke-width="0.4539" stroke-miterlimit="10" x1="185.501" y1="167.681" x2="300.614" y2="167.681"/>
                    <line fill="none" stroke="#FFFFFF" stroke-width="0.4539" stroke-miterlimit="10" x1="185.501" y1="181.332" x2="241.297" y2="181.332"/>
                </g>
            </g>
            <path fill="#ECC341" d="M816.451,312.979v62.785c0,4.337-3.513,7.85-7.846,7.85H632.457c-4.336,0-7.85-3.513-7.85-7.85v-62.785
			c0-4.333,3.514-7.847,7.85-7.847h176.148C812.938,305.133,816.451,308.646,816.451,312.979z"/>
            <g>
                <path fill="#74CB96" d="M779.833,200.692H646.414c-4.334,0-7.847-3.514-7.847-7.848V44.799c0-4.335,3.513-7.849,7.847-7.849
				h133.419c4.334,0,7.847,3.514,7.847,7.849v148.045C787.68,197.178,784.167,200.692,779.833,200.692z"/>
                <g>
                    <circle fill="#3C6BE2" cx="774.789" cy="43.855" r="24.974"/>
                    <g>
                        <g>
                            <path fill="#F9FBFC" d="M772.225,40.204l-8.472,3.105l8.472,3.079v3.182l-12.109-4.606v-3.309l12.109-4.604V40.204z"/>
                        </g>
                        <g>
                            <path fill="#F9FBFC" d="M777.521,37.05l12.11,4.604v3.309l-12.11,4.606v-3.182l8.473-3.079l-8.473-3.105V37.05z"/>
                        </g>
                    </g>
                </g>
                <g>
                    <line fill="none" stroke="#FFFFFF" stroke-width="0.4454" stroke-miterlimit="10" x1="661.288" y1="82.637" x2="763.038" y2="82.637"/>
                    <line fill="none" stroke="#FFFFFF" stroke-width="0.4454" stroke-miterlimit="10" x1="661.288" y1="99.212" x2="715.018" y2="99.212"/>
                    <line fill="none" stroke="#FFFFFF" stroke-width="0.4454" stroke-miterlimit="10" x1="683.855" y1="118.272" x2="734.063" y2="118.272"/>
                    <line fill="none" stroke="#FFFFFF" stroke-width="0.4454" stroke-miterlimit="10" x1="661.288" y1="134.845" x2="763.038" y2="134.845"/>
                    <line fill="none" stroke="#FFFFFF" stroke-width="0.4454" stroke-miterlimit="10" x1="661.288" y1="153.906" x2="691.898" y2="153.906"/>
                    <line fill="none" stroke="#FFFFFF" stroke-width="0.4454" stroke-miterlimit="10" x1="699.714" y1="153.906" x2="763.038" y2="153.906"/>
                    <line fill="none" stroke="#FFFFFF" stroke-width="0.4454" stroke-miterlimit="10" x1="661.288" y1="118.272" x2="674.988" y2="118.272"/>
                </g>
            </g>
        </g>
        <g>
            <path fill="none" stroke="#D7B4B4" stroke-width="0.5037" stroke-miterlimit="10" d="M168.905,27.054h-41.651
			c-2.134,0-3.862,1.753-3.862,3.917v23.425c0,2.162,1.729,3.916,3.862,3.916h16.972l14.27,15.919v-15.34l10.486-0.213
			c2.103-0.042,3.785-1.783,3.785-3.916V30.971C172.767,28.808,171.039,27.054,168.905,27.054z"/>
            <ellipse fill="none" stroke="#D7B4B4" stroke-width="0.5037" stroke-miterlimit="10" cx="107.335" cy="354.671" rx="10.429" ry="10.574"/>
            <ellipse fill="none" stroke="#D7B4B4" stroke-width="0.5037" stroke-miterlimit="10" cx="856.365" cy="241.84" rx="7.599" ry="7.706"/>
            <rect x="557.671" y="5.955" fill="none" stroke="#D7B4B4" stroke-width="0.5037" stroke-miterlimit="10" width="15.773" height="15.995"/>
        </g>
    </g>
    <g>
        <g>
            <g>
                <g>
                    <rect x="499.009" y="498.439" fill="#E3A6A9" width="15.191" height="43.198"/>
                    <g>
                        <g>
                            <defs>
                                <path id="XMLID_5_" d="M499.009,538.893h19.632l14.345,6.844c3.243,1.668,5.283,5.008,5.283,8.654l0,0h-39.26V538.893z"/>
                            </defs>
                            <use xlink:href="#XMLID_5_"  overflow="visible" fill="#262127"/>
                            <clipPath id="XMLID_2_">
                                <use xlink:href="#XMLID_5_"  overflow="visible"/>
                            </clipPath>
                        </g>
                        <path fill="#262127" d="M520.239,539.63l-4.419-5.985c0,0-6.912-1.263-6.311,6.255L520.239,539.63z"/>
                    </g>
                </g>
                <path fill="#E17246" d="M493.2,361.946l23.454-13.509c0,0,10.402,14.451,10.402,41.666c0,27.214,1.129,117.373,1.129,117.373
				h-32.852L493.2,361.946"/>
            </g>
            <g>
                <g>
                    <rect x="474.192" y="498.439" fill="#E3A6A9" width="15.188" height="43.198"/>
                    <g>
                        <g>
                            <defs>
                                <path id="XMLID_7_" d="M489.38,538.893h-19.628l-14.348,6.844c-3.243,1.668-5.283,5.008-5.283,8.654l0,0h39.259V538.893z"/>
                            </defs>
                            <use xlink:href="#XMLID_7_"  overflow="visible" fill="#262127"/>
                            <clipPath id="XMLID_3_">
                                <use xlink:href="#XMLID_7_"  overflow="visible"/>
                            </clipPath>
                        </g>
                        <path fill="#262127" d="M468.151,539.63l4.418-5.985c0,0,6.915-1.263,6.311,6.255L468.151,539.63z"/>
                    </g>
                </g>
                <g>
                    <path fill="#E17246" d="M494.062,361.818l-22.354-13.381c0,0-7.104,13.91-7.104,41.125c0,27.213-0.652,117.914-0.652,117.914
					h29.072L494.062,361.818"/>
                    <polygon fill="#CF5E38" points="493.61,376.761 493.61,376.761 487.347,376.761 493.503,446.988 				"/>
                </g>
            </g>
            <rect x="471.708" y="348.438" fill="#E17246" width="44.947" height="24.821"/>
        </g>
        <g>
            <g>
                <path fill="#262127" d="M495.318,278.649c0,0-12.402-0.779-21.145,10.65c-7.775,10.165-2.466,59.138-2.466,59.138h44.947
				l0.647-57.893C517.302,290.545,507.89,279.406,495.318,278.649z"/>
                <polygon fill="#1E1A1A" points="506.648,308.439 514.426,320.669 503.961,318.688 			"/>
                <polygon fill="#1E1A1A" points="516.654,341.816 516.654,348.438 481.869,340.557 487.54,329.127 516.544,335.992 			"/>
            </g>
            <g>
                <circle fill="#ECC341" cx="453.762" cy="319.808" r="38.589"/>
                <g>
                    <path fill="#E3A6A9" d="M421.531,296.626c-0.99,0-1.955,0.279-2.773,0.84c-1.404,0.962-3.272,2.836-3.466,6.066
					c-0.313,5.235,1.153,7.138,5.023,8.288l2.617-15.194H421.531z"/>
                    <g>
                        <path fill="#E3A6A9" d="M422.932,296.626h6.339c0.777,0,1.407,0.63,1.407,1.406v0.411c0,0.699-0.514,1.291-1.206,1.392
						l-9.68,1.396L422.932,296.626z"/>
                        <path fill="#E3A6A9" d="M420.628,300.004l7.508,3.281c0.711,0.31,1.034,1.14,0.727,1.852l-0.028,0.059
						c-0.267,0.618-0.931,0.957-1.585,0.815l-7.85-1.695L420.628,300.004z"/>
                        <path fill="#E3A6A9" d="M420.369,304.287l5.788,2.654c0.674,0.308,0.993,1.091,0.727,1.783l-0.009,0.021
						c-0.276,0.724-1.084,1.088-1.808,0.814l-6.706-2.271L420.369,304.287z"/>
                        <path fill="#E3A6A9" d="M420.315,311.82l2.842,0.689c0.712,0.172,1.435-0.229,1.667-0.921l0,0
						c0.232-0.692-0.106-1.451-0.78-1.739l-5.073-2.701L420.315,311.82z"/>
                    </g>
                </g>
            </g>
            <g>
                <path fill="#262127" d="M517.302,290.545c0,0,6.516,7.234,23.64,38.337c1.526,2.773,1.761,6.101,0.352,8.934l0,0
				c-3.181,6.393-12.084,6.963-16.054,1.024c-5.537-8.278-18.625-30.128-18.591-30.4
				C506.712,307.938,517.302,290.545,517.302,290.545z"/>
                <g>
                    <g>
                        <g>
                            <path fill="#E3A6A9" d="M490.784,322.885l-2.166,10.798l-14.444-1.344c0,0,4.148-14.722,4.252-14.512
							C478.526,318.041,490.784,322.885,490.784,322.885z"/>
                            <path fill="#E3A6A9" d="M490.784,322.885c-0.684-0.273-5.293-5.646-7.286-7.993c-0.482-0.568-1.396-0.559-1.924,0.019l0,0
							c-0.341,0.376-0.426,0.898-0.216,1.334l3.071,6.327L490.784,322.885z"/>
                            <path fill="#E3A6A9" d="M478.426,317.827l-5.405-2.118c-0.724-0.285-1.58,0.097-1.855,0.827l0,0
							c-0.241,0.63,0.032,1.315,0.643,1.599l7.833,3.628L478.426,317.827z"/>
                            <path fill="#E3A6A9" d="M477.297,321.421l-7.934-1.585c-0.751-0.153-1.513,0.325-1.686,1.063l0,0
							c-0.147,0.635,0.204,1.259,0.827,1.473l9.316,2.985L477.297,321.421z"/>
                            <path fill="#E3A6A9" d="M476.781,325.501l-7.436-0.729c-0.831-0.086-1.601,0.507-1.717,1.313l0,0
							c-0.107,0.755,0.407,1.436,1.178,1.558l8.159,1.294L476.781,325.501z"/>
                            <path fill="#E3A6A9" d="M474.174,332.339l-4.425-0.553c-0.63-0.084-1.063-0.629-0.987-1.247l0,0
							c0.076-0.588,0.589-1.055,1.203-1.09l7-0.514L474.174,332.339z"/>
                        </g>
                        <polygon fill="#E3A6A9" points="490.784,322.885 501.403,324.197 497.383,334.243 488.618,333.683 					"/>
                    </g>
                    <path fill="#262127" d="M533.289,323.74l-37.514-6.461l-4.729,20.376l39.341,6.393c6.603,0.905,12.302-4.625,11.594-11.252l0,0
					C541.483,328.151,537.911,324.427,533.289,323.74z"/>
                </g>
            </g>
        </g>
        <g>
            <circle fill="#1E1A1A" cx="511.507" cy="228.209" r="13.362"/>
            <path fill="#262127" d="M471.134,251.8c1.529,11.128,9.542,20.601,21.057,20.778c7.333,0.114,22.389-8.088,22.562-19.312
			c0.175-11.226-7.787-22.735-23.201-22.973C480.036,230.117,469.445,239.539,471.134,251.8z"/>
            <g>
                <g>
                    <path fill="#E3A6A9" d="M484.558,266.645l2.087,15.473c0.564,4.199,4.428,7.141,8.627,6.571l0,0
					c4.188-0.568,7.129-4.428,6.563-8.621l-2.012-14.901c-0.554-4.089-3.875-3.494-8.071-2.925l0,0
					C487.556,262.813,484.004,262.556,484.558,266.645z"/>
                </g>
                <path fill="#0C162E" d="M499.761,260.468c0,0,0.64,17.691-13.442,19.249l-1.381-10.225L499.761,260.468z"/>
            </g>
            <path fill="#E3A6A9" d="M487.219,275.315L487.219,275.315c-8.21-0.127-14.854-5.058-14.728-13.06l0.213-13.761
			c0.091-5.905,6.8-12.025,10.375-11.969l13.114,3.801c3.572,0.055,6.454,2.95,6.398,6.433l-0.21,13.708
			C502.255,268.47,494.143,275.422,487.219,275.315z"/>
            <g>
                <ellipse transform="matrix(-0.9985 0.0543 -0.0543 -0.9985 988.6508 485.2995)" fill="#262127" cx="487.735" cy="256.076" rx="1.183" ry="1.152"/>
                <ellipse transform="matrix(-0.9985 0.0546 -0.0546 -0.9985 967.079 485.2456)" fill="#262127" cx="476.917" cy="255.822" rx="1.181" ry="1.152"/>
                <path fill="none" stroke="#B17079" stroke-width="0.3399" stroke-linecap="round" stroke-linejoin="round" stroke-miterlimit="10" d="
				M480.325,257.655l-0.37,3.298c0,0,0.172,1.745,2.729,1.116"/>
                <path fill="#262127" d="M490.969,252.761c-0.072,0.009-0.144,0.013-0.22,0.009l-5.346-0.304c-0.595-0.035-1.05-0.533-1.016-1.116
				c0.032-0.581,0.543-1.023,1.141-0.992l5.347,0.304c0.595,0.034,1.049,0.532,1.018,1.115
				C491.861,252.288,491.467,252.69,490.969,252.761z"/>
                <path fill="#262127" d="M478.084,252.278c-0.072,0.009-0.144,0.013-0.219,0.009l-3.268-0.187
				c-0.596-0.034-1.053-0.533-1.019-1.114c0.035-0.583,0.548-1.026,1.144-0.992l3.265,0.185c0.599,0.035,1.053,0.533,1.019,1.114
				C478.977,251.803,478.583,252.208,478.084,252.278z"/>
                <path fill="#FFFFF6" d="M487.735,264.769l-9.639-0.659c0,0,1.561,3.95,4.82,3.95
				C487.127,268.062,487.735,264.769,487.735,264.769z"/>
            </g>
            <path fill="#262127" d="M497.537,239.622c0,0-5.676,14.265,3.048,18.713l10.063-12.922L497.537,239.622z"/>
            <path fill="#E3A6A9" d="M507.482,258.186c-0.045,2.754-2.369,4.951-5.193,4.907c-2.826-0.043-5.081-2.311-5.037-5.065
			c0.04-2.754,2.365-4.951,5.191-4.907S507.526,255.432,507.482,258.186z"/>
            <path fill="#262127" d="M503.343,238.894c0,0-7.313,6.703-14.427,8.296c-8.14,1.824-20.364,0.648-20.364,0.648
			s8.116-15.07,19.525-13.745C499.485,235.418,503.343,238.894,503.343,238.894z"/>
        </g>
    </g>
    <g>
        <g>
            <g>
                <g>
                    <g>
                        <polygon fill="#E3A6A9" points="241.943,344.807 231.657,334.503 227.534,345.856 233.949,352.227 					"/>
                        <path fill="#E3A6A9" d="M234.88,345.289c-4.432,2.629-5.891,8.356-3.258,12.79c2.632,4.432,8.357,5.892,12.791,3.26
						c4.431-2.633,5.891-8.36,3.259-12.792C245.039,344.113,239.312,342.657,234.88,345.289z"/>
                    </g>
                    <path fill="#3C6BE2" d="M217.328,307.274l23.443,30.222l-15.84,13.812l-24.245-31.87c-3.92-5.43-1.705-13.095,4.506-15.595
					h0.001C209.548,302.088,214.536,303.501,217.328,307.274z"/>
                </g>
                <g>
                    <path fill="#3C6BE2" d="M249.579,279.928c0,0-20.145,8.263-45.391,24.322c-2.683,1.707-4.498,4.521-4.625,7.698l0,0
					c-0.286,7.17,7.281,11.973,13.646,8.661c8.877-4.618,30.965-17.544,31.065-17.802
					C244.462,302.335,249.579,279.928,249.579,279.928z"/>
                    <polygon fill="#3359AD" points="244.274,302.808 244.616,295.633 232.42,309.85 				"/>
                </g>
            </g>
            <path fill="#3C6BE2" d="M273.046,274.375c0,0-16.081,0.656-28.026,7.953l-2.457,86.092h56.484l-2.939-90.236
			C296.108,278.184,286.576,275.677,273.046,274.375z"/>
            <g>
                <path fill="#3C6BE2" d="M289.917,276.819c0,0,21.486,1.974,49.562,6.017c3.146,0.451,5.879,2.472,7.204,5.364l0,0
				c2.989,6.523-2.503,12.744-9.335,13.195c0,0-44.207,1.403-44.958-0.593C292.21,300.326,289.917,276.819,289.917,276.819z"/>
                <g>
                    <g>
                        <polygon fill="#E3A6A9" points="341.954,244.593 338.419,258.714 350.273,256.405 352.432,247.626 					"/>
                        <circle fill="#E3A6A9" cx="347.517" cy="240.301" r="9.334"/>
                        <path fill="#E3A6A9" d="M339.541,235.45l2.554-9.776c0.16-0.838,0.98-1.421,1.811-1.284l0,0
						c0.718,0.119,1.212,0.746,1.166,1.478l-0.886,10.867L339.541,235.45z"/>
                    </g>
                    <path fill="#3C6BE2" d="M327.546,288.836l7.21-37.562l20.834,2.773l-7.921,39.254c-1.488,6.526-8.708,9.926-14.686,6.915l0,0
					C328.79,298.105,326.556,293.427,327.546,288.836z"/>
                </g>
            </g>
        </g>
        <g>
            <polygon fill="#ECC341" points="242.472,368.42 241.132,387.032 300.178,386.7 298.959,368.42 		"/>
            <g>
                <g>
                    <polygon fill="#E3A6A9" points="309.632,541.575 294.372,541.575 291.737,520.944 307,520.944 				"/>
                    <g>
                        <g>
                            <defs>
                                <path id="XMLID_10_" d="M294.008,539.113h19.356l14.147,6.743c3.196,1.645,5.208,4.94,5.208,8.534l0,0h-38.711V539.113z"/>
                            </defs>
                            <use xlink:href="#XMLID_10_"  overflow="visible" fill="#262127"/>
                            <clipPath id="XMLID_4_">
                                <use xlink:href="#XMLID_10_"  overflow="visible"/>
                            </clipPath>
                        </g>
                        <path fill="#262127" d="M314.94,539.837l-4.355-5.903c0,0-6.819-1.245-6.223,6.166L314.94,539.837z"/>
                    </g>
                </g>
                <polygon fill="#ECC341" points="268.283,376.761 284.843,524.759 313.057,524.759 299.251,376.761 			"/>
            </g>
            <g>
                <g>
                    <polygon fill="#E3A6A9" points="236.212,541.575 251.475,541.575 254.107,520.944 238.844,520.944 				"/>
                    <g>
                        <g>
                            <defs>
                                <path id="XMLID_9_" d="M251.838,539.113h-19.357l-14.146,6.743c-3.199,1.645-5.211,4.94-5.211,8.534l0,0h38.714V539.113z"/>
                            </defs>
                            <use xlink:href="#XMLID_9_"  overflow="visible" fill="#262127"/>
                            <clipPath id="XMLID_11_">
                                <use xlink:href="#XMLID_9_"  overflow="visible"/>
                            </clipPath>
                        </g>
                        <path fill="#262127" d="M230.904,539.837l4.357-5.903c0,0,6.817-1.245,6.222,6.166L230.904,539.837z"/>
                    </g>
                </g>
                <g>
                    <polygon fill="#ECC341" points="272.814,376.761 259.775,524.759 231.565,524.759 241.846,376.761 				"/>
                    <polygon fill="#DDB237" points="270.806,399.313 254.593,398.912 270.038,408.266 				"/>
                </g>
            </g>
        </g>
        <g>
            <path fill="#E3A6A9" d="M260.788,248.52l0.567,27.211c0.101,4.83,3.927,8.752,8.752,8.976l0,0c5.173,0.24,9.522-3.846,9.604-9.023
			l0.366-22.85L260.788,248.52z"/>
            <g>
                <g>
                    <path fill="#E3A6A9" d="M273.838,267.403l-0.561,0.002c-8.307,0.017-13.624-9.432-13.643-17.518l-1.467-13.623
					c-0.006-2.091,1.736-3.793,3.886-3.798l19.797-0.042c3.839-0.01,6.959,3.016,6.969,6.752l0.029,15.904
					C288.867,263.167,282.146,267.386,273.838,267.403z"/>
                    <path fill="#E3A6A9" d="M288.331,246.807l2.594,4.755c0.376,0.687-0.123,1.521-0.903,1.521h-2.619L288.331,246.807z"/>
                </g>
                <path fill="#0B0006" d="M279.864,266.556v-3.618c0,0,1.36,1.808,3.933,1.803C283.796,264.741,281.66,266.23,279.864,266.556z"/>
            </g>
            <path fill="#3C6BE2" d="M261.367,276.066c0,0,6.94,7.418,18.347-0.638l2.115,9.288l-22.533,0.461L261.367,276.066z"/>
            <path fill="#3C6BE2" d="M261.367,276.066c0,0,6.94,7.418,18.347-0.638l2.115,9.288l-22.533,0.461L261.367,276.066z"/>
            <path fill="#0B0006" d="M293.861,226.347c0.047-1.023-0.05-2.088-0.338-3.179c-0.903-3.392-3.726-6.071-7.138-6.888
			c-5.891-1.412-11.315,2.53-12.18,8.074c-5.828-4.443-12.69,0.522-12.888,4.757c-13.612,0.179-12.603,12.9-10.764,17.684
			l-0.006,0.001c0.743,2.582,7.448,10.216,9.125,12.096v1.494c0,1.876,1.525,3.394,3.399,3.385l10.507-0.052
			c1.861-0.009,3.365-1.521,3.365-3.384v-13.069l0.805,1.733c0.257-0.172,3.14-3.276,3.024-8.294
			c3.819-1.294,9.097-3.889,11.653-8.827c1.285-2.029,1.438-5.522,1.441-5.53L293.861,226.347z"/>
            <ellipse transform="matrix(1 -0.0021 0.0021 1 -0.5218 0.5764)" fill="#E3A6A9" cx="275.769" cy="250.177" rx="4.092" ry="4.837"/>
        </g>
    </g>
    <g>
        <g>
            <polygon fill="#3C6BE2" points="724.017,365.782 724.327,384.799 666.523,384.799 666.731,365.782 		"/>
            <g>
                <g>
                    <rect x="699.867" y="520.469" fill="#E3A6A9" width="15.479" height="20.925"/>
                    <g>
                        <g>
                            <defs>
                                <path id="XMLID_8_" d="M699.867,538.893h19.632l14.345,6.844c3.246,1.668,5.283,5.008,5.283,8.654l0,0h-39.26V538.893z"/>
                            </defs>
                            <use xlink:href="#XMLID_8_"  overflow="visible" fill="#262127"/>
                            <clipPath id="XMLID_12_">
                                <use xlink:href="#XMLID_8_"  overflow="visible"/>
                            </clipPath>
                        </g>
                        <path fill="#262127" d="M721.097,539.63l-4.418-5.985c0,0-6.916-1.263-6.311,6.255L721.097,539.63z"/>
                    </g>
                </g>
                <polygon fill="#3C6BE2" points="692.607,374.242 698.683,524.338 727.294,524.338 724.017,374.242 			"/>
            </g>
            <g>
                <g>
                    <rect x="670.68" y="520.469" fill="#E3A6A9" width="15.479" height="20.925"/>
                    <g>
                        <g>
                            <defs>
                                <path id="XMLID_6_" d="M686.158,538.893h-19.63l-14.347,6.844c-3.242,1.668-5.282,5.008-5.282,8.654l0,0h39.259V538.893z"/>
                            </defs>
                            <use xlink:href="#XMLID_6_"  overflow="visible" fill="#262127"/>
                            <clipPath id="XMLID_13_">
                                <use xlink:href="#XMLID_6_"  overflow="visible"/>
                            </clipPath>
                        </g>
                        <path fill="#262127" d="M664.93,539.63l4.418-5.985c0,0,6.915-1.263,6.311,6.255L664.93,539.63z"/>
                    </g>
                </g>
                <g>
                    <polygon fill="#3C6BE2" points="666.731,377.491 662.573,524.338 692.607,524.338 694.265,379.863 				"/>
                    <polygon fill="#3359AD" points="694.202,385.394 687.691,385.394 693.24,469.361 				"/>
                </g>
            </g>
        </g>
        <g>
            <g>
                <path fill="#E17246" d="M693.099,270.404c0,0,16.31,0.666,28.428,8.065l2.49,87.313h-57.285l2.863-87.89
				C669.595,277.893,679.381,271.724,693.099,270.404z"/>
                <polygon fill="#D66538" points="715.71,303.053 722.55,314.459 722.55,320.581 715.243,323.752 			"/>
                <path fill="#D66538" d="M723.225,343.892l-16.758,6.868l-2.219-6.035l-9.983,0.611l-5.148,0.432l-2.484,4.635
				c0,0,0.223,2.596,4.314,1.727c4.096-0.868,3.3,5.058,11.359,2.89l4.154-1.589l1.878,3.033l15.25-5.703L723.225,343.892z"/>
            </g>
            <g>
                <g>
                    <g>
                        <polygon fill="#E3A6A9" points="600.323,277.127 608.506,282.284 602.476,291.415 594.85,286.562 					"/>
                        <path fill="#E3A6A9" d="M602.217,280.749c-1.592,4.903-6.856,7.592-11.761,6c-4.9-1.588-7.589-6.852-5.997-11.756
						c1.588-4.904,6.853-7.589,11.757-6C601.119,270.583,603.805,275.847,602.217,280.749z"/>
                        <path fill="#E3A6A9" d="M595.745,268.854l-8.604-5.3c-0.693-0.495-1.689-0.347-2.194,0.325l0,0
						c-0.438,0.583-0.363,1.377,0.18,1.874l8.152,7.24L595.745,268.854z"/>
                    </g>
                    <path fill="#E17246" d="M642.717,294.746l-33.918-18.821l-11.396,18.015l35.699,19.368c6.048,3.087,13.386-0.319,14.931-6.932
					l0,0C649.118,301.74,646.934,296.959,642.717,294.746z"/>
                </g>
                <g>
                    <path fill="#E17246" d="M673.073,276.036c0,0-15.837,6.853-40.892,20.988c-2.808,1.582-4.65,4.496-4.838,7.717l0,0
					c-0.43,7.265,7.047,11.127,13.668,9.044c0,0,33.155-10.883,33.134-13.045C674.139,300.227,673.073,276.036,673.073,276.036z"/>
                    <polygon fill="#D66538" points="668.749,303.786 668.981,295.66 658.07,307.896 				"/>
                </g>
            </g>
            <g>
                <path fill="#3C6BE2" d="M759.24,352.022l-106.143-11.052c-2.372-0.237-4.105-2.354-3.87-4.728l1.278-12.792
				c0.238-2.375,2.356-4.107,4.729-3.869l106.143,11.051c2.376,0.239,4.104,2.354,3.87,4.729l-1.278,12.791
				C763.73,350.527,761.616,352.261,759.24,352.022z"/>
                <g>
                    <path fill="#E17246" d="M721.526,278.469c0,0,11.628,15.835,26.333,40.561c1.648,2.77,1.796,6.214,0.36,9.1l0,0
					c-3.243,6.514-12.314,7.095-16.359,1.047c-5.64-8.435-18.979-30.701-18.945-30.98
					C712.98,297.686,721.526,278.469,721.526,278.469z"/>
                    <g>
                        <g>
                            <path fill="#E3A6A9" d="M703.73,347.602c0,0-4.518,8.363-13.082,7.288c-9.886-1.241-10.732-9.074-6.229-10.656l6.678,0.498
							c0,0,0.126-4.324,4.277-6.167c0.956-0.427,2.13-0.721,3.565-0.8L703.73,347.602z"/>
                            <polygon fill="#E3A6A9" points="702.54,348.077 712.69,343.312 707.742,334.601 698.939,337.765 						"/>
                            <path fill="#E3A6A9" d="M696.885,338.057l-9.216,1.667c-0.604,0.132-1.037,0.668-1.037,1.284l0,0
							c0,0.684,0.52,1.251,1.196,1.313l8.913,0.746L696.885,338.057z"/>
                        </g>
                        <path fill="#E17246" d="M734.702,315.308l-35.586,15.442l7.351,20.01l37.103-16.52c6.133-2.914,7.899-10.813,3.598-16.065l0,0
						C744.15,314.493,739.023,313.315,734.702,315.308z"/>
                    </g>
                </g>
            </g>
        </g>
        <g>
            <g>
                <path fill="#E3A6A9" d="M704.063,245.753l-0.715,27.468c-0.128,4.875-4.011,8.813-8.883,9.014l0,0
				c-5.224,0.216-9.592-3.929-9.649-9.16l-0.246-23.067L704.063,245.753z"/>
                <path fill="#262127" d="M702.819,251.104c0,0-1.209,20.611-18.04,16.712l-0.091-8.301L702.819,251.104z"/>
            </g>
            <g>
                <path fill="#262127" d="M674.652,224.433c0,0-9,6.524-1.081,15.29c7.921,8.764,6.774-15.29,6.774-15.29H674.652z"/>
                <path fill="#262127" d="M706.473,244.512c0,0,12.228-17.28-4.679-21.667l1.223,22.614L706.473,244.512z"/>
                <path fill="#E3A6A9" d="M688.581,263.552l0.566,0.004c8.39,0.063,15.235-6.685,15.298-15.071l0.125-17.145
				c0.02-2.172-1.729-3.943-3.901-3.959l-19.984-0.148c-3.877-0.028-7.042,3.091-7.073,6.969l-0.103,14.055
				C673.446,256.642,680.195,263.491,688.581,263.552z"/>
                <g>
                    <circle fill="#262127" cx="689.943" cy="243.412" r="1.237"/>
                    <path fill="#262127" d="M677.027,243.432c0.051,0.684,0.644,1.197,1.322,1.15c0.684-0.048,1.197-0.639,1.15-1.323
					c-0.047-0.683-0.639-1.197-1.322-1.149C677.494,242.159,676.98,242.751,677.027,243.432z"/>
                    <path fill="none" stroke="#B17079" stroke-width="0.3399" stroke-linecap="round" stroke-linejoin="round" stroke-miterlimit="10" d="
					M681.922,245.522l-0.43,2.964c0,0,0.205,1.874,2.874,1.158"/>
                    <path fill="#262127" d="M693.24,238.71c-0.074,0.013-0.15,0.016-0.229,0.015l-5.606-0.248c-0.627-0.028-1.109-0.558-1.084-1.184
					c0.028-0.625,0.556-1.107,1.185-1.083l5.605,0.247c0.624,0.028,1.109,0.557,1.081,1.183
					C694.171,238.187,693.761,238.627,693.24,238.71z"/>
                    <path fill="#262127" d="M679.394,238.43c-0.075,0.011-0.154,0.016-0.229,0.013l-3.427-0.15
					c-0.628-0.028-1.113-0.558-1.085-1.183c0.028-0.626,0.558-1.11,1.182-1.084l3.429,0.15c0.626,0.028,1.111,0.558,1.083,1.183
					C680.32,237.906,679.913,238.347,679.394,238.43z"/>
                    <path fill="none" stroke="#B17079" stroke-width="0.3399" stroke-linecap="round" stroke-linejoin="round" stroke-miterlimit="10" d="
					M691.019,250.202c0,0-4.932,4.975-12.296,1.08"/>
                </g>
                <path fill="#262127" d="M701.588,223.261l0.206-0.415c0,0-3.484-0.672-5.186-4.724c-0.278-0.845-0.674-1.778-1.26-2.833
				c-3.615-6.532-15.332-6.632-19.991-1.682c-4.659,4.951-3.704,12.47,1.873,17.143c4.541,3.805,12.638,1.139,15.492,0.016
				c0.702-0.275,1.461-0.363,2.207-0.246l1.676,0.267c-0.436,4.502,2.729,7.656,2.729,7.656v6.863h1.667l3.71-1.96l3.067-12.799
				C707.779,230.547,705.397,222.352,701.588,223.261z"/>
                <circle fill="#E3A6A9" cx="705.886" cy="245.343" r="4.884"/>
            </g>
        </g>
    </g>
</svg>
